<mxfile host="app.diagrams.net" modified="2021-10-07T17:30:53.832Z" agent="5.0 (Windows NT 10.0; Win64; x64) AppleWebKit/537.36 (KHTML, like Gecko) Chrome/94.0.4606.71 Safari/537.36" etag="Rc4zBipFUmZAJTKldxgn" version="15.4.3" type="github">
  <diagram id="AatjL-a4eU6nJETNqXJs" name="Page-1">
    <mxGraphModel dx="1768" dy="481" grid="1" gridSize="10" guides="1" tooltips="1" connect="1" arrows="1" fold="1" page="1" pageScale="1" pageWidth="850" pageHeight="1100" math="0" shadow="0">
      <root>
        <mxCell id="0" />
        <mxCell id="1" parent="0" />
        <mxCell id="EWHabAM2vr0j7ePy4UxX-1" value="m_lodging_facility" style="html=1;overflow=block;blockSpacing=1;whiteSpace=wrap;swimlane;resizeParent=1;resizeParentMax=0;resizeLast=0;collapsible=0;marginBottom=0;fontStyle=0;swimlaneFillColor=#ffffff;startSize=30;whiteSpace=wrap;fontSize=13;fontColor=#333333;fontStyle=3;align=center;fillColor=#e0e0e0;whiteSpace=wrap;spacing=0;strokeColor=#333333;strokeOpacity=100;fillOpacity=100;rounded=1;absoluteArcSize=1;arcSize=7.5;strokeWidth=0.8;" parent="1" vertex="1">
          <mxGeometry x="-780" y="80" width="250" height="250" as="geometry" />
        </mxCell>
        <mxCell id="EWHabAM2vr0j7ePy4UxX-2" value="" style="group" parent="EWHabAM2vr0j7ePy4UxX-1" vertex="1" connectable="0">
          <mxGeometry x="130" y="30" width="110" height="216" as="geometry" />
        </mxCell>
        <mxCell id="EWHabAM2vr0j7ePy4UxX-3" value="mediumint (PK)" style="shape=partialRectangle;top=0;right=0;bottom=0;part=1;resizeHeight=0;align=left;verticalAlign=top;spacingLeft=4;spacingRight=4;overflow=hidden;rotatable=0;points=[[0,0.5],[1,0.5]];portConstraint=eastwest;whiteSpace=wrap;swimlaneFillColor=#ffffff;whiteSpace=wrap;fontSize=13;fontColor=#333333;fontStyle=7;fillColor=none;strokeOpacity=100;fillOpacity=100;whiteSpace=wrap;spacing=0;strokeColor=#333333;rounded=1;absoluteArcSize=1;arcSize=7.5;strokeWidth=0.8;" parent="EWHabAM2vr0j7ePy4UxX-2" vertex="1">
          <mxGeometry width="110.00000000000001" height="24" as="geometry" />
        </mxCell>
        <mxCell id="EWHabAM2vr0j7ePy4UxX-4" value="varcharÂ " style="shape=partialRectangle;top=0;right=0;bottom=0;part=1;resizeHeight=0;align=left;verticalAlign=top;spacingLeft=4;spacingRight=4;overflow=hidden;rotatable=0;points=[[0,0.5],[1,0.5]];portConstraint=eastwest;whiteSpace=wrap;swimlaneFillColor=#ffffff;whiteSpace=wrap;fontSize=13;fillColor=none;strokeOpacity=100;fillOpacity=100;whiteSpace=wrap;spacing=0;strokeColor=#333333;rounded=1;absoluteArcSize=1;arcSize=7.5;strokeWidth=0.8;" parent="EWHabAM2vr0j7ePy4UxX-2" vertex="1">
          <mxGeometry y="24" width="110.00000000000001" height="24" as="geometry" />
        </mxCell>
        <mxCell id="EWHabAM2vr0j7ePy4UxX-6" value="text" style="shape=partialRectangle;top=0;right=0;bottom=0;part=1;resizeHeight=0;align=left;verticalAlign=top;spacingLeft=4;spacingRight=4;overflow=hidden;rotatable=0;points=[[0,0.5],[1,0.5]];portConstraint=eastwest;whiteSpace=wrap;swimlaneFillColor=#ffffff;whiteSpace=wrap;fontSize=13;fillColor=none;strokeOpacity=100;fillOpacity=100;whiteSpace=wrap;spacing=0;strokeColor=#333333;rounded=1;absoluteArcSize=1;arcSize=7.5;strokeWidth=0.8;fontColor=#000000;" parent="EWHabAM2vr0j7ePy4UxX-2" vertex="1">
          <mxGeometry y="72" width="110.00000000000001" height="24" as="geometry" />
        </mxCell>
        <mxCell id="EWHabAM2vr0j7ePy4UxX-7" value="varchar" style="shape=partialRectangle;top=0;right=0;bottom=0;part=1;resizeHeight=0;align=left;verticalAlign=top;spacingLeft=4;spacingRight=4;overflow=hidden;rotatable=0;points=[[0,0.5],[1,0.5]];portConstraint=eastwest;whiteSpace=wrap;swimlaneFillColor=#ffffff;whiteSpace=wrap;fontSize=13;fillColor=none;strokeOpacity=100;fillOpacity=100;whiteSpace=wrap;spacing=0;strokeColor=#333333;rounded=1;absoluteArcSize=1;arcSize=7.5;strokeWidth=0.8;fontColor=#000000;" parent="EWHabAM2vr0j7ePy4UxX-2" vertex="1">
          <mxGeometry y="96" width="110.00000000000001" height="24" as="geometry" />
        </mxCell>
        <mxCell id="EWHabAM2vr0j7ePy4UxX-8" value="varchar" style="shape=partialRectangle;top=0;right=0;bottom=0;part=1;resizeHeight=0;align=left;verticalAlign=top;spacingLeft=4;spacingRight=4;overflow=hidden;rotatable=0;points=[[0,0.5],[1,0.5]];portConstraint=eastwest;whiteSpace=wrap;swimlaneFillColor=#ffffff;whiteSpace=wrap;fontSize=13;fillColor=none;strokeOpacity=100;fillOpacity=100;whiteSpace=wrap;spacing=0;strokeColor=#333333;rounded=1;absoluteArcSize=1;arcSize=7.5;strokeWidth=0.8;fontColor=#000000;" parent="EWHabAM2vr0j7ePy4UxX-2" vertex="1">
          <mxGeometry y="120" width="110.00000000000001" height="24" as="geometry" />
        </mxCell>
        <mxCell id="EWHabAM2vr0j7ePy4UxX-9" value="varchar" style="shape=partialRectangle;top=0;right=0;bottom=0;part=1;resizeHeight=0;align=left;verticalAlign=top;spacingLeft=4;spacingRight=4;overflow=hidden;rotatable=0;points=[[0,0.5],[1,0.5]];portConstraint=eastwest;whiteSpace=wrap;swimlaneFillColor=#ffffff;whiteSpace=wrap;fontSize=13;fillColor=none;strokeOpacity=100;fillOpacity=100;whiteSpace=wrap;spacing=0;strokeColor=#333333;rounded=1;absoluteArcSize=1;arcSize=7.5;strokeWidth=0.8;fontColor=#000000;" parent="EWHabAM2vr0j7ePy4UxX-2" vertex="1">
          <mxGeometry y="144" width="110.00000000000001" height="24" as="geometry" />
        </mxCell>
        <mxCell id="EWHabAM2vr0j7ePy4UxX-10" value="tinyint" style="shape=partialRectangle;top=0;right=0;bottom=0;part=1;resizeHeight=0;align=left;verticalAlign=top;spacingLeft=4;spacingRight=4;overflow=hidden;rotatable=0;points=[[0,0.5],[1,0.5]];portConstraint=eastwest;whiteSpace=wrap;swimlaneFillColor=#ffffff;whiteSpace=wrap;fontSize=13;fillColor=none;strokeOpacity=100;fillOpacity=100;whiteSpace=wrap;spacing=0;strokeColor=#333333;rounded=1;absoluteArcSize=1;arcSize=7.5;strokeWidth=0.8;fontColor=#000000;" parent="EWHabAM2vr0j7ePy4UxX-2" vertex="1">
          <mxGeometry y="168" width="110.00000000000001" height="24" as="geometry" />
        </mxCell>
        <mxCell id="EWHabAM2vr0j7ePy4UxX-11" value="text" style="shape=partialRectangle;top=0;right=0;bottom=0;part=1;resizeHeight=0;align=left;verticalAlign=top;spacingLeft=4;spacingRight=4;overflow=hidden;rotatable=0;points=[[0,0.5],[1,0.5]];portConstraint=eastwest;whiteSpace=wrap;swimlaneFillColor=#ffffff;whiteSpace=wrap;fontSize=13;fillColor=none;strokeOpacity=100;fillOpacity=100;whiteSpace=wrap;spacing=0;strokeColor=#333333;rounded=1;absoluteArcSize=1;arcSize=7.5;strokeWidth=0.8;fontColor=#000000;" parent="EWHabAM2vr0j7ePy4UxX-2" vertex="1">
          <mxGeometry y="192" width="110.00000000000001" height="24" as="geometry" />
        </mxCell>
        <mxCell id="EWHabAM2vr0j7ePy4UxX-12" value="" style="group" parent="EWHabAM2vr0j7ePy4UxX-1" vertex="1" connectable="0">
          <mxGeometry y="30" width="130" height="216" as="geometry" />
        </mxCell>
        <mxCell id="EWHabAM2vr0j7ePy4UxX-13" value="facility_id" style="strokeColor=none;part=1;resizeHeight=0;align=left;verticalAlign=top;spacingLeft=4;spacingRight=4;overflow=hidden;rotatable=0;points=[[0,0.5],[1,0.5]];portConstraint=eastwest;whiteSpace=wrap;swimlaneFillColor=#ffffff;whiteSpace=wrap;fontSize=13;fontColor=#333333;fontStyle=7;fillColor=none;strokeOpacity=100;fillOpacity=100;whiteSpace=wrap;spacing=0;rounded=1;absoluteArcSize=1;arcSize=7.5;strokeWidth=0.8;" parent="EWHabAM2vr0j7ePy4UxX-12" vertex="1">
          <mxGeometry width="130" height="24" as="geometry" />
        </mxCell>
        <mxCell id="EWHabAM2vr0j7ePy4UxX-14" value="shop_no" style="strokeColor=none;part=1;resizeHeight=0;align=left;verticalAlign=top;spacingLeft=4;spacingRight=4;overflow=hidden;rotatable=0;points=[[0,0.5],[1,0.5]];portConstraint=eastwest;whiteSpace=wrap;swimlaneFillColor=#ffffff;whiteSpace=wrap;fontSize=13;fillColor=none;strokeOpacity=100;fillOpacity=100;whiteSpace=wrap;spacing=0;rounded=1;absoluteArcSize=1;arcSize=7.5;strokeWidth=0.8;" parent="EWHabAM2vr0j7ePy4UxX-12" vertex="1">
          <mxGeometry y="24" width="130" height="24" as="geometry" />
        </mxCell>
        <mxCell id="EWHabAM2vr0j7ePy4UxX-16" value="facility_name" style="strokeColor=none;part=1;resizeHeight=0;align=left;verticalAlign=top;spacingLeft=4;spacingRight=4;overflow=hidden;rotatable=0;points=[[0,0.5],[1,0.5]];portConstraint=eastwest;whiteSpace=wrap;swimlaneFillColor=#ffffff;whiteSpace=wrap;fontSize=13;fillColor=none;strokeOpacity=100;fillOpacity=100;whiteSpace=wrap;spacing=0;rounded=1;absoluteArcSize=1;arcSize=7.5;strokeWidth=0.8;fontColor=#000000;" parent="EWHabAM2vr0j7ePy4UxX-12" vertex="1">
          <mxGeometry y="72" width="130" height="24" as="geometry" />
        </mxCell>
        <mxCell id="EWHabAM2vr0j7ePy4UxX-17" value="payment_method" style="strokeColor=none;part=1;resizeHeight=0;align=left;verticalAlign=top;spacingLeft=4;spacingRight=4;overflow=hidden;rotatable=0;points=[[0,0.5],[1,0.5]];portConstraint=eastwest;whiteSpace=wrap;swimlaneFillColor=#ffffff;whiteSpace=wrap;fontSize=13;fillColor=none;strokeOpacity=100;fillOpacity=100;whiteSpace=wrap;spacing=0;rounded=1;absoluteArcSize=1;arcSize=7.5;strokeWidth=0.8;fontColor=#000000;" parent="EWHabAM2vr0j7ePy4UxX-12" vertex="1">
          <mxGeometry y="96" width="130" height="24" as="geometry" />
        </mxCell>
        <mxCell id="EWHabAM2vr0j7ePy4UxX-18" value="reserve_start" style="strokeColor=none;part=1;resizeHeight=0;align=left;verticalAlign=top;spacingLeft=4;spacingRight=4;overflow=hidden;rotatable=0;points=[[0,0.5],[1,0.5]];portConstraint=eastwest;whiteSpace=wrap;swimlaneFillColor=#ffffff;whiteSpace=wrap;fontSize=13;fillColor=none;strokeOpacity=100;fillOpacity=100;whiteSpace=wrap;spacing=0;rounded=1;absoluteArcSize=1;arcSize=7.5;strokeWidth=0.8;fontColor=#000000;" parent="EWHabAM2vr0j7ePy4UxX-12" vertex="1">
          <mxGeometry y="120" width="130" height="24" as="geometry" />
        </mxCell>
        <mxCell id="EWHabAM2vr0j7ePy4UxX-19" value="reserve_end" style="strokeColor=none;part=1;resizeHeight=0;align=left;verticalAlign=top;spacingLeft=4;spacingRight=4;overflow=hidden;rotatable=0;points=[[0,0.5],[1,0.5]];portConstraint=eastwest;whiteSpace=wrap;swimlaneFillColor=#ffffff;whiteSpace=wrap;fontSize=13;fillColor=none;strokeOpacity=100;fillOpacity=100;whiteSpace=wrap;spacing=0;rounded=1;absoluteArcSize=1;arcSize=7.5;strokeWidth=0.8;fontColor=#000000;" parent="EWHabAM2vr0j7ePy4UxX-12" vertex="1">
          <mxGeometry y="144" width="130" height="24" as="geometry" />
        </mxCell>
        <mxCell id="EWHabAM2vr0j7ePy4UxX-20" value="number_of_stay" style="strokeColor=none;part=1;resizeHeight=0;align=left;verticalAlign=top;spacingLeft=4;spacingRight=4;overflow=hidden;rotatable=0;points=[[0,0.5],[1,0.5]];portConstraint=eastwest;whiteSpace=wrap;swimlaneFillColor=#ffffff;whiteSpace=wrap;fontSize=13;fillColor=none;strokeOpacity=100;fillOpacity=100;whiteSpace=wrap;spacing=0;rounded=1;absoluteArcSize=1;arcSize=7.5;strokeWidth=0.8;fontColor=#000000;" parent="EWHabAM2vr0j7ePy4UxX-12" vertex="1">
          <mxGeometry y="168" width="130" height="24" as="geometry" />
        </mxCell>
        <mxCell id="EWHabAM2vr0j7ePy4UxX-21" value="tag" style="strokeColor=none;part=1;resizeHeight=0;align=left;verticalAlign=top;spacingLeft=4;spacingRight=4;overflow=hidden;rotatable=0;points=[[0,0.5],[1,0.5]];portConstraint=eastwest;whiteSpace=wrap;swimlaneFillColor=#ffffff;whiteSpace=wrap;fontSize=13;fillColor=none;strokeOpacity=100;fillOpacity=100;whiteSpace=wrap;spacing=0;rounded=1;absoluteArcSize=1;arcSize=7.5;strokeWidth=0.8;fontColor=#000000;" parent="EWHabAM2vr0j7ePy4UxX-12" vertex="1">
          <mxGeometry y="192" width="130" height="24" as="geometry" />
        </mxCell>
        <mxCell id="EWHabAM2vr0j7ePy4UxX-90" value="varchar" style="shape=partialRectangle;top=0;right=0;bottom=0;part=1;resizeHeight=0;align=left;verticalAlign=top;spacingLeft=4;spacingRight=4;overflow=hidden;rotatable=0;points=[[0,0.5],[1,0.5]];portConstraint=eastwest;whiteSpace=wrap;swimlaneFillColor=#ffffff;whiteSpace=wrap;fontSize=13;fillColor=none;strokeOpacity=100;fillOpacity=100;whiteSpace=wrap;spacing=0;strokeColor=#333333;rounded=1;absoluteArcSize=1;arcSize=7.5;strokeWidth=0.8;fontColor=#000000;" parent="EWHabAM2vr0j7ePy4UxX-1" vertex="1">
          <mxGeometry x="130" y="78" width="70" height="24" as="geometry" />
        </mxCell>
        <mxCell id="EWHabAM2vr0j7ePy4UxX-91" value="shop_no_as" style="strokeColor=none;part=1;resizeHeight=0;align=left;verticalAlign=top;spacingLeft=4;spacingRight=4;overflow=hidden;rotatable=0;points=[[0,0.5],[1,0.5]];portConstraint=eastwest;whiteSpace=wrap;swimlaneFillColor=#ffffff;whiteSpace=wrap;fontSize=13;fillColor=none;strokeOpacity=100;fillOpacity=100;whiteSpace=wrap;spacing=0;rounded=1;absoluteArcSize=1;arcSize=7.5;strokeWidth=0.8;fontColor=#000000;" parent="EWHabAM2vr0j7ePy4UxX-1" vertex="1">
          <mxGeometry y="78" width="130" height="24" as="geometry" />
        </mxCell>
        <mxCell id="EWHabAM2vr0j7ePy4UxX-22" value="m_lodging_image" style="html=1;overflow=block;blockSpacing=1;whiteSpace=wrap;swimlane;resizeParent=1;resizeParentMax=0;resizeLast=0;collapsible=0;marginBottom=0;fontStyle=0;swimlaneFillColor=#ffffff;startSize=30;whiteSpace=wrap;fontSize=13;fontColor=#333333;fontStyle=3;align=center;fillColor=#e0e0e0;whiteSpace=wrap;spacing=0;strokeColor=#333333;strokeOpacity=100;fillOpacity=100;rounded=1;absoluteArcSize=1;arcSize=7.5;strokeWidth=0.8;" parent="1" vertex="1">
          <mxGeometry x="-280" y="80" width="280" height="145" as="geometry" />
        </mxCell>
        <mxCell id="EWHabAM2vr0j7ePy4UxX-23" value="image_id" style="strokeColor=none;part=1;resizeHeight=0;align=left;verticalAlign=top;spacingLeft=4;spacingRight=4;overflow=hidden;rotatable=0;points=[[0,0.5],[1,0.5]];portConstraint=eastwest;whiteSpace=wrap;swimlaneFillColor=#ffffff;whiteSpace=wrap;fontSize=13;fontColor=#333333;fontStyle=7;fillColor=none;strokeOpacity=100;fillOpacity=100;whiteSpace=wrap;spacing=0;rounded=1;absoluteArcSize=1;arcSize=7.5;strokeWidth=0.8;" parent="EWHabAM2vr0j7ePy4UxX-22" vertex="1">
          <mxGeometry y="30" width="110" height="24" as="geometry" />
        </mxCell>
        <mxCell id="EWHabAM2vr0j7ePy4UxX-24" value="facility_id" style="strokeColor=none;part=1;resizeHeight=0;align=left;verticalAlign=top;spacingLeft=4;spacingRight=4;overflow=hidden;rotatable=0;points=[[0,0.5],[1,0.5]];portConstraint=eastwest;whiteSpace=wrap;swimlaneFillColor=#ffffff;whiteSpace=wrap;fontSize=13;fillColor=none;strokeOpacity=100;fillOpacity=100;whiteSpace=wrap;spacing=0;rounded=1;absoluteArcSize=1;arcSize=7.5;strokeWidth=0.8;fontStyle=3" parent="EWHabAM2vr0j7ePy4UxX-22" vertex="1">
          <mxGeometry y="54" width="110" height="24" as="geometry" />
        </mxCell>
        <mxCell id="EWHabAM2vr0j7ePy4UxX-26" value="MEDIUMINTÂ (PK)" style="shape=partialRectangle;top=0;right=0;bottom=0;part=1;resizeHeight=0;align=left;verticalAlign=top;spacingLeft=4;spacingRight=4;overflow=hidden;rotatable=0;points=[[0,0.5],[1,0.5]];portConstraint=eastwest;whiteSpace=wrap;swimlaneFillColor=#ffffff;whiteSpace=wrap;fontSize=13;fontColor=#333333;fontStyle=7;fillColor=none;strokeOpacity=100;fillOpacity=100;whiteSpace=wrap;spacing=0;strokeColor=#333333;rounded=1;absoluteArcSize=1;arcSize=7.5;strokeWidth=0.8;" parent="EWHabAM2vr0j7ePy4UxX-22" vertex="1">
          <mxGeometry x="110" y="30" width="120" height="24" as="geometry" />
        </mxCell>
        <mxCell id="EWHabAM2vr0j7ePy4UxX-27" value="MEDIUMINTÂ (FK )" style="shape=partialRectangle;top=0;right=0;bottom=0;part=1;resizeHeight=0;align=left;verticalAlign=top;spacingLeft=4;spacingRight=4;overflow=hidden;rotatable=0;points=[[0,0.5],[1,0.5]];portConstraint=eastwest;whiteSpace=wrap;swimlaneFillColor=#ffffff;whiteSpace=wrap;fontSize=13;fillColor=none;strokeOpacity=100;fillOpacity=100;whiteSpace=wrap;spacing=0;strokeColor=#333333;rounded=1;absoluteArcSize=1;arcSize=7.5;strokeWidth=0.8;fontStyle=3" parent="EWHabAM2vr0j7ePy4UxX-22" vertex="1">
          <mxGeometry x="110" y="54" width="150" height="24" as="geometry" />
        </mxCell>
        <mxCell id="jNWc2fwv66Wsc-9iDNfM-6" value="MEDIUMINTÂ " style="shape=partialRectangle;top=0;right=0;bottom=0;part=1;resizeHeight=0;align=left;verticalAlign=top;spacingLeft=4;spacingRight=4;overflow=hidden;rotatable=0;points=[[0,0.5],[1,0.5]];portConstraint=eastwest;whiteSpace=wrap;swimlaneFillColor=#ffffff;whiteSpace=wrap;fontSize=13;fillColor=none;strokeOpacity=100;fillOpacity=100;whiteSpace=wrap;spacing=0;strokeColor=#333333;rounded=1;absoluteArcSize=1;arcSize=7.5;strokeWidth=0.8;" vertex="1" parent="EWHabAM2vr0j7ePy4UxX-22">
          <mxGeometry x="110" y="78" width="110.00000000000001" height="24" as="geometry" />
        </mxCell>
        <mxCell id="jNWc2fwv66Wsc-9iDNfM-7" value="site_id" style="strokeColor=none;part=1;resizeHeight=0;align=left;verticalAlign=top;spacingLeft=4;spacingRight=4;overflow=hidden;rotatable=0;points=[[0,0.5],[1,0.5]];portConstraint=eastwest;whiteSpace=wrap;swimlaneFillColor=#ffffff;whiteSpace=wrap;fontSize=13;fillColor=none;strokeOpacity=100;fillOpacity=100;whiteSpace=wrap;spacing=0;rounded=1;absoluteArcSize=1;arcSize=7.5;strokeWidth=0.8;" vertex="1" parent="EWHabAM2vr0j7ePy4UxX-22">
          <mxGeometry y="78" width="110" height="24" as="geometry" />
        </mxCell>
        <mxCell id="jNWc2fwv66Wsc-9iDNfM-8" value="TEXT" style="shape=partialRectangle;top=0;right=0;bottom=0;part=1;resizeHeight=0;align=left;verticalAlign=top;spacingLeft=4;spacingRight=4;overflow=hidden;rotatable=0;points=[[0,0.5],[1,0.5]];portConstraint=eastwest;whiteSpace=wrap;swimlaneFillColor=#ffffff;whiteSpace=wrap;fontSize=13;fillColor=none;strokeOpacity=100;fillOpacity=100;whiteSpace=wrap;spacing=0;strokeColor=#333333;rounded=1;absoluteArcSize=1;arcSize=7.5;strokeWidth=0.8;fontColor=#000000;" vertex="1" parent="EWHabAM2vr0j7ePy4UxX-22">
          <mxGeometry x="110" y="100" width="110.00000000000001" height="24" as="geometry" />
        </mxCell>
        <mxCell id="jNWc2fwv66Wsc-9iDNfM-9" value="image_path" style="strokeColor=none;part=1;resizeHeight=0;align=left;verticalAlign=top;spacingLeft=4;spacingRight=4;overflow=hidden;rotatable=0;points=[[0,0.5],[1,0.5]];portConstraint=eastwest;whiteSpace=wrap;swimlaneFillColor=#ffffff;whiteSpace=wrap;fontSize=13;fillColor=none;strokeOpacity=100;fillOpacity=100;whiteSpace=wrap;spacing=0;rounded=1;absoluteArcSize=1;arcSize=7.5;strokeWidth=0.8;fontColor=#000000;" vertex="1" parent="EWHabAM2vr0j7ePy4UxX-22">
          <mxGeometry y="100" width="110" height="24" as="geometry" />
        </mxCell>
        <mxCell id="jNWc2fwv66Wsc-9iDNfM-10" value="TINYINT" style="shape=partialRectangle;top=0;right=0;bottom=0;part=1;resizeHeight=0;align=left;verticalAlign=top;spacingLeft=4;spacingRight=4;overflow=hidden;rotatable=0;points=[[0,0.5],[1,0.5]];portConstraint=eastwest;whiteSpace=wrap;swimlaneFillColor=#ffffff;whiteSpace=wrap;fontSize=13;fillColor=none;strokeOpacity=100;fillOpacity=100;whiteSpace=wrap;spacing=0;strokeColor=#333333;rounded=1;absoluteArcSize=1;arcSize=7.5;strokeWidth=0.8;fontColor=#000000;" vertex="1" parent="EWHabAM2vr0j7ePy4UxX-22">
          <mxGeometry x="110" y="120" width="110.00000000000001" height="24" as="geometry" />
        </mxCell>
        <mxCell id="jNWc2fwv66Wsc-9iDNfM-11" value="sort_num" style="strokeColor=none;part=1;resizeHeight=0;align=left;verticalAlign=top;spacingLeft=4;spacingRight=4;overflow=hidden;rotatable=0;points=[[0,0.5],[1,0.5]];portConstraint=eastwest;whiteSpace=wrap;swimlaneFillColor=#ffffff;whiteSpace=wrap;fontSize=13;fillColor=none;strokeOpacity=100;fillOpacity=100;whiteSpace=wrap;spacing=0;rounded=1;absoluteArcSize=1;arcSize=7.5;strokeWidth=0.8;fontColor=#000000;" vertex="1" parent="EWHabAM2vr0j7ePy4UxX-22">
          <mxGeometry y="120" width="110" height="24" as="geometry" />
        </mxCell>
        <mxCell id="EWHabAM2vr0j7ePy4UxX-29" value="&lt;span&gt;m_lodging_site&lt;/span&gt;" style="html=1;overflow=block;blockSpacing=1;whiteSpace=wrap;swimlane;resizeParent=1;resizeParentMax=0;resizeLast=0;collapsible=0;marginBottom=0;fontStyle=0;swimlaneFillColor=#ffffff;startSize=30;whiteSpace=wrap;fontSize=13;fontColor=#000000;fontStyle=3;align=center;fillColor=#e0e0e0;whiteSpace=wrap;spacing=0;strokeColor=#333333;strokeOpacity=100;fillOpacity=100;rounded=1;absoluteArcSize=1;arcSize=7.5;strokeWidth=0.8;" parent="1" vertex="1">
          <mxGeometry x="243.11" y="80" width="286.87" height="160" as="geometry" />
        </mxCell>
        <mxCell id="EWHabAM2vr0j7ePy4UxX-30" value="site_id" style="strokeColor=none;part=1;resizeHeight=0;align=left;verticalAlign=top;spacingLeft=4;spacingRight=4;overflow=hidden;rotatable=0;points=[[0,0.5],[1,0.5]];portConstraint=eastwest;whiteSpace=wrap;swimlaneFillColor=#ffffff;whiteSpace=wrap;fontSize=13;fontColor=#000000;fontStyle=7;fillColor=none;strokeOpacity=100;fillOpacity=100;whiteSpace=wrap;spacing=0;rounded=1;absoluteArcSize=1;arcSize=7.5;strokeWidth=0.8;" parent="EWHabAM2vr0j7ePy4UxX-29" vertex="1">
          <mxGeometry y="30" width="110" height="24" as="geometry" />
        </mxCell>
        <mxCell id="EWHabAM2vr0j7ePy4UxX-34" value="site_name" style="strokeColor=none;part=1;resizeHeight=0;align=left;verticalAlign=top;spacingLeft=4;spacingRight=4;overflow=hidden;rotatable=0;points=[[0,0.5],[1,0.5]];portConstraint=eastwest;whiteSpace=wrap;swimlaneFillColor=#ffffff;whiteSpace=wrap;fontSize=13;fillColor=none;strokeOpacity=100;fillOpacity=100;whiteSpace=wrap;spacing=0;rounded=1;absoluteArcSize=1;arcSize=7.5;strokeWidth=0.8;fontColor=#000000;" parent="EWHabAM2vr0j7ePy4UxX-29" vertex="1">
          <mxGeometry y="81" width="133.125" height="24" as="geometry" />
        </mxCell>
        <mxCell id="EWHabAM2vr0j7ePy4UxX-36" value="room_type" style="strokeColor=none;part=1;resizeHeight=0;align=left;verticalAlign=top;spacingLeft=4;spacingRight=4;overflow=hidden;rotatable=0;points=[[0,0.5],[1,0.5]];portConstraint=eastwest;whiteSpace=wrap;swimlaneFillColor=#ffffff;whiteSpace=wrap;fontSize=13;fillColor=none;strokeOpacity=100;fillOpacity=100;whiteSpace=wrap;spacing=0;rounded=1;absoluteArcSize=1;arcSize=7.5;strokeWidth=0.8;fontColor=#000000;" parent="EWHabAM2vr0j7ePy4UxX-29" vertex="1">
          <mxGeometry y="105" width="133.125" height="24" as="geometry" />
        </mxCell>
        <mxCell id="EWHabAM2vr0j7ePy4UxX-38" value="site_notice" style="strokeColor=none;part=1;resizeHeight=0;align=left;verticalAlign=top;spacingLeft=4;spacingRight=4;overflow=hidden;rotatable=0;points=[[0,0.5],[1,0.5]];portConstraint=eastwest;whiteSpace=wrap;swimlaneFillColor=#ffffff;whiteSpace=wrap;fontSize=13;fillColor=none;strokeOpacity=100;fillOpacity=100;whiteSpace=wrap;spacing=0;rounded=1;absoluteArcSize=1;arcSize=7.5;strokeWidth=0.8;fontColor=#000000;" parent="EWHabAM2vr0j7ePy4UxX-29" vertex="1">
          <mxGeometry y="130" width="133.125" height="24" as="geometry" />
        </mxCell>
        <mxCell id="jNWc2fwv66Wsc-9iDNfM-27" value="facility_id" style="strokeColor=none;part=1;resizeHeight=0;align=left;verticalAlign=top;spacingLeft=4;spacingRight=4;overflow=hidden;rotatable=0;points=[[0,0.5],[1,0.5]];portConstraint=eastwest;whiteSpace=wrap;swimlaneFillColor=#ffffff;whiteSpace=wrap;fontSize=13;fontColor=#000000;fontStyle=3;fillColor=none;strokeOpacity=100;fillOpacity=100;whiteSpace=wrap;spacing=0;rounded=1;absoluteArcSize=1;arcSize=7.5;strokeWidth=0.8;" vertex="1" parent="EWHabAM2vr0j7ePy4UxX-29">
          <mxGeometry y="58" width="110" height="24" as="geometry" />
        </mxCell>
        <mxCell id="jNWc2fwv66Wsc-9iDNfM-613" value="MEDIUMINT (PK)" style="shape=partialRectangle;top=0;right=0;bottom=0;part=1;resizeHeight=0;align=left;verticalAlign=top;spacingLeft=4;spacingRight=4;overflow=hidden;rotatable=0;points=[[0,0.5],[1,0.5]];portConstraint=eastwest;whiteSpace=wrap;swimlaneFillColor=#ffffff;whiteSpace=wrap;fontSize=13;fontColor=#000000;fontStyle=7;fillColor=none;strokeOpacity=100;fillOpacity=100;whiteSpace=wrap;spacing=0;strokeColor=#333333;rounded=1;absoluteArcSize=1;arcSize=7.5;strokeWidth=0.8;" vertex="1" parent="EWHabAM2vr0j7ePy4UxX-29">
          <mxGeometry x="160" y="32" width="126.87" height="24" as="geometry" />
        </mxCell>
        <mxCell id="EWHabAM2vr0j7ePy4UxX-35" value="TEXT" style="shape=partialRectangle;top=0;right=0;bottom=0;part=1;resizeHeight=0;align=left;verticalAlign=top;spacingLeft=4;spacingRight=4;overflow=hidden;rotatable=0;points=[[0,0.5],[1,0.5]];portConstraint=eastwest;whiteSpace=wrap;swimlaneFillColor=#ffffff;whiteSpace=wrap;fontSize=13;fillColor=none;strokeOpacity=100;fillOpacity=100;whiteSpace=wrap;spacing=0;strokeColor=#333333;rounded=1;absoluteArcSize=1;arcSize=7.5;strokeWidth=0.8;fontColor=#000000;container=0;" parent="EWHabAM2vr0j7ePy4UxX-29" vertex="1">
          <mxGeometry x="160.005" y="83" width="68.875" height="24" as="geometry" />
        </mxCell>
        <mxCell id="EWHabAM2vr0j7ePy4UxX-37" value="TINYINT" style="shape=partialRectangle;top=0;right=0;bottom=0;part=1;resizeHeight=0;align=left;verticalAlign=top;spacingLeft=4;spacingRight=4;overflow=hidden;rotatable=0;points=[[0,0.5],[1,0.5]];portConstraint=eastwest;whiteSpace=wrap;swimlaneFillColor=#ffffff;whiteSpace=wrap;fontSize=13;fillColor=none;strokeOpacity=100;fillOpacity=100;whiteSpace=wrap;spacing=0;strokeColor=#333333;rounded=1;absoluteArcSize=1;arcSize=7.5;strokeWidth=0.8;fontColor=#000000;container=0;" parent="EWHabAM2vr0j7ePy4UxX-29" vertex="1">
          <mxGeometry x="160.005" y="107" width="68.875" height="24" as="geometry" />
        </mxCell>
        <mxCell id="EWHabAM2vr0j7ePy4UxX-39" value="TEXT" style="shape=partialRectangle;top=0;right=0;bottom=0;part=1;resizeHeight=0;align=left;verticalAlign=top;spacingLeft=4;spacingRight=4;overflow=hidden;rotatable=0;points=[[0,0.5],[1,0.5]];portConstraint=eastwest;whiteSpace=wrap;swimlaneFillColor=#ffffff;whiteSpace=wrap;fontSize=13;fillColor=none;strokeOpacity=100;fillOpacity=100;whiteSpace=wrap;spacing=0;strokeColor=#333333;rounded=1;absoluteArcSize=1;arcSize=7.5;strokeWidth=0.8;fontColor=#000000;container=0;" parent="EWHabAM2vr0j7ePy4UxX-29" vertex="1">
          <mxGeometry x="160.005" y="131" width="68.875" height="24" as="geometry" />
        </mxCell>
        <mxCell id="jNWc2fwv66Wsc-9iDNfM-28" value="MEDIUMINT (FK)" style="shape=partialRectangle;top=0;right=0;bottom=0;part=1;resizeHeight=0;align=left;verticalAlign=top;spacingLeft=4;spacingRight=4;overflow=hidden;rotatable=0;points=[[0,0.5],[1,0.5]];portConstraint=eastwest;whiteSpace=wrap;swimlaneFillColor=#ffffff;whiteSpace=wrap;fontSize=13;fontColor=#000000;fontStyle=3;fillColor=none;strokeOpacity=100;fillOpacity=100;whiteSpace=wrap;spacing=0;strokeColor=#333333;rounded=1;absoluteArcSize=1;arcSize=7.5;strokeWidth=0.8;container=0;" vertex="1" parent="EWHabAM2vr0j7ePy4UxX-29">
          <mxGeometry x="160.01" y="60" width="116.88" height="24" as="geometry" />
        </mxCell>
        <UserObject label="" lucidchartObjectId="dM.T.fur29C5" id="EWHabAM2vr0j7ePy4UxX-64">
          <mxCell style="html=1;jettySize=18;whiteSpace=wrap;fontSize=13;strokeColor=#333333;strokeOpacity=100;strokeWidth=0.8;rounded=1;arcSize=24;edgeStyle=orthogonalEdgeStyle;startArrow=ERone;startSize=16;;endArrow=ERmany;endSize=10;;entryX=0;entryY=0.5;entryDx=0;entryDy=0;exitX=1;exitY=0.5;exitDx=0;exitDy=0;" parent="1" target="EWHabAM2vr0j7ePy4UxX-24" edge="1" source="EWHabAM2vr0j7ePy4UxX-1">
            <mxGeometry width="100" height="100" relative="1" as="geometry">
              <Array as="points">
                <mxPoint x="-480" y="220" />
                <mxPoint x="-480" y="150" />
                <mxPoint x="-410" y="150" />
                <mxPoint x="-410" y="146" />
              </Array>
              <mxPoint x="-480" y="220" as="sourcePoint" />
              <mxPoint x="331.78" y="156" as="targetPoint" />
            </mxGeometry>
          </mxCell>
        </UserObject>
        <UserObject label="" lucidchartObjectId="aZ.SwLaBgXGg" id="EWHabAM2vr0j7ePy4UxX-66">
          <mxCell style="html=1;jettySize=18;whiteSpace=wrap;fontSize=13;strokeColor=#333333;strokeOpacity=100;strokeWidth=0.8;rounded=1;arcSize=24;edgeStyle=orthogonalEdgeStyle;startArrow=ERmany;startSize=10;;endArrow=ERone;endSize=16;;exitX=0;exitY=0.5;entryX=1;entryY=0.5;entryDx=0;entryDy=0;exitDx=0;exitDy=0;" parent="1" source="EWHabAM2vr0j7ePy4UxX-34" target="EWHabAM2vr0j7ePy4UxX-22" edge="1">
            <mxGeometry width="100" height="100" relative="1" as="geometry">
              <Array as="points" />
              <mxPoint x="616.876" y="131.548" as="sourcePoint" />
              <mxPoint x="525.0015189873418" y="131.5" as="targetPoint" />
            </mxGeometry>
          </mxCell>
        </UserObject>
        <mxCell id="EWHabAM2vr0j7ePy4UxX-89" value="æ½è¨­ãã¹ã¿" style="rounded=0;whiteSpace=wrap;html=1;fillColor=#dae8fc;strokeColor=#6c8ebf;" parent="1" vertex="1">
          <mxGeometry x="-780" y="50" width="250" height="30" as="geometry" />
        </mxCell>
        <mxCell id="jNWc2fwv66Wsc-9iDNfM-1" value="æ½è¨­ã»ãµã¤ãç»åãã¹ã¿" style="rounded=0;whiteSpace=wrap;html=1;fillColor=#dae8fc;strokeColor=#6c8ebf;" vertex="1" parent="1">
          <mxGeometry x="-280" y="50" width="280" height="30" as="geometry" />
        </mxCell>
        <mxCell id="jNWc2fwv66Wsc-9iDNfM-26" value="&lt;span&gt;ãµã¤ããã¹ã¿&lt;/span&gt;" style="rounded=0;whiteSpace=wrap;html=1;fillColor=#dae8fc;strokeColor=#6c8ebf;fontColor=#000000;" vertex="1" parent="1">
          <mxGeometry x="240" y="50" width="290" height="30" as="geometry" />
        </mxCell>
        <mxCell id="jNWc2fwv66Wsc-9iDNfM-45" value="&lt;span&gt;m_lodging_parcel&lt;/span&gt;" style="html=1;overflow=block;blockSpacing=1;whiteSpace=wrap;swimlane;resizeParent=1;resizeParentMax=0;resizeLast=0;collapsible=0;marginBottom=0;fontStyle=0;swimlaneFillColor=#ffffff;startSize=30;whiteSpace=wrap;fontSize=13;fontColor=#333333;fontStyle=3;align=center;fillColor=#e0e0e0;whiteSpace=wrap;spacing=0;strokeColor=#333333;strokeOpacity=100;fillOpacity=100;rounded=1;absoluteArcSize=1;arcSize=7.5;strokeWidth=0.8;" vertex="1" parent="1">
          <mxGeometry x="800" y="80" width="260" height="150" as="geometry" />
        </mxCell>
        <mxCell id="jNWc2fwv66Wsc-9iDNfM-46" value="parcel_id" style="strokeColor=none;part=1;resizeHeight=0;align=left;verticalAlign=top;spacingLeft=4;spacingRight=4;overflow=hidden;rotatable=0;points=[[0,0.5],[1,0.5]];portConstraint=eastwest;whiteSpace=wrap;swimlaneFillColor=#ffffff;whiteSpace=wrap;fontSize=13;fontColor=#333333;fontStyle=7;fillColor=none;strokeOpacity=100;fillOpacity=100;whiteSpace=wrap;spacing=0;rounded=1;absoluteArcSize=1;arcSize=7.5;strokeWidth=0.8;" vertex="1" parent="jNWc2fwv66Wsc-9iDNfM-45">
          <mxGeometry y="30" width="110" height="24" as="geometry" />
        </mxCell>
        <mxCell id="jNWc2fwv66Wsc-9iDNfM-47" value="MEDIUMINTÂ (PK)" style="shape=partialRectangle;top=0;right=0;bottom=0;part=1;resizeHeight=0;align=left;verticalAlign=top;spacingLeft=4;spacingRight=4;overflow=hidden;rotatable=0;points=[[0,0.5],[1,0.5]];portConstraint=eastwest;whiteSpace=wrap;swimlaneFillColor=#ffffff;whiteSpace=wrap;fontSize=13;fontColor=#333333;fontStyle=7;fillColor=none;strokeOpacity=100;fillOpacity=100;whiteSpace=wrap;spacing=0;strokeColor=#333333;rounded=1;absoluteArcSize=1;arcSize=7.5;strokeWidth=0.8;" vertex="1" parent="jNWc2fwv66Wsc-9iDNfM-45">
          <mxGeometry x="133.13" y="30" width="126.87" height="24" as="geometry" />
        </mxCell>
        <mxCell id="jNWc2fwv66Wsc-9iDNfM-48" value="site_id" style="strokeColor=none;part=1;resizeHeight=0;align=left;verticalAlign=top;spacingLeft=4;spacingRight=4;overflow=hidden;rotatable=0;points=[[0,0.5],[1,0.5]];portConstraint=eastwest;whiteSpace=wrap;swimlaneFillColor=#ffffff;whiteSpace=wrap;fontSize=13;fillColor=none;strokeOpacity=100;fillOpacity=100;whiteSpace=wrap;spacing=0;rounded=1;absoluteArcSize=1;arcSize=7.5;strokeWidth=0.8;fontStyle=3" vertex="1" parent="jNWc2fwv66Wsc-9iDNfM-45">
          <mxGeometry y="78" width="133.125" height="24" as="geometry" />
        </mxCell>
        <mxCell id="jNWc2fwv66Wsc-9iDNfM-49" value="MEDIUMINT (FK)" style="shape=partialRectangle;top=0;right=0;bottom=0;part=1;resizeHeight=0;align=left;verticalAlign=top;spacingLeft=4;spacingRight=4;overflow=hidden;rotatable=0;points=[[0,0.5],[1,0.5]];portConstraint=eastwest;whiteSpace=wrap;swimlaneFillColor=#ffffff;whiteSpace=wrap;fontSize=13;fillColor=none;strokeOpacity=100;fillOpacity=100;whiteSpace=wrap;spacing=0;strokeColor=#333333;rounded=1;absoluteArcSize=1;arcSize=7.5;strokeWidth=0.8;fontStyle=3" vertex="1" parent="jNWc2fwv66Wsc-9iDNfM-45">
          <mxGeometry x="133.13" y="78" width="116.87" height="24" as="geometry" />
        </mxCell>
        <mxCell id="jNWc2fwv66Wsc-9iDNfM-50" value="parcel_name" style="strokeColor=none;part=1;resizeHeight=0;align=left;verticalAlign=top;spacingLeft=4;spacingRight=4;overflow=hidden;rotatable=0;points=[[0,0.5],[1,0.5]];portConstraint=eastwest;whiteSpace=wrap;swimlaneFillColor=#ffffff;whiteSpace=wrap;fontSize=13;fillColor=none;strokeOpacity=100;fillOpacity=100;whiteSpace=wrap;spacing=0;rounded=1;absoluteArcSize=1;arcSize=7.5;strokeWidth=0.8;" vertex="1" parent="jNWc2fwv66Wsc-9iDNfM-45">
          <mxGeometry y="102" width="133.125" height="24" as="geometry" />
        </mxCell>
        <mxCell id="jNWc2fwv66Wsc-9iDNfM-51" value="TEXT" style="shape=partialRectangle;top=0;right=0;bottom=0;part=1;resizeHeight=0;align=left;verticalAlign=top;spacingLeft=4;spacingRight=4;overflow=hidden;rotatable=0;points=[[0,0.5],[1,0.5]];portConstraint=eastwest;whiteSpace=wrap;swimlaneFillColor=#ffffff;whiteSpace=wrap;fontSize=13;fillColor=none;strokeOpacity=100;fillOpacity=100;whiteSpace=wrap;spacing=0;strokeColor=#333333;rounded=1;absoluteArcSize=1;arcSize=7.5;strokeWidth=0.8;" vertex="1" parent="jNWc2fwv66Wsc-9iDNfM-45">
          <mxGeometry x="133.125" y="102" width="68.875" height="24" as="geometry" />
        </mxCell>
        <mxCell id="jNWc2fwv66Wsc-9iDNfM-52" value="parcel_sort_no" style="strokeColor=none;part=1;resizeHeight=0;align=left;verticalAlign=top;spacingLeft=4;spacingRight=4;overflow=hidden;rotatable=0;points=[[0,0.5],[1,0.5]];portConstraint=eastwest;whiteSpace=wrap;swimlaneFillColor=#ffffff;whiteSpace=wrap;fontSize=13;fillColor=none;strokeOpacity=100;fillOpacity=100;whiteSpace=wrap;spacing=0;rounded=1;absoluteArcSize=1;arcSize=7.5;strokeWidth=0.8;" vertex="1" parent="jNWc2fwv66Wsc-9iDNfM-45">
          <mxGeometry y="126" width="133.125" height="24" as="geometry" />
        </mxCell>
        <mxCell id="jNWc2fwv66Wsc-9iDNfM-53" value="TINYINT" style="shape=partialRectangle;top=0;right=0;bottom=0;part=1;resizeHeight=0;align=left;verticalAlign=top;spacingLeft=4;spacingRight=4;overflow=hidden;rotatable=0;points=[[0,0.5],[1,0.5]];portConstraint=eastwest;whiteSpace=wrap;swimlaneFillColor=#ffffff;whiteSpace=wrap;fontSize=13;fillColor=none;strokeOpacity=100;fillOpacity=100;whiteSpace=wrap;spacing=0;strokeColor=#333333;rounded=1;absoluteArcSize=1;arcSize=7.5;strokeWidth=0.8;" vertex="1" parent="jNWc2fwv66Wsc-9iDNfM-45">
          <mxGeometry x="133.125" y="126" width="68.875" height="24" as="geometry" />
        </mxCell>
        <mxCell id="jNWc2fwv66Wsc-9iDNfM-78" value="facility_id" style="strokeColor=none;part=1;resizeHeight=0;align=left;verticalAlign=top;spacingLeft=4;spacingRight=4;overflow=hidden;rotatable=0;points=[[0,0.5],[1,0.5]];portConstraint=eastwest;whiteSpace=wrap;swimlaneFillColor=#ffffff;whiteSpace=wrap;fontSize=13;fontColor=#333333;fontStyle=3;fillColor=none;strokeOpacity=100;fillOpacity=100;whiteSpace=wrap;spacing=0;rounded=1;absoluteArcSize=1;arcSize=7.5;strokeWidth=0.8;" vertex="1" parent="jNWc2fwv66Wsc-9iDNfM-45">
          <mxGeometry y="55" width="110" height="24" as="geometry" />
        </mxCell>
        <mxCell id="jNWc2fwv66Wsc-9iDNfM-79" value="MEDIUMINT (FK)" style="shape=partialRectangle;top=0;right=0;bottom=0;part=1;resizeHeight=0;align=left;verticalAlign=top;spacingLeft=4;spacingRight=4;overflow=hidden;rotatable=0;points=[[0,0.5],[1,0.5]];portConstraint=eastwest;whiteSpace=wrap;swimlaneFillColor=#ffffff;whiteSpace=wrap;fontSize=13;fontColor=#333333;fontStyle=3;fillColor=none;strokeOpacity=100;fillOpacity=100;whiteSpace=wrap;spacing=0;strokeColor=#333333;rounded=1;absoluteArcSize=1;arcSize=7.5;strokeWidth=0.8;" vertex="1" parent="jNWc2fwv66Wsc-9iDNfM-45">
          <mxGeometry x="133.13" y="55" width="116.88" height="24" as="geometry" />
        </mxCell>
        <mxCell id="jNWc2fwv66Wsc-9iDNfM-90" value="&lt;span&gt;åºç»ãã¹ã¿&lt;/span&gt;" style="rounded=0;whiteSpace=wrap;html=1;fillColor=#dae8fc;strokeColor=#6c8ebf;" vertex="1" parent="1">
          <mxGeometry x="800" y="50" width="260" height="30" as="geometry" />
        </mxCell>
        <mxCell id="jNWc2fwv66Wsc-9iDNfM-615" value="&lt;span&gt;m_lodging_parcel_manage&lt;/span&gt;" style="html=1;overflow=block;blockSpacing=1;whiteSpace=wrap;swimlane;resizeParent=1;resizeParentMax=0;resizeLast=0;collapsible=0;marginBottom=0;fontStyle=0;swimlaneFillColor=#ffffff;startSize=30;whiteSpace=wrap;fontSize=13;fontColor=#000000;fontStyle=3;align=center;fillColor=#e0e0e0;whiteSpace=wrap;spacing=0;strokeColor=#333333;strokeOpacity=100;fillOpacity=100;rounded=1;absoluteArcSize=1;arcSize=7.5;strokeWidth=0.8;" vertex="1" parent="1">
          <mxGeometry x="1173.11" y="80" width="316.89" height="130" as="geometry" />
        </mxCell>
        <mxCell id="jNWc2fwv66Wsc-9iDNfM-616" value="parcel_manage_id" style="strokeColor=none;part=1;resizeHeight=0;align=left;verticalAlign=top;spacingLeft=4;spacingRight=4;overflow=hidden;rotatable=0;points=[[0,0.5],[1,0.5]];portConstraint=eastwest;whiteSpace=wrap;swimlaneFillColor=#ffffff;whiteSpace=wrap;fontSize=13;fontColor=#000000;fontStyle=7;fillColor=none;strokeOpacity=100;fillOpacity=100;whiteSpace=wrap;spacing=0;rounded=1;absoluteArcSize=1;arcSize=7.5;strokeWidth=0.8;" vertex="1" parent="jNWc2fwv66Wsc-9iDNfM-615">
          <mxGeometry y="30" width="110" height="24" as="geometry" />
        </mxCell>
        <mxCell id="jNWc2fwv66Wsc-9iDNfM-617" value="site_id" style="strokeColor=none;part=1;resizeHeight=0;align=left;verticalAlign=top;spacingLeft=4;spacingRight=4;overflow=hidden;rotatable=0;points=[[0,0.5],[1,0.5]];portConstraint=eastwest;whiteSpace=wrap;swimlaneFillColor=#ffffff;whiteSpace=wrap;fontSize=13;fillColor=none;strokeOpacity=100;fillOpacity=100;whiteSpace=wrap;spacing=0;rounded=1;absoluteArcSize=1;arcSize=7.5;strokeWidth=0.8;fontColor=#000000;fontStyle=3" vertex="1" parent="jNWc2fwv66Wsc-9iDNfM-615">
          <mxGeometry y="78" width="133.125" height="24" as="geometry" />
        </mxCell>
        <mxCell id="jNWc2fwv66Wsc-9iDNfM-618" value="parcel_id" style="strokeColor=none;part=1;resizeHeight=0;align=left;verticalAlign=top;spacingLeft=4;spacingRight=4;overflow=hidden;rotatable=0;points=[[0,0.5],[1,0.5]];portConstraint=eastwest;whiteSpace=wrap;swimlaneFillColor=#ffffff;whiteSpace=wrap;fontSize=13;fillColor=none;strokeOpacity=100;fillOpacity=100;whiteSpace=wrap;spacing=0;rounded=1;absoluteArcSize=1;arcSize=7.5;strokeWidth=0.8;fontColor=#000000;fontStyle=1" vertex="1" parent="jNWc2fwv66Wsc-9iDNfM-615">
          <mxGeometry y="102" width="133.125" height="24" as="geometry" />
        </mxCell>
        <mxCell id="jNWc2fwv66Wsc-9iDNfM-633" value="facility_id" style="strokeColor=none;part=1;resizeHeight=0;align=left;verticalAlign=top;spacingLeft=4;spacingRight=4;overflow=hidden;rotatable=0;points=[[0,0.5],[1,0.5]];portConstraint=eastwest;whiteSpace=wrap;swimlaneFillColor=#ffffff;whiteSpace=wrap;fontSize=13;fontColor=#000000;fontStyle=3;fillColor=none;strokeOpacity=100;fillOpacity=100;whiteSpace=wrap;spacing=0;rounded=1;absoluteArcSize=1;arcSize=7.5;strokeWidth=0.8;" vertex="1" parent="jNWc2fwv66Wsc-9iDNfM-615">
          <mxGeometry y="55" width="110" height="24" as="geometry" />
        </mxCell>
        <mxCell id="jNWc2fwv66Wsc-9iDNfM-645" value="MEDIUMINT (PK)" style="shape=partialRectangle;top=0;right=0;bottom=0;part=1;resizeHeight=0;align=left;verticalAlign=top;spacingLeft=4;spacingRight=4;overflow=hidden;rotatable=0;points=[[0,0.5],[1,0.5]];portConstraint=eastwest;whiteSpace=wrap;swimlaneFillColor=#ffffff;whiteSpace=wrap;fontSize=13;fontColor=#000000;fontStyle=7;fillColor=none;strokeOpacity=100;fillOpacity=100;whiteSpace=wrap;spacing=0;strokeColor=#333333;rounded=1;absoluteArcSize=1;arcSize=7.5;strokeWidth=0.8;" vertex="1" parent="jNWc2fwv66Wsc-9iDNfM-615">
          <mxGeometry x="160" y="32" width="126.87" height="24" as="geometry" />
        </mxCell>
        <mxCell id="jNWc2fwv66Wsc-9iDNfM-647" value="MEDIUMINT (FK)" style="shape=partialRectangle;top=0;right=0;bottom=0;part=1;resizeHeight=0;align=left;verticalAlign=top;spacingLeft=4;spacingRight=4;overflow=hidden;rotatable=0;points=[[0,0.5],[1,0.5]];portConstraint=eastwest;whiteSpace=wrap;swimlaneFillColor=#ffffff;whiteSpace=wrap;fontSize=13;fillColor=none;strokeOpacity=100;fillOpacity=100;whiteSpace=wrap;spacing=0;strokeColor=#333333;rounded=1;absoluteArcSize=1;arcSize=7.5;strokeWidth=0.8;fontColor=#000000;container=0;fontStyle=3" vertex="1" parent="jNWc2fwv66Wsc-9iDNfM-615">
          <mxGeometry x="160.01" y="83" width="119.99" height="24" as="geometry" />
        </mxCell>
        <mxCell id="jNWc2fwv66Wsc-9iDNfM-648" value="MEDIUMINT (FK)" style="shape=partialRectangle;top=0;right=0;bottom=0;part=1;resizeHeight=0;align=left;verticalAlign=top;spacingLeft=4;spacingRight=4;overflow=hidden;rotatable=0;points=[[0,0.5],[1,0.5]];portConstraint=eastwest;whiteSpace=wrap;swimlaneFillColor=#ffffff;whiteSpace=wrap;fontSize=13;fillColor=none;strokeOpacity=100;fillOpacity=100;whiteSpace=wrap;spacing=0;strokeColor=#333333;rounded=1;absoluteArcSize=1;arcSize=7.5;strokeWidth=0.8;fontColor=#000000;container=0;fontStyle=3" vertex="1" parent="jNWc2fwv66Wsc-9iDNfM-615">
          <mxGeometry x="160.01" y="107" width="110" height="24" as="geometry" />
        </mxCell>
        <mxCell id="jNWc2fwv66Wsc-9iDNfM-656" value="MEDIUMINT (FK)" style="shape=partialRectangle;top=0;right=0;bottom=0;part=1;resizeHeight=0;align=left;verticalAlign=top;spacingLeft=4;spacingRight=4;overflow=hidden;rotatable=0;points=[[0,0.5],[1,0.5]];portConstraint=eastwest;whiteSpace=wrap;swimlaneFillColor=#ffffff;whiteSpace=wrap;fontSize=13;fontColor=#000000;fontStyle=3;fillColor=none;strokeOpacity=100;fillOpacity=100;whiteSpace=wrap;spacing=0;strokeColor=#333333;rounded=1;absoluteArcSize=1;arcSize=7.5;strokeWidth=0.8;container=0;" vertex="1" parent="jNWc2fwv66Wsc-9iDNfM-615">
          <mxGeometry x="160.01" y="60" width="116.88" height="24" as="geometry" />
        </mxCell>
        <mxCell id="jNWc2fwv66Wsc-9iDNfM-672" value="&lt;span&gt;åºç»ç®¡çãã¹ã¿&lt;/span&gt;" style="rounded=0;whiteSpace=wrap;html=1;fillColor=#dae8fc;strokeColor=#6c8ebf;fontColor=#000000;" vertex="1" parent="1">
          <mxGeometry x="1170" y="50" width="320" height="30" as="geometry" />
        </mxCell>
        <mxCell id="jNWc2fwv66Wsc-9iDNfM-673" value="&lt;span&gt;m_lodging_usetime&lt;/span&gt;" style="html=1;overflow=block;blockSpacing=1;whiteSpace=wrap;swimlane;resizeParent=1;resizeParentMax=0;resizeLast=0;collapsible=0;marginBottom=0;fontStyle=0;swimlaneFillColor=#ffffff;startSize=30;whiteSpace=wrap;fontSize=13;fontColor=#000000;fontStyle=3;align=center;fillColor=#e0e0e0;whiteSpace=wrap;spacing=0;strokeColor=#333333;strokeOpacity=100;fillOpacity=100;rounded=1;absoluteArcSize=1;arcSize=7.5;strokeWidth=0.8;" vertex="1" parent="1">
          <mxGeometry x="1560" y="80" width="341.89" height="180" as="geometry" />
        </mxCell>
        <mxCell id="jNWc2fwv66Wsc-9iDNfM-674" value="usetime_id" style="strokeColor=none;part=1;resizeHeight=0;align=left;verticalAlign=top;spacingLeft=4;spacingRight=4;overflow=hidden;rotatable=0;points=[[0,0.5],[1,0.5]];portConstraint=eastwest;whiteSpace=wrap;swimlaneFillColor=#ffffff;whiteSpace=wrap;fontSize=13;fontColor=#000000;fontStyle=7;fillColor=none;strokeOpacity=100;fillOpacity=100;whiteSpace=wrap;spacing=0;rounded=1;absoluteArcSize=1;arcSize=7.5;strokeWidth=0.8;" vertex="1" parent="jNWc2fwv66Wsc-9iDNfM-673">
          <mxGeometry y="33" width="110" height="24" as="geometry" />
        </mxCell>
        <mxCell id="jNWc2fwv66Wsc-9iDNfM-703" value="MEDIUMINT (PK)" style="shape=partialRectangle;top=0;right=0;bottom=0;part=1;resizeHeight=0;align=left;verticalAlign=top;spacingLeft=4;spacingRight=4;overflow=hidden;rotatable=0;points=[[0,0.5],[1,0.5]];portConstraint=eastwest;whiteSpace=wrap;swimlaneFillColor=#ffffff;whiteSpace=wrap;fontSize=13;fontColor=#000000;fontStyle=7;fillColor=none;strokeOpacity=100;fillOpacity=100;whiteSpace=wrap;spacing=0;strokeColor=#333333;rounded=1;absoluteArcSize=1;arcSize=7.5;strokeWidth=0.8;" vertex="1" parent="jNWc2fwv66Wsc-9iDNfM-673">
          <mxGeometry x="176" y="33" width="126.87" height="24" as="geometry" />
        </mxCell>
        <mxCell id="jNWc2fwv66Wsc-9iDNfM-675" value="usetime_end" style="strokeColor=none;part=1;resizeHeight=0;align=left;verticalAlign=top;spacingLeft=4;spacingRight=4;overflow=hidden;rotatable=0;points=[[0,0.5],[1,0.5]];portConstraint=eastwest;whiteSpace=wrap;swimlaneFillColor=#ffffff;whiteSpace=wrap;fontSize=13;fillColor=none;strokeOpacity=100;fillOpacity=100;whiteSpace=wrap;spacing=0;rounded=1;absoluteArcSize=1;arcSize=7.5;strokeWidth=0.8;fontColor=#000000;container=0;" vertex="1" parent="jNWc2fwv66Wsc-9iDNfM-673">
          <mxGeometry y="78" width="146.8914865004655" height="24" as="geometry" />
        </mxCell>
        <mxCell id="jNWc2fwv66Wsc-9iDNfM-676" value="facility_id" style="strokeColor=none;part=1;resizeHeight=0;align=left;verticalAlign=top;spacingLeft=4;spacingRight=4;overflow=hidden;rotatable=0;points=[[0,0.5],[1,0.5]];portConstraint=eastwest;whiteSpace=wrap;swimlaneFillColor=#ffffff;whiteSpace=wrap;fontSize=13;fillColor=none;strokeOpacity=100;fillOpacity=100;whiteSpace=wrap;spacing=0;rounded=1;absoluteArcSize=1;arcSize=7.5;strokeWidth=0.8;fontColor=#000000;fontStyle=3;container=0;" vertex="1" parent="jNWc2fwv66Wsc-9iDNfM-673">
          <mxGeometry y="102" width="146.8914865004655" height="24" as="geometry" />
        </mxCell>
        <mxCell id="jNWc2fwv66Wsc-9iDNfM-677" value="site_id" style="strokeColor=none;part=1;resizeHeight=0;align=left;verticalAlign=top;spacingLeft=4;spacingRight=4;overflow=hidden;rotatable=0;points=[[0,0.5],[1,0.5]];portConstraint=eastwest;whiteSpace=wrap;swimlaneFillColor=#ffffff;whiteSpace=wrap;fontSize=13;fillColor=none;strokeOpacity=100;fillOpacity=100;whiteSpace=wrap;spacing=0;rounded=1;absoluteArcSize=1;arcSize=7.5;strokeWidth=0.8;fontColor=#000000;container=0;fontStyle=3" vertex="1" parent="jNWc2fwv66Wsc-9iDNfM-673">
          <mxGeometry y="126" width="146.8914865004655" height="24" as="geometry" />
        </mxCell>
        <mxCell id="jNWc2fwv66Wsc-9iDNfM-678" value="use_type" style="strokeColor=none;part=1;resizeHeight=0;align=left;verticalAlign=top;spacingLeft=4;spacingRight=4;overflow=hidden;rotatable=0;points=[[0,0.5],[1,0.5]];portConstraint=eastwest;whiteSpace=wrap;swimlaneFillColor=#ffffff;whiteSpace=wrap;fontSize=13;fillColor=none;strokeOpacity=100;fillOpacity=100;whiteSpace=wrap;spacing=0;rounded=1;absoluteArcSize=1;arcSize=7.5;strokeWidth=0.8;fontColor=#000000;container=0;" vertex="1" parent="jNWc2fwv66Wsc-9iDNfM-673">
          <mxGeometry y="150" width="146.8914865004655" height="24" as="geometry" />
        </mxCell>
        <mxCell id="jNWc2fwv66Wsc-9iDNfM-691" value="usetime_start" style="strokeColor=none;part=1;resizeHeight=0;align=left;verticalAlign=top;spacingLeft=4;spacingRight=4;overflow=hidden;rotatable=0;points=[[0,0.5],[1,0.5]];portConstraint=eastwest;whiteSpace=wrap;swimlaneFillColor=#ffffff;whiteSpace=wrap;fontSize=13;fontColor=#000000;fontStyle=0;fillColor=none;strokeOpacity=100;fillOpacity=100;whiteSpace=wrap;spacing=0;rounded=1;absoluteArcSize=1;arcSize=7.5;strokeWidth=0.8;container=0;" vertex="1" parent="jNWc2fwv66Wsc-9iDNfM-673">
          <mxGeometry y="55" width="121.37512499568982" height="24" as="geometry" />
        </mxCell>
        <mxCell id="jNWc2fwv66Wsc-9iDNfM-705" value="TIME" style="shape=partialRectangle;top=0;right=0;bottom=0;part=1;resizeHeight=0;align=left;verticalAlign=top;spacingLeft=4;spacingRight=4;overflow=hidden;rotatable=0;points=[[0,0.5],[1,0.5]];portConstraint=eastwest;whiteSpace=wrap;swimlaneFillColor=#ffffff;whiteSpace=wrap;fontSize=13;fillColor=none;strokeOpacity=100;fillOpacity=100;whiteSpace=wrap;spacing=0;strokeColor=#333333;rounded=1;absoluteArcSize=1;arcSize=7.5;strokeWidth=0.8;fontColor=#000000;container=0;" vertex="1" parent="jNWc2fwv66Wsc-9iDNfM-673">
          <mxGeometry x="176.55115340850315" y="83" width="75.99737940071033" height="24" as="geometry" />
        </mxCell>
        <mxCell id="jNWc2fwv66Wsc-9iDNfM-706" value="MEDIUMINT (FK)" style="shape=partialRectangle;top=0;right=0;bottom=0;part=1;resizeHeight=0;align=left;verticalAlign=top;spacingLeft=4;spacingRight=4;overflow=hidden;rotatable=0;points=[[0,0.5],[1,0.5]];portConstraint=eastwest;whiteSpace=wrap;swimlaneFillColor=#ffffff;whiteSpace=wrap;fontSize=13;fillColor=none;strokeOpacity=100;fillOpacity=100;whiteSpace=wrap;spacing=0;strokeColor=#333333;rounded=1;absoluteArcSize=1;arcSize=7.5;strokeWidth=0.8;fontColor=#000000;container=0;fontStyle=3" vertex="1" parent="jNWc2fwv66Wsc-9iDNfM-673">
          <mxGeometry x="176.55667045963932" y="107" width="143.44332954036068" height="24" as="geometry" />
        </mxCell>
        <mxCell id="jNWc2fwv66Wsc-9iDNfM-707" value="MEDIUMINT (FK)" style="shape=partialRectangle;top=0;right=0;bottom=0;part=1;resizeHeight=0;align=left;verticalAlign=top;spacingLeft=4;spacingRight=4;overflow=hidden;rotatable=0;points=[[0,0.5],[1,0.5]];portConstraint=eastwest;whiteSpace=wrap;swimlaneFillColor=#ffffff;whiteSpace=wrap;fontSize=13;fillColor=none;strokeOpacity=100;fillOpacity=100;whiteSpace=wrap;spacing=0;strokeColor=#333333;rounded=1;absoluteArcSize=1;arcSize=7.5;strokeWidth=0.8;fontColor=#000000;container=0;fontStyle=3" vertex="1" parent="jNWc2fwv66Wsc-9iDNfM-673">
          <mxGeometry x="176.55" y="131" width="130" height="20" as="geometry" />
        </mxCell>
        <mxCell id="jNWc2fwv66Wsc-9iDNfM-708" value="TINYINT" style="shape=partialRectangle;top=0;right=0;bottom=0;part=1;resizeHeight=0;align=left;verticalAlign=top;spacingLeft=4;spacingRight=4;overflow=hidden;rotatable=0;points=[[0,0.5],[1,0.5]];portConstraint=eastwest;whiteSpace=wrap;swimlaneFillColor=#ffffff;whiteSpace=wrap;fontSize=13;fillColor=none;strokeOpacity=100;fillOpacity=100;whiteSpace=wrap;spacing=0;strokeColor=#333333;rounded=1;absoluteArcSize=1;arcSize=7.5;strokeWidth=0.8;fontColor=#000000;container=0;" vertex="1" parent="jNWc2fwv66Wsc-9iDNfM-673">
          <mxGeometry x="176.55115340850315" y="155" width="75.99737940071033" height="24" as="geometry" />
        </mxCell>
        <mxCell id="jNWc2fwv66Wsc-9iDNfM-714" value="TIME" style="shape=partialRectangle;top=0;right=0;bottom=0;part=1;resizeHeight=0;align=left;verticalAlign=top;spacingLeft=4;spacingRight=4;overflow=hidden;rotatable=0;points=[[0,0.5],[1,0.5]];portConstraint=eastwest;whiteSpace=wrap;swimlaneFillColor=#ffffff;whiteSpace=wrap;fontSize=13;fontColor=#000000;fontStyle=0;fillColor=none;strokeOpacity=100;fillOpacity=100;whiteSpace=wrap;spacing=0;strokeColor=#333333;rounded=1;absoluteArcSize=1;arcSize=7.5;strokeWidth=0.8;container=0;" vertex="1" parent="jNWc2fwv66Wsc-9iDNfM-673">
          <mxGeometry x="176.55667045963932" y="60" width="128.9665873590566" height="24" as="geometry" />
        </mxCell>
        <mxCell id="jNWc2fwv66Wsc-9iDNfM-730" value="&lt;span&gt;å©ç¨æéãã¹ã¿&lt;/span&gt;" style="rounded=0;whiteSpace=wrap;html=1;fillColor=#dae8fc;strokeColor=#6c8ebf;fontColor=#000000;" vertex="1" parent="1">
          <mxGeometry x="1560" y="50" width="340" height="30" as="geometry" />
        </mxCell>
        <mxCell id="jNWc2fwv66Wsc-9iDNfM-790" value="&lt;span&gt;m_lodging_holiday&lt;/span&gt;" style="html=1;overflow=block;blockSpacing=1;whiteSpace=wrap;swimlane;resizeParent=1;resizeParentMax=0;resizeLast=0;collapsible=0;marginBottom=0;fontStyle=0;swimlaneFillColor=#ffffff;startSize=30;whiteSpace=wrap;fontSize=13;fontColor=#000000;fontStyle=3;align=center;fillColor=#e0e0e0;whiteSpace=wrap;spacing=0;strokeColor=#333333;strokeOpacity=100;fillOpacity=100;rounded=1;absoluteArcSize=1;arcSize=7.5;strokeWidth=0.8;" vertex="1" parent="1">
          <mxGeometry x="1980" y="80" width="341.89" height="110" as="geometry" />
        </mxCell>
        <mxCell id="jNWc2fwv66Wsc-9iDNfM-791" value="holiday_id" style="strokeColor=none;part=1;resizeHeight=0;align=left;verticalAlign=top;spacingLeft=4;spacingRight=4;overflow=hidden;rotatable=0;points=[[0,0.5],[1,0.5]];portConstraint=eastwest;whiteSpace=wrap;swimlaneFillColor=#ffffff;whiteSpace=wrap;fontSize=13;fontColor=#000000;fontStyle=7;fillColor=none;strokeOpacity=100;fillOpacity=100;whiteSpace=wrap;spacing=0;rounded=1;absoluteArcSize=1;arcSize=7.5;strokeWidth=0.8;" vertex="1" parent="jNWc2fwv66Wsc-9iDNfM-790">
          <mxGeometry y="33" width="110" height="24" as="geometry" />
        </mxCell>
        <mxCell id="jNWc2fwv66Wsc-9iDNfM-792" value="MEDIUMINT (PK)" style="shape=partialRectangle;top=0;right=0;bottom=0;part=1;resizeHeight=0;align=left;verticalAlign=top;spacingLeft=4;spacingRight=4;overflow=hidden;rotatable=0;points=[[0,0.5],[1,0.5]];portConstraint=eastwest;whiteSpace=wrap;swimlaneFillColor=#ffffff;whiteSpace=wrap;fontSize=13;fontColor=#000000;fontStyle=7;fillColor=none;strokeOpacity=100;fillOpacity=100;whiteSpace=wrap;spacing=0;strokeColor=#333333;rounded=1;absoluteArcSize=1;arcSize=7.5;strokeWidth=0.8;" vertex="1" parent="jNWc2fwv66Wsc-9iDNfM-790">
          <mxGeometry x="176" y="33" width="126.87" height="24" as="geometry" />
        </mxCell>
        <mxCell id="jNWc2fwv66Wsc-9iDNfM-794" value="date" style="strokeColor=none;part=1;resizeHeight=0;align=left;verticalAlign=top;spacingLeft=4;spacingRight=4;overflow=hidden;rotatable=0;points=[[0,0.5],[1,0.5]];portConstraint=eastwest;whiteSpace=wrap;swimlaneFillColor=#ffffff;whiteSpace=wrap;fontSize=13;fillColor=none;strokeOpacity=100;fillOpacity=100;whiteSpace=wrap;spacing=0;rounded=1;absoluteArcSize=1;arcSize=7.5;strokeWidth=0.8;fontColor=#000000;container=0;" vertex="1" parent="jNWc2fwv66Wsc-9iDNfM-790">
          <mxGeometry y="78" width="146.8914865004655" height="24" as="geometry" />
        </mxCell>
        <mxCell id="jNWc2fwv66Wsc-9iDNfM-810" value="facility_id" style="strokeColor=none;part=1;resizeHeight=0;align=left;verticalAlign=top;spacingLeft=4;spacingRight=4;overflow=hidden;rotatable=0;points=[[0,0.5],[1,0.5]];portConstraint=eastwest;whiteSpace=wrap;swimlaneFillColor=#ffffff;whiteSpace=wrap;fontSize=13;fontColor=#000000;fontStyle=3;fillColor=none;strokeOpacity=100;fillOpacity=100;whiteSpace=wrap;spacing=0;rounded=1;absoluteArcSize=1;arcSize=7.5;strokeWidth=0.8;container=0;" vertex="1" parent="jNWc2fwv66Wsc-9iDNfM-790">
          <mxGeometry y="55" width="121.37512499568982" height="24" as="geometry" />
        </mxCell>
        <mxCell id="jNWc2fwv66Wsc-9iDNfM-823" value="DATE" style="shape=partialRectangle;top=0;right=0;bottom=0;part=1;resizeHeight=0;align=left;verticalAlign=top;spacingLeft=4;spacingRight=4;overflow=hidden;rotatable=0;points=[[0,0.5],[1,0.5]];portConstraint=eastwest;whiteSpace=wrap;swimlaneFillColor=#ffffff;whiteSpace=wrap;fontSize=13;fillColor=none;strokeOpacity=100;fillOpacity=100;whiteSpace=wrap;spacing=0;strokeColor=#333333;rounded=1;absoluteArcSize=1;arcSize=7.5;strokeWidth=0.8;fontColor=#000000;container=0;" vertex="1" parent="jNWc2fwv66Wsc-9iDNfM-790">
          <mxGeometry x="176.55115340850315" y="83" width="75.99737940071033" height="24" as="geometry" />
        </mxCell>
        <mxCell id="jNWc2fwv66Wsc-9iDNfM-832" value="MEDIUMINT (FK)" style="shape=partialRectangle;top=0;right=0;bottom=0;part=1;resizeHeight=0;align=left;verticalAlign=top;spacingLeft=4;spacingRight=4;overflow=hidden;rotatable=0;points=[[0,0.5],[1,0.5]];portConstraint=eastwest;whiteSpace=wrap;swimlaneFillColor=#ffffff;whiteSpace=wrap;fontSize=13;fontColor=#000000;fontStyle=3;fillColor=none;strokeOpacity=100;fillOpacity=100;whiteSpace=wrap;spacing=0;strokeColor=#333333;rounded=1;absoluteArcSize=1;arcSize=7.5;strokeWidth=0.8;container=0;" vertex="1" parent="jNWc2fwv66Wsc-9iDNfM-790">
          <mxGeometry x="176.55667045963932" y="60" width="128.9665873590566" height="24" as="geometry" />
        </mxCell>
        <mxCell id="jNWc2fwv66Wsc-9iDNfM-848" value="&lt;span&gt;å®ä¼æ¥ãã¹ã¿&lt;/span&gt;" style="rounded=0;whiteSpace=wrap;html=1;fillColor=#dae8fc;strokeColor=#6c8ebf;fontColor=#000000;" vertex="1" parent="1">
          <mxGeometry x="1980" y="50" width="340" height="30" as="geometry" />
        </mxCell>
        <mxCell id="jNWc2fwv66Wsc-9iDNfM-849" value="&lt;span&gt;m_lodging_site_option&lt;/span&gt;" style="html=1;overflow=block;blockSpacing=1;whiteSpace=wrap;swimlane;resizeParent=1;resizeParentMax=0;resizeLast=0;collapsible=0;marginBottom=0;fontStyle=0;swimlaneFillColor=#ffffff;startSize=30;whiteSpace=wrap;fontSize=13;fontColor=#000000;fontStyle=3;align=center;fillColor=#e0e0e0;whiteSpace=wrap;spacing=0;strokeColor=#333333;strokeOpacity=100;fillOpacity=100;rounded=1;absoluteArcSize=1;arcSize=7.5;strokeWidth=0.8;" vertex="1" parent="1">
          <mxGeometry x="2410" y="80" width="341.89" height="90" as="geometry" />
        </mxCell>
        <mxCell id="jNWc2fwv66Wsc-9iDNfM-850" value="site_id" style="strokeColor=none;part=1;resizeHeight=0;align=left;verticalAlign=top;spacingLeft=4;spacingRight=4;overflow=hidden;rotatable=0;points=[[0,0.5],[1,0.5]];portConstraint=eastwest;whiteSpace=wrap;swimlaneFillColor=#ffffff;whiteSpace=wrap;fontSize=13;fontColor=#000000;fontStyle=7;fillColor=none;strokeOpacity=100;fillOpacity=100;whiteSpace=wrap;spacing=0;rounded=1;absoluteArcSize=1;arcSize=7.5;strokeWidth=0.8;" vertex="1" parent="jNWc2fwv66Wsc-9iDNfM-849">
          <mxGeometry y="33" width="110" height="24" as="geometry" />
        </mxCell>
        <mxCell id="jNWc2fwv66Wsc-9iDNfM-851" value="MEDIUMINT (PK)" style="shape=partialRectangle;top=0;right=0;bottom=0;part=1;resizeHeight=0;align=left;verticalAlign=top;spacingLeft=4;spacingRight=4;overflow=hidden;rotatable=0;points=[[0,0.5],[1,0.5]];portConstraint=eastwest;whiteSpace=wrap;swimlaneFillColor=#ffffff;whiteSpace=wrap;fontSize=13;fontColor=#000000;fontStyle=7;fillColor=none;strokeOpacity=100;fillOpacity=100;whiteSpace=wrap;spacing=0;strokeColor=#333333;rounded=1;absoluteArcSize=1;arcSize=7.5;strokeWidth=0.8;" vertex="1" parent="jNWc2fwv66Wsc-9iDNfM-849">
          <mxGeometry x="176" y="33" width="126.87" height="24" as="geometry" />
        </mxCell>
        <mxCell id="jNWc2fwv66Wsc-9iDNfM-868" value="option_id" style="strokeColor=none;part=1;resizeHeight=0;align=left;verticalAlign=top;spacingLeft=4;spacingRight=4;overflow=hidden;rotatable=0;points=[[0,0.5],[1,0.5]];portConstraint=eastwest;whiteSpace=wrap;swimlaneFillColor=#ffffff;whiteSpace=wrap;fontSize=13;fontColor=#000000;fontStyle=3;fillColor=none;strokeOpacity=100;fillOpacity=100;whiteSpace=wrap;spacing=0;rounded=1;absoluteArcSize=1;arcSize=7.5;strokeWidth=0.8;container=0;" vertex="1" parent="jNWc2fwv66Wsc-9iDNfM-849">
          <mxGeometry y="55" width="121.37512499568982" height="24" as="geometry" />
        </mxCell>
        <mxCell id="jNWc2fwv66Wsc-9iDNfM-882" value="MEDIUMINT (PK)" style="shape=partialRectangle;top=0;right=0;bottom=0;part=1;resizeHeight=0;align=left;verticalAlign=top;spacingLeft=4;spacingRight=4;overflow=hidden;rotatable=0;points=[[0,0.5],[1,0.5]];portConstraint=eastwest;whiteSpace=wrap;swimlaneFillColor=#ffffff;whiteSpace=wrap;fontSize=13;fontColor=#000000;fontStyle=3;fillColor=none;strokeOpacity=100;fillOpacity=100;whiteSpace=wrap;spacing=0;strokeColor=#333333;rounded=1;absoluteArcSize=1;arcSize=7.5;strokeWidth=0.8;container=0;" vertex="1" parent="jNWc2fwv66Wsc-9iDNfM-849">
          <mxGeometry x="176.55667045963932" y="60" width="128.9665873590566" height="24" as="geometry" />
        </mxCell>
        <mxCell id="jNWc2fwv66Wsc-9iDNfM-890" value="&lt;span&gt;ãµã¤ãå¥ãªãã·ã§ã³ãã¹ã¿&lt;/span&gt;" style="rounded=0;whiteSpace=wrap;html=1;fillColor=#dae8fc;strokeColor=#6c8ebf;fontColor=#000000;" vertex="1" parent="1">
          <mxGeometry x="2410" y="50" width="340" height="30" as="geometry" />
        </mxCell>
        <mxCell id="jNWc2fwv66Wsc-9iDNfM-891" value="&lt;span&gt;m_lodging_option&lt;/span&gt;" style="html=1;overflow=block;blockSpacing=1;whiteSpace=wrap;swimlane;resizeParent=1;resizeParentMax=0;resizeLast=0;collapsible=0;marginBottom=0;fontStyle=0;swimlaneFillColor=#ffffff;startSize=30;whiteSpace=wrap;fontSize=13;fontColor=#000000;fontStyle=3;align=center;fillColor=#e0e0e0;whiteSpace=wrap;spacing=0;strokeColor=#333333;strokeOpacity=100;fillOpacity=100;rounded=1;absoluteArcSize=1;arcSize=7.5;strokeWidth=0.8;" vertex="1" parent="1">
          <mxGeometry x="2975" y="80" width="341.89" height="110" as="geometry" />
        </mxCell>
        <mxCell id="jNWc2fwv66Wsc-9iDNfM-892" value="option_id" style="strokeColor=none;part=1;resizeHeight=0;align=left;verticalAlign=top;spacingLeft=4;spacingRight=4;overflow=hidden;rotatable=0;points=[[0,0.5],[1,0.5]];portConstraint=eastwest;whiteSpace=wrap;swimlaneFillColor=#ffffff;whiteSpace=wrap;fontSize=13;fontColor=#000000;fontStyle=7;fillColor=none;strokeOpacity=100;fillOpacity=100;whiteSpace=wrap;spacing=0;rounded=1;absoluteArcSize=1;arcSize=7.5;strokeWidth=0.8;" vertex="1" parent="jNWc2fwv66Wsc-9iDNfM-891">
          <mxGeometry y="33" width="110" height="24" as="geometry" />
        </mxCell>
        <mxCell id="jNWc2fwv66Wsc-9iDNfM-893" value="MEDIUMINT (PK)" style="shape=partialRectangle;top=0;right=0;bottom=0;part=1;resizeHeight=0;align=left;verticalAlign=top;spacingLeft=4;spacingRight=4;overflow=hidden;rotatable=0;points=[[0,0.5],[1,0.5]];portConstraint=eastwest;whiteSpace=wrap;swimlaneFillColor=#ffffff;whiteSpace=wrap;fontSize=13;fontColor=#000000;fontStyle=7;fillColor=none;strokeOpacity=100;fillOpacity=100;whiteSpace=wrap;spacing=0;strokeColor=#333333;rounded=1;absoluteArcSize=1;arcSize=7.5;strokeWidth=0.8;" vertex="1" parent="jNWc2fwv66Wsc-9iDNfM-891">
          <mxGeometry x="176" y="33" width="126.87" height="24" as="geometry" />
        </mxCell>
        <mxCell id="jNWc2fwv66Wsc-9iDNfM-894" value="product_number_id" style="strokeColor=none;part=1;resizeHeight=0;align=left;verticalAlign=top;spacingLeft=4;spacingRight=4;overflow=hidden;rotatable=0;points=[[0,0.5],[1,0.5]];portConstraint=eastwest;whiteSpace=wrap;swimlaneFillColor=#ffffff;whiteSpace=wrap;fontSize=13;fillColor=none;strokeOpacity=100;fillOpacity=100;whiteSpace=wrap;spacing=0;rounded=1;absoluteArcSize=1;arcSize=7.5;strokeWidth=0.8;fontColor=#000000;container=0;fontStyle=3" vertex="1" parent="jNWc2fwv66Wsc-9iDNfM-891">
          <mxGeometry y="80" width="146.8914865004655" height="24" as="geometry" />
        </mxCell>
        <mxCell id="jNWc2fwv66Wsc-9iDNfM-910" value="facility_id" style="strokeColor=none;part=1;resizeHeight=0;align=left;verticalAlign=top;spacingLeft=4;spacingRight=4;overflow=hidden;rotatable=0;points=[[0,0.5],[1,0.5]];portConstraint=eastwest;whiteSpace=wrap;swimlaneFillColor=#ffffff;whiteSpace=wrap;fontSize=13;fontColor=#000000;fontStyle=3;fillColor=none;strokeOpacity=100;fillOpacity=100;whiteSpace=wrap;spacing=0;rounded=1;absoluteArcSize=1;arcSize=7.5;strokeWidth=0.8;container=0;" vertex="1" parent="jNWc2fwv66Wsc-9iDNfM-891">
          <mxGeometry y="58" width="121.37512499568982" height="24" as="geometry" />
        </mxCell>
        <mxCell id="jNWc2fwv66Wsc-9iDNfM-915" value="MEDIUMINT (FK)" style="shape=partialRectangle;top=0;right=0;bottom=0;part=1;resizeHeight=0;align=left;verticalAlign=top;spacingLeft=4;spacingRight=4;overflow=hidden;rotatable=0;points=[[0,0.5],[1,0.5]];portConstraint=eastwest;whiteSpace=wrap;swimlaneFillColor=#ffffff;whiteSpace=wrap;fontSize=13;fillColor=none;strokeOpacity=100;fillOpacity=100;whiteSpace=wrap;spacing=0;strokeColor=#333333;rounded=1;absoluteArcSize=1;arcSize=7.5;strokeWidth=0.8;fontColor=#000000;container=0;fontStyle=3" vertex="1" parent="jNWc2fwv66Wsc-9iDNfM-891">
          <mxGeometry x="176.55" y="83" width="133.45" height="24" as="geometry" />
        </mxCell>
        <mxCell id="jNWc2fwv66Wsc-9iDNfM-924" value="MEDIUMINT (FK)" style="shape=partialRectangle;top=0;right=0;bottom=0;part=1;resizeHeight=0;align=left;verticalAlign=top;spacingLeft=4;spacingRight=4;overflow=hidden;rotatable=0;points=[[0,0.5],[1,0.5]];portConstraint=eastwest;whiteSpace=wrap;swimlaneFillColor=#ffffff;whiteSpace=wrap;fontSize=13;fontColor=#000000;fontStyle=3;fillColor=none;strokeOpacity=100;fillOpacity=100;whiteSpace=wrap;spacing=0;strokeColor=#333333;rounded=1;absoluteArcSize=1;arcSize=7.5;strokeWidth=0.8;container=0;" vertex="1" parent="jNWc2fwv66Wsc-9iDNfM-891">
          <mxGeometry x="176.55667045963932" y="60" width="128.9665873590566" height="24" as="geometry" />
        </mxCell>
        <mxCell id="jNWc2fwv66Wsc-9iDNfM-932" value="&lt;span&gt;ãªãã·ã§ã³ãã¹ã¿&lt;/span&gt;" style="rounded=0;whiteSpace=wrap;html=1;fillColor=#dae8fc;strokeColor=#6c8ebf;fontColor=#000000;" vertex="1" parent="1">
          <mxGeometry x="2975" y="50" width="340" height="30" as="geometry" />
        </mxCell>
        <mxCell id="jNWc2fwv66Wsc-9iDNfM-933" value="&lt;span&gt;m_lodging_term&lt;/span&gt;" style="html=1;overflow=block;blockSpacing=1;whiteSpace=wrap;swimlane;resizeParent=1;resizeParentMax=0;resizeLast=0;collapsible=0;marginBottom=0;fontStyle=0;swimlaneFillColor=#ffffff;startSize=30;whiteSpace=wrap;fontSize=13;fontColor=#000000;fontStyle=3;align=center;fillColor=#e0e0e0;whiteSpace=wrap;spacing=0;strokeColor=#333333;strokeOpacity=100;fillOpacity=100;rounded=1;absoluteArcSize=1;arcSize=7.5;strokeWidth=0.8;" vertex="1" parent="1">
          <mxGeometry x="3450" y="81" width="341.89" height="89" as="geometry" />
        </mxCell>
        <mxCell id="jNWc2fwv66Wsc-9iDNfM-934" value="term_id" style="strokeColor=none;part=1;resizeHeight=0;align=left;verticalAlign=top;spacingLeft=4;spacingRight=4;overflow=hidden;rotatable=0;points=[[0,0.5],[1,0.5]];portConstraint=eastwest;whiteSpace=wrap;swimlaneFillColor=#ffffff;whiteSpace=wrap;fontSize=13;fontColor=#000000;fontStyle=7;fillColor=none;strokeOpacity=100;fillOpacity=100;whiteSpace=wrap;spacing=0;rounded=1;absoluteArcSize=1;arcSize=7.5;strokeWidth=0.8;" vertex="1" parent="jNWc2fwv66Wsc-9iDNfM-933">
          <mxGeometry y="33" width="110" height="24" as="geometry" />
        </mxCell>
        <mxCell id="jNWc2fwv66Wsc-9iDNfM-935" value="MEDIUMINT (PK)" style="shape=partialRectangle;top=0;right=0;bottom=0;part=1;resizeHeight=0;align=left;verticalAlign=top;spacingLeft=4;spacingRight=4;overflow=hidden;rotatable=0;points=[[0,0.5],[1,0.5]];portConstraint=eastwest;whiteSpace=wrap;swimlaneFillColor=#ffffff;whiteSpace=wrap;fontSize=13;fontColor=#000000;fontStyle=7;fillColor=none;strokeOpacity=100;fillOpacity=100;whiteSpace=wrap;spacing=0;strokeColor=#333333;rounded=1;absoluteArcSize=1;arcSize=7.5;strokeWidth=0.8;" vertex="1" parent="jNWc2fwv66Wsc-9iDNfM-933">
          <mxGeometry x="176" y="33" width="126.87" height="24" as="geometry" />
        </mxCell>
        <mxCell id="jNWc2fwv66Wsc-9iDNfM-951" value="facility_id" style="strokeColor=none;part=1;resizeHeight=0;align=left;verticalAlign=top;spacingLeft=4;spacingRight=4;overflow=hidden;rotatable=0;points=[[0,0.5],[1,0.5]];portConstraint=eastwest;whiteSpace=wrap;swimlaneFillColor=#ffffff;whiteSpace=wrap;fontSize=13;fontColor=#000000;fontStyle=3;fillColor=none;strokeOpacity=100;fillOpacity=100;whiteSpace=wrap;spacing=0;rounded=1;absoluteArcSize=1;arcSize=7.5;strokeWidth=0.8;container=0;" vertex="1" parent="jNWc2fwv66Wsc-9iDNfM-933">
          <mxGeometry y="60" width="121.37512499568982" height="24" as="geometry" />
        </mxCell>
        <mxCell id="jNWc2fwv66Wsc-9iDNfM-962" value="MEDIUMINT (FK)" style="shape=partialRectangle;top=0;right=0;bottom=0;part=1;resizeHeight=0;align=left;verticalAlign=top;spacingLeft=4;spacingRight=4;overflow=hidden;rotatable=0;points=[[0,0.5],[1,0.5]];portConstraint=eastwest;whiteSpace=wrap;swimlaneFillColor=#ffffff;whiteSpace=wrap;fontSize=13;fontColor=#000000;fontStyle=3;fillColor=none;strokeOpacity=100;fillOpacity=100;whiteSpace=wrap;spacing=0;strokeColor=#333333;rounded=1;absoluteArcSize=1;arcSize=7.5;strokeWidth=0.8;container=0;" vertex="1" parent="jNWc2fwv66Wsc-9iDNfM-933">
          <mxGeometry x="176.55667045963932" y="60" width="128.9665873590566" height="24" as="geometry" />
        </mxCell>
        <mxCell id="jNWc2fwv66Wsc-9iDNfM-966" value="&lt;span&gt;æéãã¹ã¿&lt;/span&gt;" style="rounded=0;whiteSpace=wrap;html=1;fillColor=#dae8fc;strokeColor=#6c8ebf;fontColor=#000000;" vertex="1" parent="1">
          <mxGeometry x="3450" y="50" width="340" height="30" as="geometry" />
        </mxCell>
        <mxCell id="jNWc2fwv66Wsc-9iDNfM-967" value="&lt;span&gt;m_lodging_user_type&lt;/span&gt;" style="html=1;overflow=block;blockSpacing=1;whiteSpace=wrap;swimlane;resizeParent=1;resizeParentMax=0;resizeLast=0;collapsible=0;marginBottom=0;fontStyle=0;swimlaneFillColor=#ffffff;startSize=30;whiteSpace=wrap;fontSize=13;fontColor=#000000;fontStyle=3;align=center;fillColor=#e0e0e0;whiteSpace=wrap;spacing=0;strokeColor=#333333;strokeOpacity=100;fillOpacity=100;rounded=1;absoluteArcSize=1;arcSize=7.5;strokeWidth=0.8;" vertex="1" parent="1">
          <mxGeometry x="3908" y="81" width="341.89" height="89" as="geometry" />
        </mxCell>
        <mxCell id="jNWc2fwv66Wsc-9iDNfM-968" value="user_type_id" style="strokeColor=none;part=1;resizeHeight=0;align=left;verticalAlign=top;spacingLeft=4;spacingRight=4;overflow=hidden;rotatable=0;points=[[0,0.5],[1,0.5]];portConstraint=eastwest;whiteSpace=wrap;swimlaneFillColor=#ffffff;whiteSpace=wrap;fontSize=13;fontColor=#000000;fontStyle=7;fillColor=none;strokeOpacity=100;fillOpacity=100;whiteSpace=wrap;spacing=0;rounded=1;absoluteArcSize=1;arcSize=7.5;strokeWidth=0.8;" vertex="1" parent="jNWc2fwv66Wsc-9iDNfM-967">
          <mxGeometry y="33" width="110" height="24" as="geometry" />
        </mxCell>
        <mxCell id="jNWc2fwv66Wsc-9iDNfM-969" value="MEDIUMINT (PK)" style="shape=partialRectangle;top=0;right=0;bottom=0;part=1;resizeHeight=0;align=left;verticalAlign=top;spacingLeft=4;spacingRight=4;overflow=hidden;rotatable=0;points=[[0,0.5],[1,0.5]];portConstraint=eastwest;whiteSpace=wrap;swimlaneFillColor=#ffffff;whiteSpace=wrap;fontSize=13;fontColor=#000000;fontStyle=7;fillColor=none;strokeOpacity=100;fillOpacity=100;whiteSpace=wrap;spacing=0;strokeColor=#333333;rounded=1;absoluteArcSize=1;arcSize=7.5;strokeWidth=0.8;" vertex="1" parent="jNWc2fwv66Wsc-9iDNfM-967">
          <mxGeometry x="176" y="33" width="126.87" height="24" as="geometry" />
        </mxCell>
        <mxCell id="jNWc2fwv66Wsc-9iDNfM-978" value="facility_id" style="strokeColor=none;part=1;resizeHeight=0;align=left;verticalAlign=top;spacingLeft=4;spacingRight=4;overflow=hidden;rotatable=0;points=[[0,0.5],[1,0.5]];portConstraint=eastwest;whiteSpace=wrap;swimlaneFillColor=#ffffff;whiteSpace=wrap;fontSize=13;fontColor=#000000;fontStyle=3;fillColor=none;strokeOpacity=100;fillOpacity=100;whiteSpace=wrap;spacing=0;rounded=1;absoluteArcSize=1;arcSize=7.5;strokeWidth=0.8;container=0;" vertex="1" parent="jNWc2fwv66Wsc-9iDNfM-967">
          <mxGeometry y="60" width="121.37512499568982" height="24" as="geometry" />
        </mxCell>
        <mxCell id="jNWc2fwv66Wsc-9iDNfM-987" value="MEDIUMINT (FK)" style="shape=partialRectangle;top=0;right=0;bottom=0;part=1;resizeHeight=0;align=left;verticalAlign=top;spacingLeft=4;spacingRight=4;overflow=hidden;rotatable=0;points=[[0,0.5],[1,0.5]];portConstraint=eastwest;whiteSpace=wrap;swimlaneFillColor=#ffffff;whiteSpace=wrap;fontSize=13;fontColor=#000000;fontStyle=3;fillColor=none;strokeOpacity=100;fillOpacity=100;whiteSpace=wrap;spacing=0;strokeColor=#333333;rounded=1;absoluteArcSize=1;arcSize=7.5;strokeWidth=0.8;container=0;" vertex="1" parent="jNWc2fwv66Wsc-9iDNfM-967">
          <mxGeometry x="176.55667045963932" y="60" width="128.9665873590566" height="24" as="geometry" />
        </mxCell>
        <mxCell id="jNWc2fwv66Wsc-9iDNfM-988" value="&lt;span&gt;å©ç¨èç¨®å¥ãã¹ã¿&lt;/span&gt;" style="rounded=0;whiteSpace=wrap;html=1;fillColor=#dae8fc;strokeColor=#6c8ebf;fontColor=#000000;" vertex="1" parent="1">
          <mxGeometry x="3908" y="50" width="340" height="30" as="geometry" />
        </mxCell>
        <mxCell id="jNWc2fwv66Wsc-9iDNfM-989" value="&lt;span&gt;m_lodging_facility_category&lt;/span&gt;" style="html=1;overflow=block;blockSpacing=1;whiteSpace=wrap;swimlane;resizeParent=1;resizeParentMax=0;resizeLast=0;collapsible=0;marginBottom=0;fontStyle=0;swimlaneFillColor=#ffffff;startSize=30;whiteSpace=wrap;fontSize=13;fontColor=#000000;fontStyle=3;align=center;fillColor=#e0e0e0;whiteSpace=wrap;spacing=0;strokeColor=#333333;strokeOpacity=100;fillOpacity=100;rounded=1;absoluteArcSize=1;arcSize=7.5;strokeWidth=0.8;" vertex="1" parent="1">
          <mxGeometry x="4350" y="81" width="341.89" height="59" as="geometry" />
        </mxCell>
        <mxCell id="jNWc2fwv66Wsc-9iDNfM-990" value="facility_category_id" style="strokeColor=none;part=1;resizeHeight=0;align=left;verticalAlign=top;spacingLeft=4;spacingRight=4;overflow=hidden;rotatable=0;points=[[0,0.5],[1,0.5]];portConstraint=eastwest;whiteSpace=wrap;swimlaneFillColor=#ffffff;whiteSpace=wrap;fontSize=13;fontColor=#000000;fontStyle=7;fillColor=none;strokeOpacity=100;fillOpacity=100;whiteSpace=wrap;spacing=0;rounded=1;absoluteArcSize=1;arcSize=7.5;strokeWidth=0.8;" vertex="1" parent="jNWc2fwv66Wsc-9iDNfM-989">
          <mxGeometry y="33" width="150" height="24" as="geometry" />
        </mxCell>
        <mxCell id="jNWc2fwv66Wsc-9iDNfM-991" value="MEDIUMINT (PK)" style="shape=partialRectangle;top=0;right=0;bottom=0;part=1;resizeHeight=0;align=left;verticalAlign=top;spacingLeft=4;spacingRight=4;overflow=hidden;rotatable=0;points=[[0,0.5],[1,0.5]];portConstraint=eastwest;whiteSpace=wrap;swimlaneFillColor=#ffffff;whiteSpace=wrap;fontSize=13;fontColor=#000000;fontStyle=7;fillColor=none;strokeOpacity=100;fillOpacity=100;whiteSpace=wrap;spacing=0;strokeColor=#333333;rounded=1;absoluteArcSize=1;arcSize=7.5;strokeWidth=0.8;" vertex="1" parent="jNWc2fwv66Wsc-9iDNfM-989">
          <mxGeometry x="176" y="33" width="126.87" height="24" as="geometry" />
        </mxCell>
        <mxCell id="jNWc2fwv66Wsc-9iDNfM-1010" value="&lt;span&gt;æ½è¨­ã«ãã´ãªãã¹ã¿&lt;/span&gt;" style="rounded=0;whiteSpace=wrap;html=1;fillColor=#dae8fc;strokeColor=#6c8ebf;fontColor=#000000;" vertex="1" parent="1">
          <mxGeometry x="4350" y="50" width="340" height="30" as="geometry" />
        </mxCell>
        <mxCell id="jNWc2fwv66Wsc-9iDNfM-1011" value="&lt;span&gt;bbb&lt;/span&gt;" style="html=1;overflow=block;blockSpacing=1;whiteSpace=wrap;swimlane;resizeParent=1;resizeParentMax=0;resizeLast=0;collapsible=0;marginBottom=0;fontStyle=0;swimlaneFillColor=#ffffff;startSize=30;whiteSpace=wrap;fontSize=13;fontColor=#000000;fontStyle=3;align=center;fillColor=#e0e0e0;whiteSpace=wrap;spacing=0;strokeColor=#333333;strokeOpacity=100;fillOpacity=100;rounded=1;absoluteArcSize=1;arcSize=7.5;strokeWidth=0.8;" vertex="1" parent="1">
          <mxGeometry x="4758" y="81" width="341.89" height="279" as="geometry" />
        </mxCell>
        <mxCell id="jNWc2fwv66Wsc-9iDNfM-1012" value="lorem_ipsum" style="strokeColor=none;part=1;resizeHeight=0;align=left;verticalAlign=top;spacingLeft=4;spacingRight=4;overflow=hidden;rotatable=0;points=[[0,0.5],[1,0.5]];portConstraint=eastwest;whiteSpace=wrap;swimlaneFillColor=#ffffff;whiteSpace=wrap;fontSize=13;fontColor=#000000;fontStyle=7;fillColor=none;strokeOpacity=100;fillOpacity=100;whiteSpace=wrap;spacing=0;rounded=1;absoluteArcSize=1;arcSize=7.5;strokeWidth=0.8;" vertex="1" parent="jNWc2fwv66Wsc-9iDNfM-1011">
          <mxGeometry y="33" width="110" height="24" as="geometry" />
        </mxCell>
        <mxCell id="jNWc2fwv66Wsc-9iDNfM-1013" value="MEDIUMINT (PK)" style="shape=partialRectangle;top=0;right=0;bottom=0;part=1;resizeHeight=0;align=left;verticalAlign=top;spacingLeft=4;spacingRight=4;overflow=hidden;rotatable=0;points=[[0,0.5],[1,0.5]];portConstraint=eastwest;whiteSpace=wrap;swimlaneFillColor=#ffffff;whiteSpace=wrap;fontSize=13;fontColor=#000000;fontStyle=7;fillColor=none;strokeOpacity=100;fillOpacity=100;whiteSpace=wrap;spacing=0;strokeColor=#333333;rounded=1;absoluteArcSize=1;arcSize=7.5;strokeWidth=0.8;" vertex="1" parent="jNWc2fwv66Wsc-9iDNfM-1011">
          <mxGeometry x="176" y="33" width="126.87" height="24" as="geometry" />
        </mxCell>
        <mxCell id="jNWc2fwv66Wsc-9iDNfM-1014" value="lorem_ipsum" style="strokeColor=none;part=1;resizeHeight=0;align=left;verticalAlign=top;spacingLeft=4;spacingRight=4;overflow=hidden;rotatable=0;points=[[0,0.5],[1,0.5]];portConstraint=eastwest;whiteSpace=wrap;swimlaneFillColor=#ffffff;whiteSpace=wrap;fontSize=13;fillColor=none;strokeOpacity=100;fillOpacity=100;whiteSpace=wrap;spacing=0;rounded=1;absoluteArcSize=1;arcSize=7.5;strokeWidth=0.8;fontColor=#000000;container=0;fontStyle=3" vertex="1" parent="jNWc2fwv66Wsc-9iDNfM-1011">
          <mxGeometry y="83" width="146.8914865004655" height="24" as="geometry" />
        </mxCell>
        <mxCell id="jNWc2fwv66Wsc-9iDNfM-1015" value="lorem_ipsum" style="strokeColor=none;part=1;resizeHeight=0;align=left;verticalAlign=top;spacingLeft=4;spacingRight=4;overflow=hidden;rotatable=0;points=[[0,0.5],[1,0.5]];portConstraint=eastwest;whiteSpace=wrap;swimlaneFillColor=#ffffff;whiteSpace=wrap;fontSize=13;fillColor=none;strokeOpacity=100;fillOpacity=100;whiteSpace=wrap;spacing=0;rounded=1;absoluteArcSize=1;arcSize=7.5;strokeWidth=0.8;fontColor=#000000;fontStyle=3;container=0;" vertex="1" parent="jNWc2fwv66Wsc-9iDNfM-1011">
          <mxGeometry y="107" width="146.8914865004655" height="24" as="geometry" />
        </mxCell>
        <mxCell id="jNWc2fwv66Wsc-9iDNfM-1016" value="lorem_ipsum" style="strokeColor=none;part=1;resizeHeight=0;align=left;verticalAlign=top;spacingLeft=4;spacingRight=4;overflow=hidden;rotatable=0;points=[[0,0.5],[1,0.5]];portConstraint=eastwest;whiteSpace=wrap;swimlaneFillColor=#ffffff;whiteSpace=wrap;fontSize=13;fillColor=none;strokeOpacity=100;fillOpacity=100;whiteSpace=wrap;spacing=0;rounded=1;absoluteArcSize=1;arcSize=7.5;strokeWidth=0.8;fontColor=#000000;container=0;" vertex="1" parent="jNWc2fwv66Wsc-9iDNfM-1011">
          <mxGeometry y="129" width="146.8914865004655" height="24" as="geometry" />
        </mxCell>
        <mxCell id="jNWc2fwv66Wsc-9iDNfM-1017" value="lorem_ipsum" style="strokeColor=none;part=1;resizeHeight=0;align=left;verticalAlign=top;spacingLeft=4;spacingRight=4;overflow=hidden;rotatable=0;points=[[0,0.5],[1,0.5]];portConstraint=eastwest;whiteSpace=wrap;swimlaneFillColor=#ffffff;whiteSpace=wrap;fontSize=13;fillColor=none;strokeOpacity=100;fillOpacity=100;whiteSpace=wrap;spacing=0;rounded=1;absoluteArcSize=1;arcSize=7.5;strokeWidth=0.8;fontColor=#000000;container=0;" vertex="1" parent="jNWc2fwv66Wsc-9iDNfM-1011">
          <mxGeometry y="152" width="146.8914865004655" height="24" as="geometry" />
        </mxCell>
        <mxCell id="jNWc2fwv66Wsc-9iDNfM-1018" value="lorem_ipsum" style="strokeColor=none;part=1;resizeHeight=0;align=left;verticalAlign=top;spacingLeft=4;spacingRight=4;overflow=hidden;rotatable=0;points=[[0,0.5],[1,0.5]];portConstraint=eastwest;whiteSpace=wrap;swimlaneFillColor=#ffffff;whiteSpace=wrap;fontSize=13;fontColor=#000000;fillColor=none;strokeOpacity=100;fillOpacity=100;whiteSpace=wrap;spacing=0;rounded=1;absoluteArcSize=1;arcSize=7.5;strokeWidth=0.8;container=0;" vertex="1" parent="jNWc2fwv66Wsc-9iDNfM-1011">
          <mxGeometry y="177" width="146.8914865004655" height="24" as="geometry" />
        </mxCell>
        <mxCell id="jNWc2fwv66Wsc-9iDNfM-1019" value="lorem_ipsum" style="strokeColor=none;part=1;resizeHeight=0;align=left;verticalAlign=top;spacingLeft=4;spacingRight=4;overflow=hidden;rotatable=0;points=[[0,0.5],[1,0.5]];portConstraint=eastwest;whiteSpace=wrap;swimlaneFillColor=#ffffff;whiteSpace=wrap;fontSize=13;fontColor=#000000;fillColor=none;strokeOpacity=100;fillOpacity=100;whiteSpace=wrap;spacing=0;rounded=1;absoluteArcSize=1;arcSize=7.5;strokeWidth=0.8;container=0;" vertex="1" parent="jNWc2fwv66Wsc-9iDNfM-1011">
          <mxGeometry y="201" width="146.8914865004655" height="24" as="geometry" />
        </mxCell>
        <mxCell id="jNWc2fwv66Wsc-9iDNfM-1020" value="lorem_ipsum" style="strokeColor=none;part=1;resizeHeight=0;align=left;verticalAlign=top;spacingLeft=4;spacingRight=4;overflow=hidden;rotatable=0;points=[[0,0.5],[1,0.5]];portConstraint=eastwest;whiteSpace=wrap;swimlaneFillColor=#ffffff;whiteSpace=wrap;fontSize=13;fontColor=#000000;fillColor=none;strokeOpacity=100;fillOpacity=100;whiteSpace=wrap;spacing=0;rounded=1;absoluteArcSize=1;arcSize=7.5;strokeWidth=0.8;container=0;" vertex="1" parent="jNWc2fwv66Wsc-9iDNfM-1011">
          <mxGeometry y="225" width="146.8914865004655" height="24" as="geometry" />
        </mxCell>
        <mxCell id="jNWc2fwv66Wsc-9iDNfM-1021" value="lorem_ipsum" style="strokeColor=none;part=1;resizeHeight=0;align=left;verticalAlign=top;spacingLeft=4;spacingRight=4;overflow=hidden;rotatable=0;points=[[0,0.5],[1,0.5]];portConstraint=eastwest;whiteSpace=wrap;swimlaneFillColor=#ffffff;whiteSpace=wrap;fontSize=13;fillColor=none;strokeOpacity=100;fillOpacity=100;whiteSpace=wrap;spacing=0;rounded=1;absoluteArcSize=1;arcSize=7.5;strokeWidth=0.8;fontColor=#000000;container=0;" vertex="1" parent="jNWc2fwv66Wsc-9iDNfM-1011">
          <mxGeometry y="253" width="146.8914865004655" height="24" as="geometry" />
        </mxCell>
        <mxCell id="jNWc2fwv66Wsc-9iDNfM-1022" value="lorem_ipsum" style="strokeColor=none;part=1;resizeHeight=0;align=left;verticalAlign=top;spacingLeft=4;spacingRight=4;overflow=hidden;rotatable=0;points=[[0,0.5],[1,0.5]];portConstraint=eastwest;whiteSpace=wrap;swimlaneFillColor=#ffffff;whiteSpace=wrap;fontSize=13;fontColor=#000000;fontStyle=3;fillColor=none;strokeOpacity=100;fillOpacity=100;whiteSpace=wrap;spacing=0;rounded=1;absoluteArcSize=1;arcSize=7.5;strokeWidth=0.8;container=0;" vertex="1" parent="jNWc2fwv66Wsc-9iDNfM-1011">
          <mxGeometry y="60" width="121.37512499568982" height="24" as="geometry" />
        </mxCell>
        <mxCell id="jNWc2fwv66Wsc-9iDNfM-1023" value="MEDIUMINT (FK)" style="shape=partialRectangle;top=0;right=0;bottom=0;part=1;resizeHeight=0;align=left;verticalAlign=top;spacingLeft=4;spacingRight=4;overflow=hidden;rotatable=0;points=[[0,0.5],[1,0.5]];portConstraint=eastwest;whiteSpace=wrap;swimlaneFillColor=#ffffff;whiteSpace=wrap;fontSize=13;fillColor=none;strokeOpacity=100;fillOpacity=100;whiteSpace=wrap;spacing=0;strokeColor=#333333;rounded=1;absoluteArcSize=1;arcSize=7.5;strokeWidth=0.8;fontColor=#000000;container=0;fontStyle=3" vertex="1" parent="jNWc2fwv66Wsc-9iDNfM-1011">
          <mxGeometry x="176.55" y="83" width="113.45" height="24" as="geometry" />
        </mxCell>
        <mxCell id="jNWc2fwv66Wsc-9iDNfM-1024" value="MEDIUMINT (FK)" style="shape=partialRectangle;top=0;right=0;bottom=0;part=1;resizeHeight=0;align=left;verticalAlign=top;spacingLeft=4;spacingRight=4;overflow=hidden;rotatable=0;points=[[0,0.5],[1,0.5]];portConstraint=eastwest;whiteSpace=wrap;swimlaneFillColor=#ffffff;whiteSpace=wrap;fontSize=13;fillColor=none;strokeOpacity=100;fillOpacity=100;whiteSpace=wrap;spacing=0;strokeColor=#333333;rounded=1;absoluteArcSize=1;arcSize=7.5;strokeWidth=0.8;fontColor=#000000;container=0;fontStyle=3" vertex="1" parent="jNWc2fwv66Wsc-9iDNfM-1011">
          <mxGeometry x="176.55667045963932" y="107" width="143.44332954036068" height="24" as="geometry" />
        </mxCell>
        <mxCell id="jNWc2fwv66Wsc-9iDNfM-1025" value="lorem_ipsum" style="shape=partialRectangle;top=0;right=0;bottom=0;part=1;resizeHeight=0;align=left;verticalAlign=top;spacingLeft=4;spacingRight=4;overflow=hidden;rotatable=0;points=[[0,0.5],[1,0.5]];portConstraint=eastwest;whiteSpace=wrap;swimlaneFillColor=#ffffff;whiteSpace=wrap;fontSize=13;fillColor=none;strokeOpacity=100;fillOpacity=100;whiteSpace=wrap;spacing=0;strokeColor=#333333;rounded=1;absoluteArcSize=1;arcSize=7.5;strokeWidth=0.8;fontColor=#000000;container=0;" vertex="1" parent="jNWc2fwv66Wsc-9iDNfM-1011">
          <mxGeometry x="176.55115340850315" y="131" width="75.99737940071033" height="24" as="geometry" />
        </mxCell>
        <mxCell id="jNWc2fwv66Wsc-9iDNfM-1026" value="lorem_ipsum" style="shape=partialRectangle;top=0;right=0;bottom=0;part=1;resizeHeight=0;align=left;verticalAlign=top;spacingLeft=4;spacingRight=4;overflow=hidden;rotatable=0;points=[[0,0.5],[1,0.5]];portConstraint=eastwest;whiteSpace=wrap;swimlaneFillColor=#ffffff;whiteSpace=wrap;fontSize=13;fillColor=none;strokeOpacity=100;fillOpacity=100;whiteSpace=wrap;spacing=0;strokeColor=#333333;rounded=1;absoluteArcSize=1;arcSize=7.5;strokeWidth=0.8;fontColor=#000000;container=0;" vertex="1" parent="jNWc2fwv66Wsc-9iDNfM-1011">
          <mxGeometry x="176.55115340850315" y="155" width="75.99737940071033" height="24" as="geometry" />
        </mxCell>
        <mxCell id="jNWc2fwv66Wsc-9iDNfM-1027" value="lorem_ipsum" style="shape=partialRectangle;top=0;right=0;bottom=0;part=1;resizeHeight=0;align=left;verticalAlign=top;spacingLeft=4;spacingRight=4;overflow=hidden;rotatable=0;points=[[0,0.5],[1,0.5]];portConstraint=eastwest;whiteSpace=wrap;swimlaneFillColor=#ffffff;whiteSpace=wrap;fontSize=13;fontColor=#000000;fillColor=none;strokeOpacity=100;fillOpacity=100;whiteSpace=wrap;spacing=0;strokeColor=#333333;rounded=1;absoluteArcSize=1;arcSize=7.5;strokeWidth=0.8;container=0;" vertex="1" parent="jNWc2fwv66Wsc-9iDNfM-1011">
          <mxGeometry x="176.55115340850315" y="179" width="75.99737940071033" height="24" as="geometry" />
        </mxCell>
        <mxCell id="jNWc2fwv66Wsc-9iDNfM-1028" value="lorem_ipsum" style="shape=partialRectangle;top=0;right=0;bottom=0;part=1;resizeHeight=0;align=left;verticalAlign=top;spacingLeft=4;spacingRight=4;overflow=hidden;rotatable=0;points=[[0,0.5],[1,0.5]];portConstraint=eastwest;whiteSpace=wrap;swimlaneFillColor=#ffffff;whiteSpace=wrap;fontSize=13;fontColor=#000000;fillColor=none;strokeOpacity=100;fillOpacity=100;whiteSpace=wrap;spacing=0;strokeColor=#333333;rounded=1;absoluteArcSize=1;arcSize=7.5;strokeWidth=0.8;container=0;" vertex="1" parent="jNWc2fwv66Wsc-9iDNfM-1011">
          <mxGeometry x="176.55115340850315" y="203" width="75.99737940071033" height="24" as="geometry" />
        </mxCell>
        <mxCell id="jNWc2fwv66Wsc-9iDNfM-1029" value="lorem_ipsum" style="shape=partialRectangle;top=0;right=0;bottom=0;part=1;resizeHeight=0;align=left;verticalAlign=top;spacingLeft=4;spacingRight=4;overflow=hidden;rotatable=0;points=[[0,0.5],[1,0.5]];portConstraint=eastwest;whiteSpace=wrap;swimlaneFillColor=#ffffff;whiteSpace=wrap;fontSize=13;fontColor=#000000;fillColor=none;strokeOpacity=100;fillOpacity=100;whiteSpace=wrap;spacing=0;strokeColor=#333333;rounded=1;absoluteArcSize=1;arcSize=7.5;strokeWidth=0.8;container=0;" vertex="1" parent="jNWc2fwv66Wsc-9iDNfM-1011">
          <mxGeometry x="176.55115340850315" y="227" width="75.99737940071033" height="24" as="geometry" />
        </mxCell>
        <mxCell id="jNWc2fwv66Wsc-9iDNfM-1030" value="lorem_ipsum" style="shape=partialRectangle;top=0;right=0;bottom=0;part=1;resizeHeight=0;align=left;verticalAlign=top;spacingLeft=4;spacingRight=4;overflow=hidden;rotatable=0;points=[[0,0.5],[1,0.5]];portConstraint=eastwest;whiteSpace=wrap;swimlaneFillColor=#ffffff;whiteSpace=wrap;fontSize=13;fillColor=none;strokeOpacity=100;fillOpacity=100;whiteSpace=wrap;spacing=0;strokeColor=#333333;rounded=1;absoluteArcSize=1;arcSize=7.5;strokeWidth=0.8;fontColor=#000000;container=0;" vertex="1" parent="jNWc2fwv66Wsc-9iDNfM-1011">
          <mxGeometry x="176.55115340850315" y="251" width="75.99737940071033" height="24" as="geometry" />
        </mxCell>
        <mxCell id="jNWc2fwv66Wsc-9iDNfM-1031" value="MEDIUMINT (FK)" style="shape=partialRectangle;top=0;right=0;bottom=0;part=1;resizeHeight=0;align=left;verticalAlign=top;spacingLeft=4;spacingRight=4;overflow=hidden;rotatable=0;points=[[0,0.5],[1,0.5]];portConstraint=eastwest;whiteSpace=wrap;swimlaneFillColor=#ffffff;whiteSpace=wrap;fontSize=13;fontColor=#000000;fontStyle=3;fillColor=none;strokeOpacity=100;fillOpacity=100;whiteSpace=wrap;spacing=0;strokeColor=#333333;rounded=1;absoluteArcSize=1;arcSize=7.5;strokeWidth=0.8;container=0;" vertex="1" parent="jNWc2fwv66Wsc-9iDNfM-1011">
          <mxGeometry x="176.55667045963932" y="60" width="128.9665873590566" height="24" as="geometry" />
        </mxCell>
        <mxCell id="jNWc2fwv66Wsc-9iDNfM-1032" value="&lt;span&gt;aaa&lt;/span&gt;" style="rounded=0;whiteSpace=wrap;html=1;fillColor=#dae8fc;strokeColor=#6c8ebf;fontColor=#000000;" vertex="1" parent="1">
          <mxGeometry x="4758" y="50" width="340" height="30" as="geometry" />
        </mxCell>
        <mxCell id="jNWc2fwv66Wsc-9iDNfM-1033" value="&lt;span&gt;bbb&lt;/span&gt;" style="html=1;overflow=block;blockSpacing=1;whiteSpace=wrap;swimlane;resizeParent=1;resizeParentMax=0;resizeLast=0;collapsible=0;marginBottom=0;fontStyle=0;swimlaneFillColor=#ffffff;startSize=30;whiteSpace=wrap;fontSize=13;fontColor=#000000;fontStyle=3;align=center;fillColor=#e0e0e0;whiteSpace=wrap;spacing=0;strokeColor=#333333;strokeOpacity=100;fillOpacity=100;rounded=1;absoluteArcSize=1;arcSize=7.5;strokeWidth=0.8;" vertex="1" parent="1">
          <mxGeometry x="4756.11" y="501" width="341.89" height="279" as="geometry" />
        </mxCell>
        <mxCell id="jNWc2fwv66Wsc-9iDNfM-1034" value="lorem_ipsum" style="strokeColor=none;part=1;resizeHeight=0;align=left;verticalAlign=top;spacingLeft=4;spacingRight=4;overflow=hidden;rotatable=0;points=[[0,0.5],[1,0.5]];portConstraint=eastwest;whiteSpace=wrap;swimlaneFillColor=#ffffff;whiteSpace=wrap;fontSize=13;fontColor=#000000;fontStyle=7;fillColor=none;strokeOpacity=100;fillOpacity=100;whiteSpace=wrap;spacing=0;rounded=1;absoluteArcSize=1;arcSize=7.5;strokeWidth=0.8;" vertex="1" parent="jNWc2fwv66Wsc-9iDNfM-1033">
          <mxGeometry y="33" width="110" height="24" as="geometry" />
        </mxCell>
        <mxCell id="jNWc2fwv66Wsc-9iDNfM-1035" value="MEDIUMINT (PK)" style="shape=partialRectangle;top=0;right=0;bottom=0;part=1;resizeHeight=0;align=left;verticalAlign=top;spacingLeft=4;spacingRight=4;overflow=hidden;rotatable=0;points=[[0,0.5],[1,0.5]];portConstraint=eastwest;whiteSpace=wrap;swimlaneFillColor=#ffffff;whiteSpace=wrap;fontSize=13;fontColor=#000000;fontStyle=7;fillColor=none;strokeOpacity=100;fillOpacity=100;whiteSpace=wrap;spacing=0;strokeColor=#333333;rounded=1;absoluteArcSize=1;arcSize=7.5;strokeWidth=0.8;" vertex="1" parent="jNWc2fwv66Wsc-9iDNfM-1033">
          <mxGeometry x="176" y="33" width="126.87" height="24" as="geometry" />
        </mxCell>
        <mxCell id="jNWc2fwv66Wsc-9iDNfM-1036" value="lorem_ipsum" style="strokeColor=none;part=1;resizeHeight=0;align=left;verticalAlign=top;spacingLeft=4;spacingRight=4;overflow=hidden;rotatable=0;points=[[0,0.5],[1,0.5]];portConstraint=eastwest;whiteSpace=wrap;swimlaneFillColor=#ffffff;whiteSpace=wrap;fontSize=13;fillColor=none;strokeOpacity=100;fillOpacity=100;whiteSpace=wrap;spacing=0;rounded=1;absoluteArcSize=1;arcSize=7.5;strokeWidth=0.8;fontColor=#000000;container=0;fontStyle=3" vertex="1" parent="jNWc2fwv66Wsc-9iDNfM-1033">
          <mxGeometry y="83" width="146.8914865004655" height="24" as="geometry" />
        </mxCell>
        <mxCell id="jNWc2fwv66Wsc-9iDNfM-1037" value="lorem_ipsum" style="strokeColor=none;part=1;resizeHeight=0;align=left;verticalAlign=top;spacingLeft=4;spacingRight=4;overflow=hidden;rotatable=0;points=[[0,0.5],[1,0.5]];portConstraint=eastwest;whiteSpace=wrap;swimlaneFillColor=#ffffff;whiteSpace=wrap;fontSize=13;fillColor=none;strokeOpacity=100;fillOpacity=100;whiteSpace=wrap;spacing=0;rounded=1;absoluteArcSize=1;arcSize=7.5;strokeWidth=0.8;fontColor=#000000;fontStyle=3;container=0;" vertex="1" parent="jNWc2fwv66Wsc-9iDNfM-1033">
          <mxGeometry y="107" width="146.8914865004655" height="24" as="geometry" />
        </mxCell>
        <mxCell id="jNWc2fwv66Wsc-9iDNfM-1038" value="lorem_ipsum" style="strokeColor=none;part=1;resizeHeight=0;align=left;verticalAlign=top;spacingLeft=4;spacingRight=4;overflow=hidden;rotatable=0;points=[[0,0.5],[1,0.5]];portConstraint=eastwest;whiteSpace=wrap;swimlaneFillColor=#ffffff;whiteSpace=wrap;fontSize=13;fillColor=none;strokeOpacity=100;fillOpacity=100;whiteSpace=wrap;spacing=0;rounded=1;absoluteArcSize=1;arcSize=7.5;strokeWidth=0.8;fontColor=#000000;container=0;" vertex="1" parent="jNWc2fwv66Wsc-9iDNfM-1033">
          <mxGeometry y="129" width="146.8914865004655" height="24" as="geometry" />
        </mxCell>
        <mxCell id="jNWc2fwv66Wsc-9iDNfM-1039" value="lorem_ipsum" style="strokeColor=none;part=1;resizeHeight=0;align=left;verticalAlign=top;spacingLeft=4;spacingRight=4;overflow=hidden;rotatable=0;points=[[0,0.5],[1,0.5]];portConstraint=eastwest;whiteSpace=wrap;swimlaneFillColor=#ffffff;whiteSpace=wrap;fontSize=13;fillColor=none;strokeOpacity=100;fillOpacity=100;whiteSpace=wrap;spacing=0;rounded=1;absoluteArcSize=1;arcSize=7.5;strokeWidth=0.8;fontColor=#000000;container=0;" vertex="1" parent="jNWc2fwv66Wsc-9iDNfM-1033">
          <mxGeometry y="152" width="146.8914865004655" height="24" as="geometry" />
        </mxCell>
        <mxCell id="jNWc2fwv66Wsc-9iDNfM-1040" value="lorem_ipsum" style="strokeColor=none;part=1;resizeHeight=0;align=left;verticalAlign=top;spacingLeft=4;spacingRight=4;overflow=hidden;rotatable=0;points=[[0,0.5],[1,0.5]];portConstraint=eastwest;whiteSpace=wrap;swimlaneFillColor=#ffffff;whiteSpace=wrap;fontSize=13;fontColor=#000000;fillColor=none;strokeOpacity=100;fillOpacity=100;whiteSpace=wrap;spacing=0;rounded=1;absoluteArcSize=1;arcSize=7.5;strokeWidth=0.8;container=0;" vertex="1" parent="jNWc2fwv66Wsc-9iDNfM-1033">
          <mxGeometry y="177" width="146.8914865004655" height="24" as="geometry" />
        </mxCell>
        <mxCell id="jNWc2fwv66Wsc-9iDNfM-1041" value="lorem_ipsum" style="strokeColor=none;part=1;resizeHeight=0;align=left;verticalAlign=top;spacingLeft=4;spacingRight=4;overflow=hidden;rotatable=0;points=[[0,0.5],[1,0.5]];portConstraint=eastwest;whiteSpace=wrap;swimlaneFillColor=#ffffff;whiteSpace=wrap;fontSize=13;fontColor=#000000;fillColor=none;strokeOpacity=100;fillOpacity=100;whiteSpace=wrap;spacing=0;rounded=1;absoluteArcSize=1;arcSize=7.5;strokeWidth=0.8;container=0;" vertex="1" parent="jNWc2fwv66Wsc-9iDNfM-1033">
          <mxGeometry y="201" width="146.8914865004655" height="24" as="geometry" />
        </mxCell>
        <mxCell id="jNWc2fwv66Wsc-9iDNfM-1042" value="lorem_ipsum" style="strokeColor=none;part=1;resizeHeight=0;align=left;verticalAlign=top;spacingLeft=4;spacingRight=4;overflow=hidden;rotatable=0;points=[[0,0.5],[1,0.5]];portConstraint=eastwest;whiteSpace=wrap;swimlaneFillColor=#ffffff;whiteSpace=wrap;fontSize=13;fontColor=#000000;fillColor=none;strokeOpacity=100;fillOpacity=100;whiteSpace=wrap;spacing=0;rounded=1;absoluteArcSize=1;arcSize=7.5;strokeWidth=0.8;container=0;" vertex="1" parent="jNWc2fwv66Wsc-9iDNfM-1033">
          <mxGeometry y="225" width="146.8914865004655" height="24" as="geometry" />
        </mxCell>
        <mxCell id="jNWc2fwv66Wsc-9iDNfM-1043" value="lorem_ipsum" style="strokeColor=none;part=1;resizeHeight=0;align=left;verticalAlign=top;spacingLeft=4;spacingRight=4;overflow=hidden;rotatable=0;points=[[0,0.5],[1,0.5]];portConstraint=eastwest;whiteSpace=wrap;swimlaneFillColor=#ffffff;whiteSpace=wrap;fontSize=13;fillColor=none;strokeOpacity=100;fillOpacity=100;whiteSpace=wrap;spacing=0;rounded=1;absoluteArcSize=1;arcSize=7.5;strokeWidth=0.8;fontColor=#000000;container=0;" vertex="1" parent="jNWc2fwv66Wsc-9iDNfM-1033">
          <mxGeometry y="253" width="146.8914865004655" height="24" as="geometry" />
        </mxCell>
        <mxCell id="jNWc2fwv66Wsc-9iDNfM-1044" value="lorem_ipsum" style="strokeColor=none;part=1;resizeHeight=0;align=left;verticalAlign=top;spacingLeft=4;spacingRight=4;overflow=hidden;rotatable=0;points=[[0,0.5],[1,0.5]];portConstraint=eastwest;whiteSpace=wrap;swimlaneFillColor=#ffffff;whiteSpace=wrap;fontSize=13;fontColor=#000000;fontStyle=3;fillColor=none;strokeOpacity=100;fillOpacity=100;whiteSpace=wrap;spacing=0;rounded=1;absoluteArcSize=1;arcSize=7.5;strokeWidth=0.8;container=0;" vertex="1" parent="jNWc2fwv66Wsc-9iDNfM-1033">
          <mxGeometry y="60" width="121.37512499568982" height="24" as="geometry" />
        </mxCell>
        <mxCell id="jNWc2fwv66Wsc-9iDNfM-1045" value="MEDIUMINT (FK)" style="shape=partialRectangle;top=0;right=0;bottom=0;part=1;resizeHeight=0;align=left;verticalAlign=top;spacingLeft=4;spacingRight=4;overflow=hidden;rotatable=0;points=[[0,0.5],[1,0.5]];portConstraint=eastwest;whiteSpace=wrap;swimlaneFillColor=#ffffff;whiteSpace=wrap;fontSize=13;fillColor=none;strokeOpacity=100;fillOpacity=100;whiteSpace=wrap;spacing=0;strokeColor=#333333;rounded=1;absoluteArcSize=1;arcSize=7.5;strokeWidth=0.8;fontColor=#000000;container=0;fontStyle=3" vertex="1" parent="jNWc2fwv66Wsc-9iDNfM-1033">
          <mxGeometry x="176.55" y="83" width="113.45" height="24" as="geometry" />
        </mxCell>
        <mxCell id="jNWc2fwv66Wsc-9iDNfM-1046" value="MEDIUMINT (FK)" style="shape=partialRectangle;top=0;right=0;bottom=0;part=1;resizeHeight=0;align=left;verticalAlign=top;spacingLeft=4;spacingRight=4;overflow=hidden;rotatable=0;points=[[0,0.5],[1,0.5]];portConstraint=eastwest;whiteSpace=wrap;swimlaneFillColor=#ffffff;whiteSpace=wrap;fontSize=13;fillColor=none;strokeOpacity=100;fillOpacity=100;whiteSpace=wrap;spacing=0;strokeColor=#333333;rounded=1;absoluteArcSize=1;arcSize=7.5;strokeWidth=0.8;fontColor=#000000;container=0;fontStyle=3" vertex="1" parent="jNWc2fwv66Wsc-9iDNfM-1033">
          <mxGeometry x="176.55667045963932" y="107" width="143.44332954036068" height="24" as="geometry" />
        </mxCell>
        <mxCell id="jNWc2fwv66Wsc-9iDNfM-1047" value="lorem_ipsum" style="shape=partialRectangle;top=0;right=0;bottom=0;part=1;resizeHeight=0;align=left;verticalAlign=top;spacingLeft=4;spacingRight=4;overflow=hidden;rotatable=0;points=[[0,0.5],[1,0.5]];portConstraint=eastwest;whiteSpace=wrap;swimlaneFillColor=#ffffff;whiteSpace=wrap;fontSize=13;fillColor=none;strokeOpacity=100;fillOpacity=100;whiteSpace=wrap;spacing=0;strokeColor=#333333;rounded=1;absoluteArcSize=1;arcSize=7.5;strokeWidth=0.8;fontColor=#000000;container=0;" vertex="1" parent="jNWc2fwv66Wsc-9iDNfM-1033">
          <mxGeometry x="176.55115340850315" y="131" width="75.99737940071033" height="24" as="geometry" />
        </mxCell>
        <mxCell id="jNWc2fwv66Wsc-9iDNfM-1048" value="lorem_ipsum" style="shape=partialRectangle;top=0;right=0;bottom=0;part=1;resizeHeight=0;align=left;verticalAlign=top;spacingLeft=4;spacingRight=4;overflow=hidden;rotatable=0;points=[[0,0.5],[1,0.5]];portConstraint=eastwest;whiteSpace=wrap;swimlaneFillColor=#ffffff;whiteSpace=wrap;fontSize=13;fillColor=none;strokeOpacity=100;fillOpacity=100;whiteSpace=wrap;spacing=0;strokeColor=#333333;rounded=1;absoluteArcSize=1;arcSize=7.5;strokeWidth=0.8;fontColor=#000000;container=0;" vertex="1" parent="jNWc2fwv66Wsc-9iDNfM-1033">
          <mxGeometry x="176.55115340850315" y="155" width="75.99737940071033" height="24" as="geometry" />
        </mxCell>
        <mxCell id="jNWc2fwv66Wsc-9iDNfM-1049" value="lorem_ipsum" style="shape=partialRectangle;top=0;right=0;bottom=0;part=1;resizeHeight=0;align=left;verticalAlign=top;spacingLeft=4;spacingRight=4;overflow=hidden;rotatable=0;points=[[0,0.5],[1,0.5]];portConstraint=eastwest;whiteSpace=wrap;swimlaneFillColor=#ffffff;whiteSpace=wrap;fontSize=13;fontColor=#000000;fillColor=none;strokeOpacity=100;fillOpacity=100;whiteSpace=wrap;spacing=0;strokeColor=#333333;rounded=1;absoluteArcSize=1;arcSize=7.5;strokeWidth=0.8;container=0;" vertex="1" parent="jNWc2fwv66Wsc-9iDNfM-1033">
          <mxGeometry x="176.55115340850315" y="179" width="75.99737940071033" height="24" as="geometry" />
        </mxCell>
        <mxCell id="jNWc2fwv66Wsc-9iDNfM-1050" value="lorem_ipsum" style="shape=partialRectangle;top=0;right=0;bottom=0;part=1;resizeHeight=0;align=left;verticalAlign=top;spacingLeft=4;spacingRight=4;overflow=hidden;rotatable=0;points=[[0,0.5],[1,0.5]];portConstraint=eastwest;whiteSpace=wrap;swimlaneFillColor=#ffffff;whiteSpace=wrap;fontSize=13;fontColor=#000000;fillColor=none;strokeOpacity=100;fillOpacity=100;whiteSpace=wrap;spacing=0;strokeColor=#333333;rounded=1;absoluteArcSize=1;arcSize=7.5;strokeWidth=0.8;container=0;" vertex="1" parent="jNWc2fwv66Wsc-9iDNfM-1033">
          <mxGeometry x="176.55115340850315" y="203" width="75.99737940071033" height="24" as="geometry" />
        </mxCell>
        <mxCell id="jNWc2fwv66Wsc-9iDNfM-1051" value="lorem_ipsum" style="shape=partialRectangle;top=0;right=0;bottom=0;part=1;resizeHeight=0;align=left;verticalAlign=top;spacingLeft=4;spacingRight=4;overflow=hidden;rotatable=0;points=[[0,0.5],[1,0.5]];portConstraint=eastwest;whiteSpace=wrap;swimlaneFillColor=#ffffff;whiteSpace=wrap;fontSize=13;fontColor=#000000;fillColor=none;strokeOpacity=100;fillOpacity=100;whiteSpace=wrap;spacing=0;strokeColor=#333333;rounded=1;absoluteArcSize=1;arcSize=7.5;strokeWidth=0.8;container=0;" vertex="1" parent="jNWc2fwv66Wsc-9iDNfM-1033">
          <mxGeometry x="176.55115340850315" y="227" width="75.99737940071033" height="24" as="geometry" />
        </mxCell>
        <mxCell id="jNWc2fwv66Wsc-9iDNfM-1052" value="lorem_ipsum" style="shape=partialRectangle;top=0;right=0;bottom=0;part=1;resizeHeight=0;align=left;verticalAlign=top;spacingLeft=4;spacingRight=4;overflow=hidden;rotatable=0;points=[[0,0.5],[1,0.5]];portConstraint=eastwest;whiteSpace=wrap;swimlaneFillColor=#ffffff;whiteSpace=wrap;fontSize=13;fillColor=none;strokeOpacity=100;fillOpacity=100;whiteSpace=wrap;spacing=0;strokeColor=#333333;rounded=1;absoluteArcSize=1;arcSize=7.5;strokeWidth=0.8;fontColor=#000000;container=0;" vertex="1" parent="jNWc2fwv66Wsc-9iDNfM-1033">
          <mxGeometry x="176.55115340850315" y="251" width="75.99737940071033" height="24" as="geometry" />
        </mxCell>
        <mxCell id="jNWc2fwv66Wsc-9iDNfM-1053" value="MEDIUMINT (FK)" style="shape=partialRectangle;top=0;right=0;bottom=0;part=1;resizeHeight=0;align=left;verticalAlign=top;spacingLeft=4;spacingRight=4;overflow=hidden;rotatable=0;points=[[0,0.5],[1,0.5]];portConstraint=eastwest;whiteSpace=wrap;swimlaneFillColor=#ffffff;whiteSpace=wrap;fontSize=13;fontColor=#000000;fontStyle=3;fillColor=none;strokeOpacity=100;fillOpacity=100;whiteSpace=wrap;spacing=0;strokeColor=#333333;rounded=1;absoluteArcSize=1;arcSize=7.5;strokeWidth=0.8;container=0;" vertex="1" parent="jNWc2fwv66Wsc-9iDNfM-1033">
          <mxGeometry x="176.55667045963932" y="60" width="128.9665873590566" height="24" as="geometry" />
        </mxCell>
        <mxCell id="jNWc2fwv66Wsc-9iDNfM-1054" value="&lt;span&gt;aaa&lt;/span&gt;" style="rounded=0;whiteSpace=wrap;html=1;fillColor=#dae8fc;strokeColor=#6c8ebf;fontColor=#000000;" vertex="1" parent="1">
          <mxGeometry x="4756.11" y="470" width="340" height="30" as="geometry" />
        </mxCell>
        <mxCell id="jNWc2fwv66Wsc-9iDNfM-1055" value="&lt;span&gt;bbb&lt;/span&gt;" style="html=1;overflow=block;blockSpacing=1;whiteSpace=wrap;swimlane;resizeParent=1;resizeParentMax=0;resizeLast=0;collapsible=0;marginBottom=0;fontStyle=0;swimlaneFillColor=#ffffff;startSize=30;whiteSpace=wrap;fontSize=13;fontColor=#000000;fontStyle=3;align=center;fillColor=#e0e0e0;whiteSpace=wrap;spacing=0;strokeColor=#333333;strokeOpacity=100;fillOpacity=100;rounded=1;absoluteArcSize=1;arcSize=7.5;strokeWidth=0.8;" vertex="1" parent="1">
          <mxGeometry x="4333" y="501" width="341.89" height="279" as="geometry" />
        </mxCell>
        <mxCell id="jNWc2fwv66Wsc-9iDNfM-1056" value="lorem_ipsum" style="strokeColor=none;part=1;resizeHeight=0;align=left;verticalAlign=top;spacingLeft=4;spacingRight=4;overflow=hidden;rotatable=0;points=[[0,0.5],[1,0.5]];portConstraint=eastwest;whiteSpace=wrap;swimlaneFillColor=#ffffff;whiteSpace=wrap;fontSize=13;fontColor=#000000;fontStyle=7;fillColor=none;strokeOpacity=100;fillOpacity=100;whiteSpace=wrap;spacing=0;rounded=1;absoluteArcSize=1;arcSize=7.5;strokeWidth=0.8;" vertex="1" parent="jNWc2fwv66Wsc-9iDNfM-1055">
          <mxGeometry y="33" width="110" height="24" as="geometry" />
        </mxCell>
        <mxCell id="jNWc2fwv66Wsc-9iDNfM-1057" value="MEDIUMINT (PK)" style="shape=partialRectangle;top=0;right=0;bottom=0;part=1;resizeHeight=0;align=left;verticalAlign=top;spacingLeft=4;spacingRight=4;overflow=hidden;rotatable=0;points=[[0,0.5],[1,0.5]];portConstraint=eastwest;whiteSpace=wrap;swimlaneFillColor=#ffffff;whiteSpace=wrap;fontSize=13;fontColor=#000000;fontStyle=7;fillColor=none;strokeOpacity=100;fillOpacity=100;whiteSpace=wrap;spacing=0;strokeColor=#333333;rounded=1;absoluteArcSize=1;arcSize=7.5;strokeWidth=0.8;" vertex="1" parent="jNWc2fwv66Wsc-9iDNfM-1055">
          <mxGeometry x="176" y="33" width="126.87" height="24" as="geometry" />
        </mxCell>
        <mxCell id="jNWc2fwv66Wsc-9iDNfM-1058" value="lorem_ipsum" style="strokeColor=none;part=1;resizeHeight=0;align=left;verticalAlign=top;spacingLeft=4;spacingRight=4;overflow=hidden;rotatable=0;points=[[0,0.5],[1,0.5]];portConstraint=eastwest;whiteSpace=wrap;swimlaneFillColor=#ffffff;whiteSpace=wrap;fontSize=13;fillColor=none;strokeOpacity=100;fillOpacity=100;whiteSpace=wrap;spacing=0;rounded=1;absoluteArcSize=1;arcSize=7.5;strokeWidth=0.8;fontColor=#000000;container=0;fontStyle=3" vertex="1" parent="jNWc2fwv66Wsc-9iDNfM-1055">
          <mxGeometry y="83" width="146.8914865004655" height="24" as="geometry" />
        </mxCell>
        <mxCell id="jNWc2fwv66Wsc-9iDNfM-1059" value="lorem_ipsum" style="strokeColor=none;part=1;resizeHeight=0;align=left;verticalAlign=top;spacingLeft=4;spacingRight=4;overflow=hidden;rotatable=0;points=[[0,0.5],[1,0.5]];portConstraint=eastwest;whiteSpace=wrap;swimlaneFillColor=#ffffff;whiteSpace=wrap;fontSize=13;fillColor=none;strokeOpacity=100;fillOpacity=100;whiteSpace=wrap;spacing=0;rounded=1;absoluteArcSize=1;arcSize=7.5;strokeWidth=0.8;fontColor=#000000;fontStyle=3;container=0;" vertex="1" parent="jNWc2fwv66Wsc-9iDNfM-1055">
          <mxGeometry y="107" width="146.8914865004655" height="24" as="geometry" />
        </mxCell>
        <mxCell id="jNWc2fwv66Wsc-9iDNfM-1060" value="lorem_ipsum" style="strokeColor=none;part=1;resizeHeight=0;align=left;verticalAlign=top;spacingLeft=4;spacingRight=4;overflow=hidden;rotatable=0;points=[[0,0.5],[1,0.5]];portConstraint=eastwest;whiteSpace=wrap;swimlaneFillColor=#ffffff;whiteSpace=wrap;fontSize=13;fillColor=none;strokeOpacity=100;fillOpacity=100;whiteSpace=wrap;spacing=0;rounded=1;absoluteArcSize=1;arcSize=7.5;strokeWidth=0.8;fontColor=#000000;container=0;" vertex="1" parent="jNWc2fwv66Wsc-9iDNfM-1055">
          <mxGeometry y="129" width="146.8914865004655" height="24" as="geometry" />
        </mxCell>
        <mxCell id="jNWc2fwv66Wsc-9iDNfM-1061" value="lorem_ipsum" style="strokeColor=none;part=1;resizeHeight=0;align=left;verticalAlign=top;spacingLeft=4;spacingRight=4;overflow=hidden;rotatable=0;points=[[0,0.5],[1,0.5]];portConstraint=eastwest;whiteSpace=wrap;swimlaneFillColor=#ffffff;whiteSpace=wrap;fontSize=13;fillColor=none;strokeOpacity=100;fillOpacity=100;whiteSpace=wrap;spacing=0;rounded=1;absoluteArcSize=1;arcSize=7.5;strokeWidth=0.8;fontColor=#000000;container=0;" vertex="1" parent="jNWc2fwv66Wsc-9iDNfM-1055">
          <mxGeometry y="152" width="146.8914865004655" height="24" as="geometry" />
        </mxCell>
        <mxCell id="jNWc2fwv66Wsc-9iDNfM-1062" value="lorem_ipsum" style="strokeColor=none;part=1;resizeHeight=0;align=left;verticalAlign=top;spacingLeft=4;spacingRight=4;overflow=hidden;rotatable=0;points=[[0,0.5],[1,0.5]];portConstraint=eastwest;whiteSpace=wrap;swimlaneFillColor=#ffffff;whiteSpace=wrap;fontSize=13;fontColor=#000000;fillColor=none;strokeOpacity=100;fillOpacity=100;whiteSpace=wrap;spacing=0;rounded=1;absoluteArcSize=1;arcSize=7.5;strokeWidth=0.8;container=0;" vertex="1" parent="jNWc2fwv66Wsc-9iDNfM-1055">
          <mxGeometry y="177" width="146.8914865004655" height="24" as="geometry" />
        </mxCell>
        <mxCell id="jNWc2fwv66Wsc-9iDNfM-1063" value="lorem_ipsum" style="strokeColor=none;part=1;resizeHeight=0;align=left;verticalAlign=top;spacingLeft=4;spacingRight=4;overflow=hidden;rotatable=0;points=[[0,0.5],[1,0.5]];portConstraint=eastwest;whiteSpace=wrap;swimlaneFillColor=#ffffff;whiteSpace=wrap;fontSize=13;fontColor=#000000;fillColor=none;strokeOpacity=100;fillOpacity=100;whiteSpace=wrap;spacing=0;rounded=1;absoluteArcSize=1;arcSize=7.5;strokeWidth=0.8;container=0;" vertex="1" parent="jNWc2fwv66Wsc-9iDNfM-1055">
          <mxGeometry y="201" width="146.8914865004655" height="24" as="geometry" />
        </mxCell>
        <mxCell id="jNWc2fwv66Wsc-9iDNfM-1064" value="lorem_ipsum" style="strokeColor=none;part=1;resizeHeight=0;align=left;verticalAlign=top;spacingLeft=4;spacingRight=4;overflow=hidden;rotatable=0;points=[[0,0.5],[1,0.5]];portConstraint=eastwest;whiteSpace=wrap;swimlaneFillColor=#ffffff;whiteSpace=wrap;fontSize=13;fontColor=#000000;fillColor=none;strokeOpacity=100;fillOpacity=100;whiteSpace=wrap;spacing=0;rounded=1;absoluteArcSize=1;arcSize=7.5;strokeWidth=0.8;container=0;" vertex="1" parent="jNWc2fwv66Wsc-9iDNfM-1055">
          <mxGeometry y="225" width="146.8914865004655" height="24" as="geometry" />
        </mxCell>
        <mxCell id="jNWc2fwv66Wsc-9iDNfM-1065" value="lorem_ipsum" style="strokeColor=none;part=1;resizeHeight=0;align=left;verticalAlign=top;spacingLeft=4;spacingRight=4;overflow=hidden;rotatable=0;points=[[0,0.5],[1,0.5]];portConstraint=eastwest;whiteSpace=wrap;swimlaneFillColor=#ffffff;whiteSpace=wrap;fontSize=13;fillColor=none;strokeOpacity=100;fillOpacity=100;whiteSpace=wrap;spacing=0;rounded=1;absoluteArcSize=1;arcSize=7.5;strokeWidth=0.8;fontColor=#000000;container=0;" vertex="1" parent="jNWc2fwv66Wsc-9iDNfM-1055">
          <mxGeometry y="253" width="146.8914865004655" height="24" as="geometry" />
        </mxCell>
        <mxCell id="jNWc2fwv66Wsc-9iDNfM-1066" value="lorem_ipsum" style="strokeColor=none;part=1;resizeHeight=0;align=left;verticalAlign=top;spacingLeft=4;spacingRight=4;overflow=hidden;rotatable=0;points=[[0,0.5],[1,0.5]];portConstraint=eastwest;whiteSpace=wrap;swimlaneFillColor=#ffffff;whiteSpace=wrap;fontSize=13;fontColor=#000000;fontStyle=3;fillColor=none;strokeOpacity=100;fillOpacity=100;whiteSpace=wrap;spacing=0;rounded=1;absoluteArcSize=1;arcSize=7.5;strokeWidth=0.8;container=0;" vertex="1" parent="jNWc2fwv66Wsc-9iDNfM-1055">
          <mxGeometry y="60" width="121.37512499568982" height="24" as="geometry" />
        </mxCell>
        <mxCell id="jNWc2fwv66Wsc-9iDNfM-1067" value="MEDIUMINT (FK)" style="shape=partialRectangle;top=0;right=0;bottom=0;part=1;resizeHeight=0;align=left;verticalAlign=top;spacingLeft=4;spacingRight=4;overflow=hidden;rotatable=0;points=[[0,0.5],[1,0.5]];portConstraint=eastwest;whiteSpace=wrap;swimlaneFillColor=#ffffff;whiteSpace=wrap;fontSize=13;fillColor=none;strokeOpacity=100;fillOpacity=100;whiteSpace=wrap;spacing=0;strokeColor=#333333;rounded=1;absoluteArcSize=1;arcSize=7.5;strokeWidth=0.8;fontColor=#000000;container=0;fontStyle=3" vertex="1" parent="jNWc2fwv66Wsc-9iDNfM-1055">
          <mxGeometry x="176.55" y="83" width="113.45" height="24" as="geometry" />
        </mxCell>
        <mxCell id="jNWc2fwv66Wsc-9iDNfM-1068" value="MEDIUMINT (FK)" style="shape=partialRectangle;top=0;right=0;bottom=0;part=1;resizeHeight=0;align=left;verticalAlign=top;spacingLeft=4;spacingRight=4;overflow=hidden;rotatable=0;points=[[0,0.5],[1,0.5]];portConstraint=eastwest;whiteSpace=wrap;swimlaneFillColor=#ffffff;whiteSpace=wrap;fontSize=13;fillColor=none;strokeOpacity=100;fillOpacity=100;whiteSpace=wrap;spacing=0;strokeColor=#333333;rounded=1;absoluteArcSize=1;arcSize=7.5;strokeWidth=0.8;fontColor=#000000;container=0;fontStyle=3" vertex="1" parent="jNWc2fwv66Wsc-9iDNfM-1055">
          <mxGeometry x="176.55667045963932" y="107" width="143.44332954036068" height="24" as="geometry" />
        </mxCell>
        <mxCell id="jNWc2fwv66Wsc-9iDNfM-1069" value="lorem_ipsum" style="shape=partialRectangle;top=0;right=0;bottom=0;part=1;resizeHeight=0;align=left;verticalAlign=top;spacingLeft=4;spacingRight=4;overflow=hidden;rotatable=0;points=[[0,0.5],[1,0.5]];portConstraint=eastwest;whiteSpace=wrap;swimlaneFillColor=#ffffff;whiteSpace=wrap;fontSize=13;fillColor=none;strokeOpacity=100;fillOpacity=100;whiteSpace=wrap;spacing=0;strokeColor=#333333;rounded=1;absoluteArcSize=1;arcSize=7.5;strokeWidth=0.8;fontColor=#000000;container=0;" vertex="1" parent="jNWc2fwv66Wsc-9iDNfM-1055">
          <mxGeometry x="176.55115340850315" y="131" width="75.99737940071033" height="24" as="geometry" />
        </mxCell>
        <mxCell id="jNWc2fwv66Wsc-9iDNfM-1070" value="lorem_ipsum" style="shape=partialRectangle;top=0;right=0;bottom=0;part=1;resizeHeight=0;align=left;verticalAlign=top;spacingLeft=4;spacingRight=4;overflow=hidden;rotatable=0;points=[[0,0.5],[1,0.5]];portConstraint=eastwest;whiteSpace=wrap;swimlaneFillColor=#ffffff;whiteSpace=wrap;fontSize=13;fillColor=none;strokeOpacity=100;fillOpacity=100;whiteSpace=wrap;spacing=0;strokeColor=#333333;rounded=1;absoluteArcSize=1;arcSize=7.5;strokeWidth=0.8;fontColor=#000000;container=0;" vertex="1" parent="jNWc2fwv66Wsc-9iDNfM-1055">
          <mxGeometry x="176.55115340850315" y="155" width="75.99737940071033" height="24" as="geometry" />
        </mxCell>
        <mxCell id="jNWc2fwv66Wsc-9iDNfM-1071" value="lorem_ipsum" style="shape=partialRectangle;top=0;right=0;bottom=0;part=1;resizeHeight=0;align=left;verticalAlign=top;spacingLeft=4;spacingRight=4;overflow=hidden;rotatable=0;points=[[0,0.5],[1,0.5]];portConstraint=eastwest;whiteSpace=wrap;swimlaneFillColor=#ffffff;whiteSpace=wrap;fontSize=13;fontColor=#000000;fillColor=none;strokeOpacity=100;fillOpacity=100;whiteSpace=wrap;spacing=0;strokeColor=#333333;rounded=1;absoluteArcSize=1;arcSize=7.5;strokeWidth=0.8;container=0;" vertex="1" parent="jNWc2fwv66Wsc-9iDNfM-1055">
          <mxGeometry x="176.55115340850315" y="179" width="75.99737940071033" height="24" as="geometry" />
        </mxCell>
        <mxCell id="jNWc2fwv66Wsc-9iDNfM-1072" value="lorem_ipsum" style="shape=partialRectangle;top=0;right=0;bottom=0;part=1;resizeHeight=0;align=left;verticalAlign=top;spacingLeft=4;spacingRight=4;overflow=hidden;rotatable=0;points=[[0,0.5],[1,0.5]];portConstraint=eastwest;whiteSpace=wrap;swimlaneFillColor=#ffffff;whiteSpace=wrap;fontSize=13;fontColor=#000000;fillColor=none;strokeOpacity=100;fillOpacity=100;whiteSpace=wrap;spacing=0;strokeColor=#333333;rounded=1;absoluteArcSize=1;arcSize=7.5;strokeWidth=0.8;container=0;" vertex="1" parent="jNWc2fwv66Wsc-9iDNfM-1055">
          <mxGeometry x="176.55115340850315" y="203" width="75.99737940071033" height="24" as="geometry" />
        </mxCell>
        <mxCell id="jNWc2fwv66Wsc-9iDNfM-1073" value="lorem_ipsum" style="shape=partialRectangle;top=0;right=0;bottom=0;part=1;resizeHeight=0;align=left;verticalAlign=top;spacingLeft=4;spacingRight=4;overflow=hidden;rotatable=0;points=[[0,0.5],[1,0.5]];portConstraint=eastwest;whiteSpace=wrap;swimlaneFillColor=#ffffff;whiteSpace=wrap;fontSize=13;fontColor=#000000;fillColor=none;strokeOpacity=100;fillOpacity=100;whiteSpace=wrap;spacing=0;strokeColor=#333333;rounded=1;absoluteArcSize=1;arcSize=7.5;strokeWidth=0.8;container=0;" vertex="1" parent="jNWc2fwv66Wsc-9iDNfM-1055">
          <mxGeometry x="176.55115340850315" y="227" width="75.99737940071033" height="24" as="geometry" />
        </mxCell>
        <mxCell id="jNWc2fwv66Wsc-9iDNfM-1074" value="lorem_ipsum" style="shape=partialRectangle;top=0;right=0;bottom=0;part=1;resizeHeight=0;align=left;verticalAlign=top;spacingLeft=4;spacingRight=4;overflow=hidden;rotatable=0;points=[[0,0.5],[1,0.5]];portConstraint=eastwest;whiteSpace=wrap;swimlaneFillColor=#ffffff;whiteSpace=wrap;fontSize=13;fillColor=none;strokeOpacity=100;fillOpacity=100;whiteSpace=wrap;spacing=0;strokeColor=#333333;rounded=1;absoluteArcSize=1;arcSize=7.5;strokeWidth=0.8;fontColor=#000000;container=0;" vertex="1" parent="jNWc2fwv66Wsc-9iDNfM-1055">
          <mxGeometry x="176.55115340850315" y="251" width="75.99737940071033" height="24" as="geometry" />
        </mxCell>
        <mxCell id="jNWc2fwv66Wsc-9iDNfM-1075" value="MEDIUMINT (FK)" style="shape=partialRectangle;top=0;right=0;bottom=0;part=1;resizeHeight=0;align=left;verticalAlign=top;spacingLeft=4;spacingRight=4;overflow=hidden;rotatable=0;points=[[0,0.5],[1,0.5]];portConstraint=eastwest;whiteSpace=wrap;swimlaneFillColor=#ffffff;whiteSpace=wrap;fontSize=13;fontColor=#000000;fontStyle=3;fillColor=none;strokeOpacity=100;fillOpacity=100;whiteSpace=wrap;spacing=0;strokeColor=#333333;rounded=1;absoluteArcSize=1;arcSize=7.5;strokeWidth=0.8;container=0;" vertex="1" parent="jNWc2fwv66Wsc-9iDNfM-1055">
          <mxGeometry x="176.55667045963932" y="60" width="128.9665873590566" height="24" as="geometry" />
        </mxCell>
        <mxCell id="jNWc2fwv66Wsc-9iDNfM-1076" value="&lt;span&gt;aaa&lt;/span&gt;" style="rounded=0;whiteSpace=wrap;html=1;fillColor=#dae8fc;strokeColor=#6c8ebf;fontColor=#000000;" vertex="1" parent="1">
          <mxGeometry x="4333" y="470" width="340" height="30" as="geometry" />
        </mxCell>
        <mxCell id="jNWc2fwv66Wsc-9iDNfM-1077" value="&lt;span&gt;bbb&lt;/span&gt;" style="html=1;overflow=block;blockSpacing=1;whiteSpace=wrap;swimlane;resizeParent=1;resizeParentMax=0;resizeLast=0;collapsible=0;marginBottom=0;fontStyle=0;swimlaneFillColor=#ffffff;startSize=30;whiteSpace=wrap;fontSize=13;fontColor=#000000;fontStyle=3;align=center;fillColor=#e0e0e0;whiteSpace=wrap;spacing=0;strokeColor=#333333;strokeOpacity=100;fillOpacity=100;rounded=1;absoluteArcSize=1;arcSize=7.5;strokeWidth=0.8;" vertex="1" parent="1">
          <mxGeometry x="3940" y="501" width="341.89" height="279" as="geometry" />
        </mxCell>
        <mxCell id="jNWc2fwv66Wsc-9iDNfM-1078" value="lorem_ipsum" style="strokeColor=none;part=1;resizeHeight=0;align=left;verticalAlign=top;spacingLeft=4;spacingRight=4;overflow=hidden;rotatable=0;points=[[0,0.5],[1,0.5]];portConstraint=eastwest;whiteSpace=wrap;swimlaneFillColor=#ffffff;whiteSpace=wrap;fontSize=13;fontColor=#000000;fontStyle=7;fillColor=none;strokeOpacity=100;fillOpacity=100;whiteSpace=wrap;spacing=0;rounded=1;absoluteArcSize=1;arcSize=7.5;strokeWidth=0.8;" vertex="1" parent="jNWc2fwv66Wsc-9iDNfM-1077">
          <mxGeometry y="33" width="110" height="24" as="geometry" />
        </mxCell>
        <mxCell id="jNWc2fwv66Wsc-9iDNfM-1079" value="MEDIUMINT (PK)" style="shape=partialRectangle;top=0;right=0;bottom=0;part=1;resizeHeight=0;align=left;verticalAlign=top;spacingLeft=4;spacingRight=4;overflow=hidden;rotatable=0;points=[[0,0.5],[1,0.5]];portConstraint=eastwest;whiteSpace=wrap;swimlaneFillColor=#ffffff;whiteSpace=wrap;fontSize=13;fontColor=#000000;fontStyle=7;fillColor=none;strokeOpacity=100;fillOpacity=100;whiteSpace=wrap;spacing=0;strokeColor=#333333;rounded=1;absoluteArcSize=1;arcSize=7.5;strokeWidth=0.8;" vertex="1" parent="jNWc2fwv66Wsc-9iDNfM-1077">
          <mxGeometry x="176" y="33" width="126.87" height="24" as="geometry" />
        </mxCell>
        <mxCell id="jNWc2fwv66Wsc-9iDNfM-1080" value="lorem_ipsum" style="strokeColor=none;part=1;resizeHeight=0;align=left;verticalAlign=top;spacingLeft=4;spacingRight=4;overflow=hidden;rotatable=0;points=[[0,0.5],[1,0.5]];portConstraint=eastwest;whiteSpace=wrap;swimlaneFillColor=#ffffff;whiteSpace=wrap;fontSize=13;fillColor=none;strokeOpacity=100;fillOpacity=100;whiteSpace=wrap;spacing=0;rounded=1;absoluteArcSize=1;arcSize=7.5;strokeWidth=0.8;fontColor=#000000;container=0;fontStyle=3" vertex="1" parent="jNWc2fwv66Wsc-9iDNfM-1077">
          <mxGeometry y="83" width="146.8914865004655" height="24" as="geometry" />
        </mxCell>
        <mxCell id="jNWc2fwv66Wsc-9iDNfM-1081" value="lorem_ipsum" style="strokeColor=none;part=1;resizeHeight=0;align=left;verticalAlign=top;spacingLeft=4;spacingRight=4;overflow=hidden;rotatable=0;points=[[0,0.5],[1,0.5]];portConstraint=eastwest;whiteSpace=wrap;swimlaneFillColor=#ffffff;whiteSpace=wrap;fontSize=13;fillColor=none;strokeOpacity=100;fillOpacity=100;whiteSpace=wrap;spacing=0;rounded=1;absoluteArcSize=1;arcSize=7.5;strokeWidth=0.8;fontColor=#000000;fontStyle=3;container=0;" vertex="1" parent="jNWc2fwv66Wsc-9iDNfM-1077">
          <mxGeometry y="107" width="146.8914865004655" height="24" as="geometry" />
        </mxCell>
        <mxCell id="jNWc2fwv66Wsc-9iDNfM-1082" value="lorem_ipsum" style="strokeColor=none;part=1;resizeHeight=0;align=left;verticalAlign=top;spacingLeft=4;spacingRight=4;overflow=hidden;rotatable=0;points=[[0,0.5],[1,0.5]];portConstraint=eastwest;whiteSpace=wrap;swimlaneFillColor=#ffffff;whiteSpace=wrap;fontSize=13;fillColor=none;strokeOpacity=100;fillOpacity=100;whiteSpace=wrap;spacing=0;rounded=1;absoluteArcSize=1;arcSize=7.5;strokeWidth=0.8;fontColor=#000000;container=0;" vertex="1" parent="jNWc2fwv66Wsc-9iDNfM-1077">
          <mxGeometry y="129" width="146.8914865004655" height="24" as="geometry" />
        </mxCell>
        <mxCell id="jNWc2fwv66Wsc-9iDNfM-1083" value="lorem_ipsum" style="strokeColor=none;part=1;resizeHeight=0;align=left;verticalAlign=top;spacingLeft=4;spacingRight=4;overflow=hidden;rotatable=0;points=[[0,0.5],[1,0.5]];portConstraint=eastwest;whiteSpace=wrap;swimlaneFillColor=#ffffff;whiteSpace=wrap;fontSize=13;fillColor=none;strokeOpacity=100;fillOpacity=100;whiteSpace=wrap;spacing=0;rounded=1;absoluteArcSize=1;arcSize=7.5;strokeWidth=0.8;fontColor=#000000;container=0;" vertex="1" parent="jNWc2fwv66Wsc-9iDNfM-1077">
          <mxGeometry y="152" width="146.8914865004655" height="24" as="geometry" />
        </mxCell>
        <mxCell id="jNWc2fwv66Wsc-9iDNfM-1084" value="lorem_ipsum" style="strokeColor=none;part=1;resizeHeight=0;align=left;verticalAlign=top;spacingLeft=4;spacingRight=4;overflow=hidden;rotatable=0;points=[[0,0.5],[1,0.5]];portConstraint=eastwest;whiteSpace=wrap;swimlaneFillColor=#ffffff;whiteSpace=wrap;fontSize=13;fontColor=#000000;fillColor=none;strokeOpacity=100;fillOpacity=100;whiteSpace=wrap;spacing=0;rounded=1;absoluteArcSize=1;arcSize=7.5;strokeWidth=0.8;container=0;" vertex="1" parent="jNWc2fwv66Wsc-9iDNfM-1077">
          <mxGeometry y="177" width="146.8914865004655" height="24" as="geometry" />
        </mxCell>
        <mxCell id="jNWc2fwv66Wsc-9iDNfM-1085" value="lorem_ipsum" style="strokeColor=none;part=1;resizeHeight=0;align=left;verticalAlign=top;spacingLeft=4;spacingRight=4;overflow=hidden;rotatable=0;points=[[0,0.5],[1,0.5]];portConstraint=eastwest;whiteSpace=wrap;swimlaneFillColor=#ffffff;whiteSpace=wrap;fontSize=13;fontColor=#000000;fillColor=none;strokeOpacity=100;fillOpacity=100;whiteSpace=wrap;spacing=0;rounded=1;absoluteArcSize=1;arcSize=7.5;strokeWidth=0.8;container=0;" vertex="1" parent="jNWc2fwv66Wsc-9iDNfM-1077">
          <mxGeometry y="201" width="146.8914865004655" height="24" as="geometry" />
        </mxCell>
        <mxCell id="jNWc2fwv66Wsc-9iDNfM-1086" value="lorem_ipsum" style="strokeColor=none;part=1;resizeHeight=0;align=left;verticalAlign=top;spacingLeft=4;spacingRight=4;overflow=hidden;rotatable=0;points=[[0,0.5],[1,0.5]];portConstraint=eastwest;whiteSpace=wrap;swimlaneFillColor=#ffffff;whiteSpace=wrap;fontSize=13;fontColor=#000000;fillColor=none;strokeOpacity=100;fillOpacity=100;whiteSpace=wrap;spacing=0;rounded=1;absoluteArcSize=1;arcSize=7.5;strokeWidth=0.8;container=0;" vertex="1" parent="jNWc2fwv66Wsc-9iDNfM-1077">
          <mxGeometry y="225" width="146.8914865004655" height="24" as="geometry" />
        </mxCell>
        <mxCell id="jNWc2fwv66Wsc-9iDNfM-1087" value="lorem_ipsum" style="strokeColor=none;part=1;resizeHeight=0;align=left;verticalAlign=top;spacingLeft=4;spacingRight=4;overflow=hidden;rotatable=0;points=[[0,0.5],[1,0.5]];portConstraint=eastwest;whiteSpace=wrap;swimlaneFillColor=#ffffff;whiteSpace=wrap;fontSize=13;fillColor=none;strokeOpacity=100;fillOpacity=100;whiteSpace=wrap;spacing=0;rounded=1;absoluteArcSize=1;arcSize=7.5;strokeWidth=0.8;fontColor=#000000;container=0;" vertex="1" parent="jNWc2fwv66Wsc-9iDNfM-1077">
          <mxGeometry y="253" width="146.8914865004655" height="24" as="geometry" />
        </mxCell>
        <mxCell id="jNWc2fwv66Wsc-9iDNfM-1088" value="lorem_ipsum" style="strokeColor=none;part=1;resizeHeight=0;align=left;verticalAlign=top;spacingLeft=4;spacingRight=4;overflow=hidden;rotatable=0;points=[[0,0.5],[1,0.5]];portConstraint=eastwest;whiteSpace=wrap;swimlaneFillColor=#ffffff;whiteSpace=wrap;fontSize=13;fontColor=#000000;fontStyle=3;fillColor=none;strokeOpacity=100;fillOpacity=100;whiteSpace=wrap;spacing=0;rounded=1;absoluteArcSize=1;arcSize=7.5;strokeWidth=0.8;container=0;" vertex="1" parent="jNWc2fwv66Wsc-9iDNfM-1077">
          <mxGeometry y="60" width="121.37512499568982" height="24" as="geometry" />
        </mxCell>
        <mxCell id="jNWc2fwv66Wsc-9iDNfM-1089" value="MEDIUMINT (FK)" style="shape=partialRectangle;top=0;right=0;bottom=0;part=1;resizeHeight=0;align=left;verticalAlign=top;spacingLeft=4;spacingRight=4;overflow=hidden;rotatable=0;points=[[0,0.5],[1,0.5]];portConstraint=eastwest;whiteSpace=wrap;swimlaneFillColor=#ffffff;whiteSpace=wrap;fontSize=13;fillColor=none;strokeOpacity=100;fillOpacity=100;whiteSpace=wrap;spacing=0;strokeColor=#333333;rounded=1;absoluteArcSize=1;arcSize=7.5;strokeWidth=0.8;fontColor=#000000;container=0;fontStyle=3" vertex="1" parent="jNWc2fwv66Wsc-9iDNfM-1077">
          <mxGeometry x="176.55" y="83" width="113.45" height="24" as="geometry" />
        </mxCell>
        <mxCell id="jNWc2fwv66Wsc-9iDNfM-1090" value="MEDIUMINT (FK)" style="shape=partialRectangle;top=0;right=0;bottom=0;part=1;resizeHeight=0;align=left;verticalAlign=top;spacingLeft=4;spacingRight=4;overflow=hidden;rotatable=0;points=[[0,0.5],[1,0.5]];portConstraint=eastwest;whiteSpace=wrap;swimlaneFillColor=#ffffff;whiteSpace=wrap;fontSize=13;fillColor=none;strokeOpacity=100;fillOpacity=100;whiteSpace=wrap;spacing=0;strokeColor=#333333;rounded=1;absoluteArcSize=1;arcSize=7.5;strokeWidth=0.8;fontColor=#000000;container=0;fontStyle=3" vertex="1" parent="jNWc2fwv66Wsc-9iDNfM-1077">
          <mxGeometry x="176.55667045963932" y="107" width="143.44332954036068" height="24" as="geometry" />
        </mxCell>
        <mxCell id="jNWc2fwv66Wsc-9iDNfM-1091" value="lorem_ipsum" style="shape=partialRectangle;top=0;right=0;bottom=0;part=1;resizeHeight=0;align=left;verticalAlign=top;spacingLeft=4;spacingRight=4;overflow=hidden;rotatable=0;points=[[0,0.5],[1,0.5]];portConstraint=eastwest;whiteSpace=wrap;swimlaneFillColor=#ffffff;whiteSpace=wrap;fontSize=13;fillColor=none;strokeOpacity=100;fillOpacity=100;whiteSpace=wrap;spacing=0;strokeColor=#333333;rounded=1;absoluteArcSize=1;arcSize=7.5;strokeWidth=0.8;fontColor=#000000;container=0;" vertex="1" parent="jNWc2fwv66Wsc-9iDNfM-1077">
          <mxGeometry x="176.55115340850315" y="131" width="75.99737940071033" height="24" as="geometry" />
        </mxCell>
        <mxCell id="jNWc2fwv66Wsc-9iDNfM-1092" value="lorem_ipsum" style="shape=partialRectangle;top=0;right=0;bottom=0;part=1;resizeHeight=0;align=left;verticalAlign=top;spacingLeft=4;spacingRight=4;overflow=hidden;rotatable=0;points=[[0,0.5],[1,0.5]];portConstraint=eastwest;whiteSpace=wrap;swimlaneFillColor=#ffffff;whiteSpace=wrap;fontSize=13;fillColor=none;strokeOpacity=100;fillOpacity=100;whiteSpace=wrap;spacing=0;strokeColor=#333333;rounded=1;absoluteArcSize=1;arcSize=7.5;strokeWidth=0.8;fontColor=#000000;container=0;" vertex="1" parent="jNWc2fwv66Wsc-9iDNfM-1077">
          <mxGeometry x="176.55115340850315" y="155" width="75.99737940071033" height="24" as="geometry" />
        </mxCell>
        <mxCell id="jNWc2fwv66Wsc-9iDNfM-1093" value="lorem_ipsum" style="shape=partialRectangle;top=0;right=0;bottom=0;part=1;resizeHeight=0;align=left;verticalAlign=top;spacingLeft=4;spacingRight=4;overflow=hidden;rotatable=0;points=[[0,0.5],[1,0.5]];portConstraint=eastwest;whiteSpace=wrap;swimlaneFillColor=#ffffff;whiteSpace=wrap;fontSize=13;fontColor=#000000;fillColor=none;strokeOpacity=100;fillOpacity=100;whiteSpace=wrap;spacing=0;strokeColor=#333333;rounded=1;absoluteArcSize=1;arcSize=7.5;strokeWidth=0.8;container=0;" vertex="1" parent="jNWc2fwv66Wsc-9iDNfM-1077">
          <mxGeometry x="176.55115340850315" y="179" width="75.99737940071033" height="24" as="geometry" />
        </mxCell>
        <mxCell id="jNWc2fwv66Wsc-9iDNfM-1094" value="lorem_ipsum" style="shape=partialRectangle;top=0;right=0;bottom=0;part=1;resizeHeight=0;align=left;verticalAlign=top;spacingLeft=4;spacingRight=4;overflow=hidden;rotatable=0;points=[[0,0.5],[1,0.5]];portConstraint=eastwest;whiteSpace=wrap;swimlaneFillColor=#ffffff;whiteSpace=wrap;fontSize=13;fontColor=#000000;fillColor=none;strokeOpacity=100;fillOpacity=100;whiteSpace=wrap;spacing=0;strokeColor=#333333;rounded=1;absoluteArcSize=1;arcSize=7.5;strokeWidth=0.8;container=0;" vertex="1" parent="jNWc2fwv66Wsc-9iDNfM-1077">
          <mxGeometry x="176.55115340850315" y="203" width="75.99737940071033" height="24" as="geometry" />
        </mxCell>
        <mxCell id="jNWc2fwv66Wsc-9iDNfM-1095" value="lorem_ipsum" style="shape=partialRectangle;top=0;right=0;bottom=0;part=1;resizeHeight=0;align=left;verticalAlign=top;spacingLeft=4;spacingRight=4;overflow=hidden;rotatable=0;points=[[0,0.5],[1,0.5]];portConstraint=eastwest;whiteSpace=wrap;swimlaneFillColor=#ffffff;whiteSpace=wrap;fontSize=13;fontColor=#000000;fillColor=none;strokeOpacity=100;fillOpacity=100;whiteSpace=wrap;spacing=0;strokeColor=#333333;rounded=1;absoluteArcSize=1;arcSize=7.5;strokeWidth=0.8;container=0;" vertex="1" parent="jNWc2fwv66Wsc-9iDNfM-1077">
          <mxGeometry x="176.55115340850315" y="227" width="75.99737940071033" height="24" as="geometry" />
        </mxCell>
        <mxCell id="jNWc2fwv66Wsc-9iDNfM-1096" value="lorem_ipsum" style="shape=partialRectangle;top=0;right=0;bottom=0;part=1;resizeHeight=0;align=left;verticalAlign=top;spacingLeft=4;spacingRight=4;overflow=hidden;rotatable=0;points=[[0,0.5],[1,0.5]];portConstraint=eastwest;whiteSpace=wrap;swimlaneFillColor=#ffffff;whiteSpace=wrap;fontSize=13;fillColor=none;strokeOpacity=100;fillOpacity=100;whiteSpace=wrap;spacing=0;strokeColor=#333333;rounded=1;absoluteArcSize=1;arcSize=7.5;strokeWidth=0.8;fontColor=#000000;container=0;" vertex="1" parent="jNWc2fwv66Wsc-9iDNfM-1077">
          <mxGeometry x="176.55115340850315" y="251" width="75.99737940071033" height="24" as="geometry" />
        </mxCell>
        <mxCell id="jNWc2fwv66Wsc-9iDNfM-1097" value="MEDIUMINT (FK)" style="shape=partialRectangle;top=0;right=0;bottom=0;part=1;resizeHeight=0;align=left;verticalAlign=top;spacingLeft=4;spacingRight=4;overflow=hidden;rotatable=0;points=[[0,0.5],[1,0.5]];portConstraint=eastwest;whiteSpace=wrap;swimlaneFillColor=#ffffff;whiteSpace=wrap;fontSize=13;fontColor=#000000;fontStyle=3;fillColor=none;strokeOpacity=100;fillOpacity=100;whiteSpace=wrap;spacing=0;strokeColor=#333333;rounded=1;absoluteArcSize=1;arcSize=7.5;strokeWidth=0.8;container=0;" vertex="1" parent="jNWc2fwv66Wsc-9iDNfM-1077">
          <mxGeometry x="176.55667045963932" y="60" width="128.9665873590566" height="24" as="geometry" />
        </mxCell>
        <mxCell id="jNWc2fwv66Wsc-9iDNfM-1098" value="&lt;span&gt;aaa&lt;/span&gt;" style="rounded=0;whiteSpace=wrap;html=1;fillColor=#dae8fc;strokeColor=#6c8ebf;fontColor=#000000;" vertex="1" parent="1">
          <mxGeometry x="3940" y="470" width="340" height="30" as="geometry" />
        </mxCell>
        <mxCell id="jNWc2fwv66Wsc-9iDNfM-1099" value="&lt;span&gt;m_lodging_user_price&lt;/span&gt;" style="html=1;overflow=block;blockSpacing=1;whiteSpace=wrap;swimlane;resizeParent=1;resizeParentMax=0;resizeLast=0;collapsible=0;marginBottom=0;fontStyle=0;swimlaneFillColor=#ffffff;startSize=30;whiteSpace=wrap;fontSize=13;fontColor=#000000;fontStyle=3;align=center;fillColor=#e0e0e0;whiteSpace=wrap;spacing=0;strokeColor=#333333;strokeOpacity=100;fillOpacity=100;rounded=1;absoluteArcSize=1;arcSize=7.5;strokeWidth=0.8;" vertex="1" parent="1">
          <mxGeometry x="330" y="491" width="341.89" height="219" as="geometry" />
        </mxCell>
        <mxCell id="jNWc2fwv66Wsc-9iDNfM-1100" value="user_price_id" style="strokeColor=none;part=1;resizeHeight=0;align=left;verticalAlign=top;spacingLeft=4;spacingRight=4;overflow=hidden;rotatable=0;points=[[0,0.5],[1,0.5]];portConstraint=eastwest;whiteSpace=wrap;swimlaneFillColor=#ffffff;whiteSpace=wrap;fontSize=13;fontColor=#000000;fontStyle=7;fillColor=none;strokeOpacity=100;fillOpacity=100;whiteSpace=wrap;spacing=0;rounded=1;absoluteArcSize=1;arcSize=7.5;strokeWidth=0.8;" vertex="1" parent="jNWc2fwv66Wsc-9iDNfM-1099">
          <mxGeometry y="33" width="110" height="24" as="geometry" />
        </mxCell>
        <mxCell id="jNWc2fwv66Wsc-9iDNfM-1101" value="MEDIUMINT (PK)" style="shape=partialRectangle;top=0;right=0;bottom=0;part=1;resizeHeight=0;align=left;verticalAlign=top;spacingLeft=4;spacingRight=4;overflow=hidden;rotatable=0;points=[[0,0.5],[1,0.5]];portConstraint=eastwest;whiteSpace=wrap;swimlaneFillColor=#ffffff;whiteSpace=wrap;fontSize=13;fontColor=#000000;fontStyle=7;fillColor=none;strokeOpacity=100;fillOpacity=100;whiteSpace=wrap;spacing=0;strokeColor=#333333;rounded=1;absoluteArcSize=1;arcSize=7.5;strokeWidth=0.8;" vertex="1" parent="jNWc2fwv66Wsc-9iDNfM-1099">
          <mxGeometry x="176" y="33" width="126.87" height="24" as="geometry" />
        </mxCell>
        <mxCell id="jNWc2fwv66Wsc-9iDNfM-1102" value="term_id" style="strokeColor=none;part=1;resizeHeight=0;align=left;verticalAlign=top;spacingLeft=4;spacingRight=4;overflow=hidden;rotatable=0;points=[[0,0.5],[1,0.5]];portConstraint=eastwest;whiteSpace=wrap;swimlaneFillColor=#ffffff;whiteSpace=wrap;fontSize=13;fillColor=none;strokeOpacity=100;fillOpacity=100;whiteSpace=wrap;spacing=0;rounded=1;absoluteArcSize=1;arcSize=7.5;strokeWidth=0.8;fontColor=#000000;container=0;fontStyle=3" vertex="1" parent="jNWc2fwv66Wsc-9iDNfM-1099">
          <mxGeometry y="83" width="146.8914865004655" height="24" as="geometry" />
        </mxCell>
        <mxCell id="jNWc2fwv66Wsc-9iDNfM-1103" value="facility_id" style="strokeColor=none;part=1;resizeHeight=0;align=left;verticalAlign=top;spacingLeft=4;spacingRight=4;overflow=hidden;rotatable=0;points=[[0,0.5],[1,0.5]];portConstraint=eastwest;whiteSpace=wrap;swimlaneFillColor=#ffffff;whiteSpace=wrap;fontSize=13;fillColor=none;strokeOpacity=100;fillOpacity=100;whiteSpace=wrap;spacing=0;rounded=1;absoluteArcSize=1;arcSize=7.5;strokeWidth=0.8;fontColor=#000000;fontStyle=3;container=0;" vertex="1" parent="jNWc2fwv66Wsc-9iDNfM-1099">
          <mxGeometry y="107" width="146.8914865004655" height="24" as="geometry" />
        </mxCell>
        <mxCell id="jNWc2fwv66Wsc-9iDNfM-1104" value="site_id" style="strokeColor=none;part=1;resizeHeight=0;align=left;verticalAlign=top;spacingLeft=4;spacingRight=4;overflow=hidden;rotatable=0;points=[[0,0.5],[1,0.5]];portConstraint=eastwest;whiteSpace=wrap;swimlaneFillColor=#ffffff;whiteSpace=wrap;fontSize=13;fillColor=none;strokeOpacity=100;fillOpacity=100;whiteSpace=wrap;spacing=0;rounded=1;absoluteArcSize=1;arcSize=7.5;strokeWidth=0.8;fontColor=#000000;container=0;fontStyle=3" vertex="1" parent="jNWc2fwv66Wsc-9iDNfM-1099">
          <mxGeometry y="129" width="146.8914865004655" height="24" as="geometry" />
        </mxCell>
        <mxCell id="jNWc2fwv66Wsc-9iDNfM-1105" value="usetime_id" style="strokeColor=none;part=1;resizeHeight=0;align=left;verticalAlign=top;spacingLeft=4;spacingRight=4;overflow=hidden;rotatable=0;points=[[0,0.5],[1,0.5]];portConstraint=eastwest;whiteSpace=wrap;swimlaneFillColor=#ffffff;whiteSpace=wrap;fontSize=13;fillColor=none;strokeOpacity=100;fillOpacity=100;whiteSpace=wrap;spacing=0;rounded=1;absoluteArcSize=1;arcSize=7.5;strokeWidth=0.8;fontColor=#000000;container=0;fontStyle=3" vertex="1" parent="jNWc2fwv66Wsc-9iDNfM-1099">
          <mxGeometry y="152" width="146.8914865004655" height="24" as="geometry" />
        </mxCell>
        <mxCell id="jNWc2fwv66Wsc-9iDNfM-1110" value="product_number_id" style="strokeColor=none;part=1;resizeHeight=0;align=left;verticalAlign=top;spacingLeft=4;spacingRight=4;overflow=hidden;rotatable=0;points=[[0,0.5],[1,0.5]];portConstraint=eastwest;whiteSpace=wrap;swimlaneFillColor=#ffffff;whiteSpace=wrap;fontSize=13;fontColor=#000000;fontStyle=3;fillColor=none;strokeOpacity=100;fillOpacity=100;whiteSpace=wrap;spacing=0;rounded=1;absoluteArcSize=1;arcSize=7.5;strokeWidth=0.8;container=0;" vertex="1" parent="jNWc2fwv66Wsc-9iDNfM-1099">
          <mxGeometry y="60" width="150" height="24" as="geometry" />
        </mxCell>
        <mxCell id="jNWc2fwv66Wsc-9iDNfM-1111" value="MEDIUMINT (FK)" style="shape=partialRectangle;top=0;right=0;bottom=0;part=1;resizeHeight=0;align=left;verticalAlign=top;spacingLeft=4;spacingRight=4;overflow=hidden;rotatable=0;points=[[0,0.5],[1,0.5]];portConstraint=eastwest;whiteSpace=wrap;swimlaneFillColor=#ffffff;whiteSpace=wrap;fontSize=13;fillColor=none;strokeOpacity=100;fillOpacity=100;whiteSpace=wrap;spacing=0;strokeColor=#333333;rounded=1;absoluteArcSize=1;arcSize=7.5;strokeWidth=0.8;fontColor=#000000;container=0;fontStyle=3" vertex="1" parent="jNWc2fwv66Wsc-9iDNfM-1099">
          <mxGeometry x="176.55" y="83" width="113.45" height="24" as="geometry" />
        </mxCell>
        <mxCell id="jNWc2fwv66Wsc-9iDNfM-1112" value="MEDIUMINT (FK)" style="shape=partialRectangle;top=0;right=0;bottom=0;part=1;resizeHeight=0;align=left;verticalAlign=top;spacingLeft=4;spacingRight=4;overflow=hidden;rotatable=0;points=[[0,0.5],[1,0.5]];portConstraint=eastwest;whiteSpace=wrap;swimlaneFillColor=#ffffff;whiteSpace=wrap;fontSize=13;fillColor=none;strokeOpacity=100;fillOpacity=100;whiteSpace=wrap;spacing=0;strokeColor=#333333;rounded=1;absoluteArcSize=1;arcSize=7.5;strokeWidth=0.8;fontColor=#000000;container=0;fontStyle=3" vertex="1" parent="jNWc2fwv66Wsc-9iDNfM-1099">
          <mxGeometry x="176.55667045963932" y="107" width="143.44332954036068" height="24" as="geometry" />
        </mxCell>
        <mxCell id="jNWc2fwv66Wsc-9iDNfM-1113" value="MEDIUMINT (FK)" style="shape=partialRectangle;top=0;right=0;bottom=0;part=1;resizeHeight=0;align=left;verticalAlign=top;spacingLeft=4;spacingRight=4;overflow=hidden;rotatable=0;points=[[0,0.5],[1,0.5]];portConstraint=eastwest;whiteSpace=wrap;swimlaneFillColor=#ffffff;whiteSpace=wrap;fontSize=13;fillColor=none;strokeOpacity=100;fillOpacity=100;whiteSpace=wrap;spacing=0;strokeColor=#333333;rounded=1;absoluteArcSize=1;arcSize=7.5;strokeWidth=0.8;fontColor=#000000;container=0;fontStyle=3" vertex="1" parent="jNWc2fwv66Wsc-9iDNfM-1099">
          <mxGeometry x="176.55" y="131" width="123.45" height="24" as="geometry" />
        </mxCell>
        <mxCell id="jNWc2fwv66Wsc-9iDNfM-1114" value="MEDIUMINT (FK)" style="shape=partialRectangle;top=0;right=0;bottom=0;part=1;resizeHeight=0;align=left;verticalAlign=top;spacingLeft=4;spacingRight=4;overflow=hidden;rotatable=0;points=[[0,0.5],[1,0.5]];portConstraint=eastwest;whiteSpace=wrap;swimlaneFillColor=#ffffff;whiteSpace=wrap;fontSize=13;fillColor=none;strokeOpacity=100;fillOpacity=100;whiteSpace=wrap;spacing=0;strokeColor=#333333;rounded=1;absoluteArcSize=1;arcSize=7.5;strokeWidth=0.8;fontColor=#000000;container=0;fontStyle=3" vertex="1" parent="jNWc2fwv66Wsc-9iDNfM-1099">
          <mxGeometry x="176.55" y="155" width="123.45" height="24" as="geometry" />
        </mxCell>
        <mxCell id="jNWc2fwv66Wsc-9iDNfM-1119" value="MEDIUMINT (FK)" style="shape=partialRectangle;top=0;right=0;bottom=0;part=1;resizeHeight=0;align=left;verticalAlign=top;spacingLeft=4;spacingRight=4;overflow=hidden;rotatable=0;points=[[0,0.5],[1,0.5]];portConstraint=eastwest;whiteSpace=wrap;swimlaneFillColor=#ffffff;whiteSpace=wrap;fontSize=13;fontColor=#000000;fontStyle=3;fillColor=none;strokeOpacity=100;fillOpacity=100;whiteSpace=wrap;spacing=0;strokeColor=#333333;rounded=1;absoluteArcSize=1;arcSize=7.5;strokeWidth=0.8;container=0;" vertex="1" parent="jNWc2fwv66Wsc-9iDNfM-1099">
          <mxGeometry x="176.55667045963932" y="60" width="128.9665873590566" height="24" as="geometry" />
        </mxCell>
        <mxCell id="jNWc2fwv66Wsc-9iDNfM-1171" value="user_type_id" style="strokeColor=none;part=1;resizeHeight=0;align=left;verticalAlign=top;spacingLeft=4;spacingRight=4;overflow=hidden;rotatable=0;points=[[0,0.5],[1,0.5]];portConstraint=eastwest;whiteSpace=wrap;swimlaneFillColor=#ffffff;whiteSpace=wrap;fontSize=13;fillColor=none;strokeOpacity=100;fillOpacity=100;whiteSpace=wrap;spacing=0;rounded=1;absoluteArcSize=1;arcSize=7.5;strokeWidth=0.8;fontColor=#000000;container=0;fontStyle=3" vertex="1" parent="jNWc2fwv66Wsc-9iDNfM-1099">
          <mxGeometry y="179" width="146.8914865004655" height="24" as="geometry" />
        </mxCell>
        <mxCell id="jNWc2fwv66Wsc-9iDNfM-1172" value="MEDIUMINT (FK)" style="shape=partialRectangle;top=0;right=0;bottom=0;part=1;resizeHeight=0;align=left;verticalAlign=top;spacingLeft=4;spacingRight=4;overflow=hidden;rotatable=0;points=[[0,0.5],[1,0.5]];portConstraint=eastwest;whiteSpace=wrap;swimlaneFillColor=#ffffff;whiteSpace=wrap;fontSize=13;fillColor=none;strokeOpacity=100;fillOpacity=100;whiteSpace=wrap;spacing=0;strokeColor=#333333;rounded=1;absoluteArcSize=1;arcSize=7.5;strokeWidth=0.8;fontColor=#000000;container=0;fontStyle=3" vertex="1" parent="jNWc2fwv66Wsc-9iDNfM-1099">
          <mxGeometry x="176.54999999999995" y="182" width="123.45" height="24" as="geometry" />
        </mxCell>
        <mxCell id="jNWc2fwv66Wsc-9iDNfM-1120" value="&lt;span&gt;å©ç¨èæéãã¹ã¿&lt;/span&gt;" style="rounded=0;whiteSpace=wrap;html=1;fillColor=#dae8fc;strokeColor=#6c8ebf;fontColor=#000000;" vertex="1" parent="1">
          <mxGeometry x="330" y="460" width="340" height="30" as="geometry" />
        </mxCell>
        <mxCell id="jNWc2fwv66Wsc-9iDNfM-1121" value="&lt;span&gt;m_lodging_facility_by_category&lt;/span&gt;" style="html=1;overflow=block;blockSpacing=1;whiteSpace=wrap;swimlane;resizeParent=1;resizeParentMax=0;resizeLast=0;collapsible=0;marginBottom=0;fontStyle=0;swimlaneFillColor=#ffffff;startSize=30;whiteSpace=wrap;fontSize=13;fontColor=#000000;fontStyle=3;align=center;fillColor=#e0e0e0;whiteSpace=wrap;spacing=0;strokeColor=#333333;strokeOpacity=100;fillOpacity=100;rounded=1;absoluteArcSize=1;arcSize=7.5;strokeWidth=0.8;" vertex="1" parent="1">
          <mxGeometry x="-280" y="501" width="341.89" height="89" as="geometry" />
        </mxCell>
        <mxCell id="jNWc2fwv66Wsc-9iDNfM-1122" value="facility_id" style="strokeColor=none;part=1;resizeHeight=0;align=left;verticalAlign=top;spacingLeft=4;spacingRight=4;overflow=hidden;rotatable=0;points=[[0,0.5],[1,0.5]];portConstraint=eastwest;whiteSpace=wrap;swimlaneFillColor=#ffffff;whiteSpace=wrap;fontSize=13;fontColor=#000000;fontStyle=7;fillColor=none;strokeOpacity=100;fillOpacity=100;whiteSpace=wrap;spacing=0;rounded=1;absoluteArcSize=1;arcSize=7.5;strokeWidth=0.8;" vertex="1" parent="jNWc2fwv66Wsc-9iDNfM-1121">
          <mxGeometry y="33" width="110" height="24" as="geometry" />
        </mxCell>
        <mxCell id="jNWc2fwv66Wsc-9iDNfM-1123" value="MEDIUMINT (PK)" style="shape=partialRectangle;top=0;right=0;bottom=0;part=1;resizeHeight=0;align=left;verticalAlign=top;spacingLeft=4;spacingRight=4;overflow=hidden;rotatable=0;points=[[0,0.5],[1,0.5]];portConstraint=eastwest;whiteSpace=wrap;swimlaneFillColor=#ffffff;whiteSpace=wrap;fontSize=13;fontColor=#000000;fontStyle=7;fillColor=none;strokeOpacity=100;fillOpacity=100;whiteSpace=wrap;spacing=0;strokeColor=#333333;rounded=1;absoluteArcSize=1;arcSize=7.5;strokeWidth=0.8;" vertex="1" parent="jNWc2fwv66Wsc-9iDNfM-1121">
          <mxGeometry x="176" y="33" width="126.87" height="24" as="geometry" />
        </mxCell>
        <mxCell id="jNWc2fwv66Wsc-9iDNfM-1132" value="facility_category_id" style="strokeColor=none;part=1;resizeHeight=0;align=left;verticalAlign=top;spacingLeft=4;spacingRight=4;overflow=hidden;rotatable=0;points=[[0,0.5],[1,0.5]];portConstraint=eastwest;whiteSpace=wrap;swimlaneFillColor=#ffffff;whiteSpace=wrap;fontSize=13;fontColor=#000000;fontStyle=3;fillColor=none;strokeOpacity=100;fillOpacity=100;whiteSpace=wrap;spacing=0;rounded=1;absoluteArcSize=1;arcSize=7.5;strokeWidth=0.8;container=0;" vertex="1" parent="jNWc2fwv66Wsc-9iDNfM-1121">
          <mxGeometry y="60" width="140" height="24" as="geometry" />
        </mxCell>
        <mxCell id="jNWc2fwv66Wsc-9iDNfM-1141" value="MEDIUMINT (PK)" style="shape=partialRectangle;top=0;right=0;bottom=0;part=1;resizeHeight=0;align=left;verticalAlign=top;spacingLeft=4;spacingRight=4;overflow=hidden;rotatable=0;points=[[0,0.5],[1,0.5]];portConstraint=eastwest;whiteSpace=wrap;swimlaneFillColor=#ffffff;whiteSpace=wrap;fontSize=13;fontColor=#000000;fontStyle=3;fillColor=none;strokeOpacity=100;fillOpacity=100;whiteSpace=wrap;spacing=0;strokeColor=#333333;rounded=1;absoluteArcSize=1;arcSize=7.5;strokeWidth=0.8;container=0;" vertex="1" parent="jNWc2fwv66Wsc-9iDNfM-1121">
          <mxGeometry x="176.55667045963932" y="60" width="128.9665873590566" height="24" as="geometry" />
        </mxCell>
        <mxCell id="jNWc2fwv66Wsc-9iDNfM-1142" value="&lt;span&gt;æ½è¨­å¥ã«ãã´ãªãã¹ã¿&lt;/span&gt;" style="rounded=0;whiteSpace=wrap;html=1;fillColor=#dae8fc;strokeColor=#6c8ebf;fontColor=#000000;" vertex="1" parent="1">
          <mxGeometry x="-280" y="470" width="340" height="30" as="geometry" />
        </mxCell>
        <mxCell id="jNWc2fwv66Wsc-9iDNfM-1143" value="&lt;span&gt;m_lodging_parcel_price&lt;/span&gt;" style="html=1;overflow=block;blockSpacing=1;whiteSpace=wrap;swimlane;resizeParent=1;resizeParentMax=0;resizeLast=0;collapsible=0;marginBottom=0;fontStyle=0;swimlaneFillColor=#ffffff;startSize=30;whiteSpace=wrap;fontSize=13;fontColor=#000000;fontStyle=3;align=center;fillColor=#e0e0e0;whiteSpace=wrap;spacing=0;strokeColor=#333333;strokeOpacity=100;fillOpacity=100;rounded=1;absoluteArcSize=1;arcSize=7.5;strokeWidth=0.8;" vertex="1" parent="1">
          <mxGeometry x="933" y="491" width="341.89" height="209" as="geometry" />
        </mxCell>
        <mxCell id="jNWc2fwv66Wsc-9iDNfM-1144" value="parcel_price_id" style="strokeColor=none;part=1;resizeHeight=0;align=left;verticalAlign=top;spacingLeft=4;spacingRight=4;overflow=hidden;rotatable=0;points=[[0,0.5],[1,0.5]];portConstraint=eastwest;whiteSpace=wrap;swimlaneFillColor=#ffffff;whiteSpace=wrap;fontSize=13;fontColor=#000000;fontStyle=7;fillColor=none;strokeOpacity=100;fillOpacity=100;whiteSpace=wrap;spacing=0;rounded=1;absoluteArcSize=1;arcSize=7.5;strokeWidth=0.8;" vertex="1" parent="jNWc2fwv66Wsc-9iDNfM-1143">
          <mxGeometry y="33" width="140" height="24" as="geometry" />
        </mxCell>
        <mxCell id="jNWc2fwv66Wsc-9iDNfM-1145" value="MEDIUMINT (PK)" style="shape=partialRectangle;top=0;right=0;bottom=0;part=1;resizeHeight=0;align=left;verticalAlign=top;spacingLeft=4;spacingRight=4;overflow=hidden;rotatable=0;points=[[0,0.5],[1,0.5]];portConstraint=eastwest;whiteSpace=wrap;swimlaneFillColor=#ffffff;whiteSpace=wrap;fontSize=13;fontColor=#000000;fontStyle=7;fillColor=none;strokeOpacity=100;fillOpacity=100;whiteSpace=wrap;spacing=0;strokeColor=#333333;rounded=1;absoluteArcSize=1;arcSize=7.5;strokeWidth=0.8;" vertex="1" parent="jNWc2fwv66Wsc-9iDNfM-1143">
          <mxGeometry x="176" y="33" width="126.87" height="24" as="geometry" />
        </mxCell>
        <mxCell id="jNWc2fwv66Wsc-9iDNfM-1146" value="term_id" style="strokeColor=none;part=1;resizeHeight=0;align=left;verticalAlign=top;spacingLeft=4;spacingRight=4;overflow=hidden;rotatable=0;points=[[0,0.5],[1,0.5]];portConstraint=eastwest;whiteSpace=wrap;swimlaneFillColor=#ffffff;whiteSpace=wrap;fontSize=13;fillColor=none;strokeOpacity=100;fillOpacity=100;whiteSpace=wrap;spacing=0;rounded=1;absoluteArcSize=1;arcSize=7.5;strokeWidth=0.8;fontColor=#000000;container=0;fontStyle=3" vertex="1" parent="jNWc2fwv66Wsc-9iDNfM-1143">
          <mxGeometry y="83" width="146.8914865004655" height="24" as="geometry" />
        </mxCell>
        <mxCell id="jNWc2fwv66Wsc-9iDNfM-1147" value="facility_id" style="strokeColor=none;part=1;resizeHeight=0;align=left;verticalAlign=top;spacingLeft=4;spacingRight=4;overflow=hidden;rotatable=0;points=[[0,0.5],[1,0.5]];portConstraint=eastwest;whiteSpace=wrap;swimlaneFillColor=#ffffff;whiteSpace=wrap;fontSize=13;fillColor=none;strokeOpacity=100;fillOpacity=100;whiteSpace=wrap;spacing=0;rounded=1;absoluteArcSize=1;arcSize=7.5;strokeWidth=0.8;fontColor=#000000;fontStyle=3;container=0;" vertex="1" parent="jNWc2fwv66Wsc-9iDNfM-1143">
          <mxGeometry y="107" width="146.8914865004655" height="24" as="geometry" />
        </mxCell>
        <mxCell id="jNWc2fwv66Wsc-9iDNfM-1148" value="site_id" style="strokeColor=none;part=1;resizeHeight=0;align=left;verticalAlign=top;spacingLeft=4;spacingRight=4;overflow=hidden;rotatable=0;points=[[0,0.5],[1,0.5]];portConstraint=eastwest;whiteSpace=wrap;swimlaneFillColor=#ffffff;whiteSpace=wrap;fontSize=13;fillColor=none;strokeOpacity=100;fillOpacity=100;whiteSpace=wrap;spacing=0;rounded=1;absoluteArcSize=1;arcSize=7.5;strokeWidth=0.8;fontColor=#000000;container=0;fontStyle=3" vertex="1" parent="jNWc2fwv66Wsc-9iDNfM-1143">
          <mxGeometry y="132" width="146.8914865004655" height="24" as="geometry" />
        </mxCell>
        <mxCell id="jNWc2fwv66Wsc-9iDNfM-1149" value="usetime_id" style="strokeColor=none;part=1;resizeHeight=0;align=left;verticalAlign=top;spacingLeft=4;spacingRight=4;overflow=hidden;rotatable=0;points=[[0,0.5],[1,0.5]];portConstraint=eastwest;whiteSpace=wrap;swimlaneFillColor=#ffffff;whiteSpace=wrap;fontSize=13;fillColor=none;strokeOpacity=100;fillOpacity=100;whiteSpace=wrap;spacing=0;rounded=1;absoluteArcSize=1;arcSize=7.5;strokeWidth=0.8;fontColor=#000000;container=0;fontStyle=3" vertex="1" parent="jNWc2fwv66Wsc-9iDNfM-1143">
          <mxGeometry y="155" width="146.8914865004655" height="24" as="geometry" />
        </mxCell>
        <mxCell id="jNWc2fwv66Wsc-9iDNfM-1150" value="product_number_id" style="strokeColor=none;part=1;resizeHeight=0;align=left;verticalAlign=top;spacingLeft=4;spacingRight=4;overflow=hidden;rotatable=0;points=[[0,0.5],[1,0.5]];portConstraint=eastwest;whiteSpace=wrap;swimlaneFillColor=#ffffff;whiteSpace=wrap;fontSize=13;fontColor=#000000;fontStyle=3;fillColor=none;strokeOpacity=100;fillOpacity=100;whiteSpace=wrap;spacing=0;rounded=1;absoluteArcSize=1;arcSize=7.5;strokeWidth=0.8;container=0;" vertex="1" parent="jNWc2fwv66Wsc-9iDNfM-1143">
          <mxGeometry y="60" width="140" height="24" as="geometry" />
        </mxCell>
        <mxCell id="jNWc2fwv66Wsc-9iDNfM-1151" value="MEDIUMINT (FK)" style="shape=partialRectangle;top=0;right=0;bottom=0;part=1;resizeHeight=0;align=left;verticalAlign=top;spacingLeft=4;spacingRight=4;overflow=hidden;rotatable=0;points=[[0,0.5],[1,0.5]];portConstraint=eastwest;whiteSpace=wrap;swimlaneFillColor=#ffffff;whiteSpace=wrap;fontSize=13;fillColor=none;strokeOpacity=100;fillOpacity=100;whiteSpace=wrap;spacing=0;strokeColor=#333333;rounded=1;absoluteArcSize=1;arcSize=7.5;strokeWidth=0.8;fontColor=#000000;container=0;fontStyle=3" vertex="1" parent="jNWc2fwv66Wsc-9iDNfM-1143">
          <mxGeometry x="176.55" y="83" width="113.45" height="24" as="geometry" />
        </mxCell>
        <mxCell id="jNWc2fwv66Wsc-9iDNfM-1152" value="MEDIUMINT (FK)" style="shape=partialRectangle;top=0;right=0;bottom=0;part=1;resizeHeight=0;align=left;verticalAlign=top;spacingLeft=4;spacingRight=4;overflow=hidden;rotatable=0;points=[[0,0.5],[1,0.5]];portConstraint=eastwest;whiteSpace=wrap;swimlaneFillColor=#ffffff;whiteSpace=wrap;fontSize=13;fillColor=none;strokeOpacity=100;fillOpacity=100;whiteSpace=wrap;spacing=0;strokeColor=#333333;rounded=1;absoluteArcSize=1;arcSize=7.5;strokeWidth=0.8;fontColor=#000000;container=0;fontStyle=3" vertex="1" parent="jNWc2fwv66Wsc-9iDNfM-1143">
          <mxGeometry x="176.55667045963932" y="107" width="143.44332954036068" height="24" as="geometry" />
        </mxCell>
        <mxCell id="jNWc2fwv66Wsc-9iDNfM-1153" value="MEDIUMINT (FK)" style="shape=partialRectangle;top=0;right=0;bottom=0;part=1;resizeHeight=0;align=left;verticalAlign=top;spacingLeft=4;spacingRight=4;overflow=hidden;rotatable=0;points=[[0,0.5],[1,0.5]];portConstraint=eastwest;whiteSpace=wrap;swimlaneFillColor=#ffffff;whiteSpace=wrap;fontSize=13;fillColor=none;strokeOpacity=100;fillOpacity=100;whiteSpace=wrap;spacing=0;strokeColor=#333333;rounded=1;absoluteArcSize=1;arcSize=7.5;strokeWidth=0.8;fontColor=#000000;container=0;fontStyle=3" vertex="1" parent="jNWc2fwv66Wsc-9iDNfM-1143">
          <mxGeometry x="176.55" y="131" width="123.45" height="24" as="geometry" />
        </mxCell>
        <mxCell id="jNWc2fwv66Wsc-9iDNfM-1154" value="MEDIUMINT (FK)" style="shape=partialRectangle;top=0;right=0;bottom=0;part=1;resizeHeight=0;align=left;verticalAlign=top;spacingLeft=4;spacingRight=4;overflow=hidden;rotatable=0;points=[[0,0.5],[1,0.5]];portConstraint=eastwest;whiteSpace=wrap;swimlaneFillColor=#ffffff;whiteSpace=wrap;fontSize=13;fillColor=none;strokeOpacity=100;fillOpacity=100;whiteSpace=wrap;spacing=0;strokeColor=#333333;rounded=1;absoluteArcSize=1;arcSize=7.5;strokeWidth=0.8;fontColor=#000000;container=0;fontStyle=3" vertex="1" parent="jNWc2fwv66Wsc-9iDNfM-1143">
          <mxGeometry x="176.55" y="155" width="113.45" height="24" as="geometry" />
        </mxCell>
        <mxCell id="jNWc2fwv66Wsc-9iDNfM-1155" value="MEDIUMINT (FK)" style="shape=partialRectangle;top=0;right=0;bottom=0;part=1;resizeHeight=0;align=left;verticalAlign=top;spacingLeft=4;spacingRight=4;overflow=hidden;rotatable=0;points=[[0,0.5],[1,0.5]];portConstraint=eastwest;whiteSpace=wrap;swimlaneFillColor=#ffffff;whiteSpace=wrap;fontSize=13;fontColor=#000000;fontStyle=3;fillColor=none;strokeOpacity=100;fillOpacity=100;whiteSpace=wrap;spacing=0;strokeColor=#333333;rounded=1;absoluteArcSize=1;arcSize=7.5;strokeWidth=0.8;container=0;" vertex="1" parent="jNWc2fwv66Wsc-9iDNfM-1143">
          <mxGeometry x="176.55667045963932" y="60" width="128.9665873590566" height="24" as="geometry" />
        </mxCell>
        <mxCell id="jNWc2fwv66Wsc-9iDNfM-1173" value="usetime_id" style="strokeColor=none;part=1;resizeHeight=0;align=left;verticalAlign=top;spacingLeft=4;spacingRight=4;overflow=hidden;rotatable=0;points=[[0,0.5],[1,0.5]];portConstraint=eastwest;whiteSpace=wrap;swimlaneFillColor=#ffffff;whiteSpace=wrap;fontSize=13;fillColor=none;strokeOpacity=100;fillOpacity=100;whiteSpace=wrap;spacing=0;rounded=1;absoluteArcSize=1;arcSize=7.5;strokeWidth=0.8;fontColor=#000000;container=0;" vertex="1" parent="jNWc2fwv66Wsc-9iDNfM-1143">
          <mxGeometry y="180" width="146.8914865004655" height="24" as="geometry" />
        </mxCell>
        <mxCell id="jNWc2fwv66Wsc-9iDNfM-1174" value="MEDIUMINT" style="shape=partialRectangle;top=0;right=0;bottom=0;part=1;resizeHeight=0;align=left;verticalAlign=top;spacingLeft=4;spacingRight=4;overflow=hidden;rotatable=0;points=[[0,0.5],[1,0.5]];portConstraint=eastwest;whiteSpace=wrap;swimlaneFillColor=#ffffff;whiteSpace=wrap;fontSize=13;fillColor=none;strokeOpacity=100;fillOpacity=100;whiteSpace=wrap;spacing=0;strokeColor=#333333;rounded=1;absoluteArcSize=1;arcSize=7.5;strokeWidth=0.8;fontColor=#000000;container=0;" vertex="1" parent="jNWc2fwv66Wsc-9iDNfM-1143">
          <mxGeometry x="176.54999999999995" y="179" width="113.45" height="24" as="geometry" />
        </mxCell>
        <mxCell id="jNWc2fwv66Wsc-9iDNfM-1156" value="&lt;span&gt;åºç»æéãã¹ã¿&lt;/span&gt;" style="rounded=0;whiteSpace=wrap;html=1;fillColor=#dae8fc;strokeColor=#6c8ebf;fontColor=#000000;" vertex="1" parent="1">
          <mxGeometry x="933" y="460" width="340" height="30" as="geometry" />
        </mxCell>
        <mxCell id="jNWc2fwv66Wsc-9iDNfM-1157" value="&lt;span&gt;bbb&lt;/span&gt;" style="html=1;overflow=block;blockSpacing=1;whiteSpace=wrap;swimlane;resizeParent=1;resizeParentMax=0;resizeLast=0;collapsible=0;marginBottom=0;fontStyle=0;swimlaneFillColor=#ffffff;startSize=30;whiteSpace=wrap;fontSize=13;fontColor=#000000;fontStyle=3;align=center;fillColor=#e0e0e0;whiteSpace=wrap;spacing=0;strokeColor=#333333;strokeOpacity=100;fillOpacity=100;rounded=1;absoluteArcSize=1;arcSize=7.5;strokeWidth=0.8;" vertex="1" parent="1">
          <mxGeometry x="1520" y="491" width="341.89" height="179" as="geometry" />
        </mxCell>
        <mxCell id="jNWc2fwv66Wsc-9iDNfM-1158" value="lorem_ipsum" style="strokeColor=none;part=1;resizeHeight=0;align=left;verticalAlign=top;spacingLeft=4;spacingRight=4;overflow=hidden;rotatable=0;points=[[0,0.5],[1,0.5]];portConstraint=eastwest;whiteSpace=wrap;swimlaneFillColor=#ffffff;whiteSpace=wrap;fontSize=13;fontColor=#000000;fontStyle=7;fillColor=none;strokeOpacity=100;fillOpacity=100;whiteSpace=wrap;spacing=0;rounded=1;absoluteArcSize=1;arcSize=7.5;strokeWidth=0.8;" vertex="1" parent="jNWc2fwv66Wsc-9iDNfM-1157">
          <mxGeometry y="33" width="110" height="24" as="geometry" />
        </mxCell>
        <mxCell id="jNWc2fwv66Wsc-9iDNfM-1159" value="MEDIUMINT (PK)" style="shape=partialRectangle;top=0;right=0;bottom=0;part=1;resizeHeight=0;align=left;verticalAlign=top;spacingLeft=4;spacingRight=4;overflow=hidden;rotatable=0;points=[[0,0.5],[1,0.5]];portConstraint=eastwest;whiteSpace=wrap;swimlaneFillColor=#ffffff;whiteSpace=wrap;fontSize=13;fontColor=#000000;fontStyle=7;fillColor=none;strokeOpacity=100;fillOpacity=100;whiteSpace=wrap;spacing=0;strokeColor=#333333;rounded=1;absoluteArcSize=1;arcSize=7.5;strokeWidth=0.8;" vertex="1" parent="jNWc2fwv66Wsc-9iDNfM-1157">
          <mxGeometry x="176" y="33" width="126.87" height="24" as="geometry" />
        </mxCell>
        <mxCell id="jNWc2fwv66Wsc-9iDNfM-1160" value="lorem_ipsum" style="strokeColor=none;part=1;resizeHeight=0;align=left;verticalAlign=top;spacingLeft=4;spacingRight=4;overflow=hidden;rotatable=0;points=[[0,0.5],[1,0.5]];portConstraint=eastwest;whiteSpace=wrap;swimlaneFillColor=#ffffff;whiteSpace=wrap;fontSize=13;fillColor=none;strokeOpacity=100;fillOpacity=100;whiteSpace=wrap;spacing=0;rounded=1;absoluteArcSize=1;arcSize=7.5;strokeWidth=0.8;fontColor=#000000;container=0;fontStyle=3" vertex="1" parent="jNWc2fwv66Wsc-9iDNfM-1157">
          <mxGeometry y="83" width="146.8914865004655" height="24" as="geometry" />
        </mxCell>
        <mxCell id="jNWc2fwv66Wsc-9iDNfM-1161" value="lorem_ipsum" style="strokeColor=none;part=1;resizeHeight=0;align=left;verticalAlign=top;spacingLeft=4;spacingRight=4;overflow=hidden;rotatable=0;points=[[0,0.5],[1,0.5]];portConstraint=eastwest;whiteSpace=wrap;swimlaneFillColor=#ffffff;whiteSpace=wrap;fontSize=13;fillColor=none;strokeOpacity=100;fillOpacity=100;whiteSpace=wrap;spacing=0;rounded=1;absoluteArcSize=1;arcSize=7.5;strokeWidth=0.8;fontColor=#000000;fontStyle=3;container=0;" vertex="1" parent="jNWc2fwv66Wsc-9iDNfM-1157">
          <mxGeometry y="107" width="146.8914865004655" height="24" as="geometry" />
        </mxCell>
        <mxCell id="jNWc2fwv66Wsc-9iDNfM-1162" value="lorem_ipsum" style="strokeColor=none;part=1;resizeHeight=0;align=left;verticalAlign=top;spacingLeft=4;spacingRight=4;overflow=hidden;rotatable=0;points=[[0,0.5],[1,0.5]];portConstraint=eastwest;whiteSpace=wrap;swimlaneFillColor=#ffffff;whiteSpace=wrap;fontSize=13;fillColor=none;strokeOpacity=100;fillOpacity=100;whiteSpace=wrap;spacing=0;rounded=1;absoluteArcSize=1;arcSize=7.5;strokeWidth=0.8;fontColor=#000000;container=0;" vertex="1" parent="jNWc2fwv66Wsc-9iDNfM-1157">
          <mxGeometry y="129" width="146.8914865004655" height="24" as="geometry" />
        </mxCell>
        <mxCell id="jNWc2fwv66Wsc-9iDNfM-1163" value="lorem_ipsum" style="strokeColor=none;part=1;resizeHeight=0;align=left;verticalAlign=top;spacingLeft=4;spacingRight=4;overflow=hidden;rotatable=0;points=[[0,0.5],[1,0.5]];portConstraint=eastwest;whiteSpace=wrap;swimlaneFillColor=#ffffff;whiteSpace=wrap;fontSize=13;fillColor=none;strokeOpacity=100;fillOpacity=100;whiteSpace=wrap;spacing=0;rounded=1;absoluteArcSize=1;arcSize=7.5;strokeWidth=0.8;fontColor=#000000;container=0;" vertex="1" parent="jNWc2fwv66Wsc-9iDNfM-1157">
          <mxGeometry y="152" width="146.8914865004655" height="24" as="geometry" />
        </mxCell>
        <mxCell id="jNWc2fwv66Wsc-9iDNfM-1164" value="lorem_ipsum" style="strokeColor=none;part=1;resizeHeight=0;align=left;verticalAlign=top;spacingLeft=4;spacingRight=4;overflow=hidden;rotatable=0;points=[[0,0.5],[1,0.5]];portConstraint=eastwest;whiteSpace=wrap;swimlaneFillColor=#ffffff;whiteSpace=wrap;fontSize=13;fontColor=#000000;fontStyle=3;fillColor=none;strokeOpacity=100;fillOpacity=100;whiteSpace=wrap;spacing=0;rounded=1;absoluteArcSize=1;arcSize=7.5;strokeWidth=0.8;container=0;" vertex="1" parent="jNWc2fwv66Wsc-9iDNfM-1157">
          <mxGeometry y="60" width="121.37512499568982" height="24" as="geometry" />
        </mxCell>
        <mxCell id="jNWc2fwv66Wsc-9iDNfM-1165" value="MEDIUMINT (FK)" style="shape=partialRectangle;top=0;right=0;bottom=0;part=1;resizeHeight=0;align=left;verticalAlign=top;spacingLeft=4;spacingRight=4;overflow=hidden;rotatable=0;points=[[0,0.5],[1,0.5]];portConstraint=eastwest;whiteSpace=wrap;swimlaneFillColor=#ffffff;whiteSpace=wrap;fontSize=13;fillColor=none;strokeOpacity=100;fillOpacity=100;whiteSpace=wrap;spacing=0;strokeColor=#333333;rounded=1;absoluteArcSize=1;arcSize=7.5;strokeWidth=0.8;fontColor=#000000;container=0;fontStyle=3" vertex="1" parent="jNWc2fwv66Wsc-9iDNfM-1157">
          <mxGeometry x="176.55" y="83" width="113.45" height="24" as="geometry" />
        </mxCell>
        <mxCell id="jNWc2fwv66Wsc-9iDNfM-1166" value="MEDIUMINT (FK)" style="shape=partialRectangle;top=0;right=0;bottom=0;part=1;resizeHeight=0;align=left;verticalAlign=top;spacingLeft=4;spacingRight=4;overflow=hidden;rotatable=0;points=[[0,0.5],[1,0.5]];portConstraint=eastwest;whiteSpace=wrap;swimlaneFillColor=#ffffff;whiteSpace=wrap;fontSize=13;fillColor=none;strokeOpacity=100;fillOpacity=100;whiteSpace=wrap;spacing=0;strokeColor=#333333;rounded=1;absoluteArcSize=1;arcSize=7.5;strokeWidth=0.8;fontColor=#000000;container=0;fontStyle=3" vertex="1" parent="jNWc2fwv66Wsc-9iDNfM-1157">
          <mxGeometry x="176.55667045963932" y="107" width="143.44332954036068" height="24" as="geometry" />
        </mxCell>
        <mxCell id="jNWc2fwv66Wsc-9iDNfM-1167" value="lorem_ipsum" style="shape=partialRectangle;top=0;right=0;bottom=0;part=1;resizeHeight=0;align=left;verticalAlign=top;spacingLeft=4;spacingRight=4;overflow=hidden;rotatable=0;points=[[0,0.5],[1,0.5]];portConstraint=eastwest;whiteSpace=wrap;swimlaneFillColor=#ffffff;whiteSpace=wrap;fontSize=13;fillColor=none;strokeOpacity=100;fillOpacity=100;whiteSpace=wrap;spacing=0;strokeColor=#333333;rounded=1;absoluteArcSize=1;arcSize=7.5;strokeWidth=0.8;fontColor=#000000;container=0;" vertex="1" parent="jNWc2fwv66Wsc-9iDNfM-1157">
          <mxGeometry x="176.55115340850315" y="131" width="75.99737940071033" height="24" as="geometry" />
        </mxCell>
        <mxCell id="jNWc2fwv66Wsc-9iDNfM-1168" value="lorem_ipsum" style="shape=partialRectangle;top=0;right=0;bottom=0;part=1;resizeHeight=0;align=left;verticalAlign=top;spacingLeft=4;spacingRight=4;overflow=hidden;rotatable=0;points=[[0,0.5],[1,0.5]];portConstraint=eastwest;whiteSpace=wrap;swimlaneFillColor=#ffffff;whiteSpace=wrap;fontSize=13;fillColor=none;strokeOpacity=100;fillOpacity=100;whiteSpace=wrap;spacing=0;strokeColor=#333333;rounded=1;absoluteArcSize=1;arcSize=7.5;strokeWidth=0.8;fontColor=#000000;container=0;" vertex="1" parent="jNWc2fwv66Wsc-9iDNfM-1157">
          <mxGeometry x="176.55115340850315" y="155" width="75.99737940071033" height="24" as="geometry" />
        </mxCell>
        <mxCell id="jNWc2fwv66Wsc-9iDNfM-1169" value="MEDIUMINT (FK)" style="shape=partialRectangle;top=0;right=0;bottom=0;part=1;resizeHeight=0;align=left;verticalAlign=top;spacingLeft=4;spacingRight=4;overflow=hidden;rotatable=0;points=[[0,0.5],[1,0.5]];portConstraint=eastwest;whiteSpace=wrap;swimlaneFillColor=#ffffff;whiteSpace=wrap;fontSize=13;fontColor=#000000;fontStyle=3;fillColor=none;strokeOpacity=100;fillOpacity=100;whiteSpace=wrap;spacing=0;strokeColor=#333333;rounded=1;absoluteArcSize=1;arcSize=7.5;strokeWidth=0.8;container=0;" vertex="1" parent="jNWc2fwv66Wsc-9iDNfM-1157">
          <mxGeometry x="176.55667045963932" y="60" width="128.9665873590566" height="24" as="geometry" />
        </mxCell>
        <mxCell id="jNWc2fwv66Wsc-9iDNfM-1170" value="&lt;span&gt;aaa&lt;/span&gt;" style="rounded=0;whiteSpace=wrap;html=1;fillColor=#dae8fc;strokeColor=#6c8ebf;fontColor=#000000;" vertex="1" parent="1">
          <mxGeometry x="1520" y="460" width="340" height="30" as="geometry" />
        </mxCell>
      </root>
    </mxGraphModel>
  </diagram>
</mxfile>
